<?xml version="1.0" encoding="UTF-8"?>
<svg version="1.1" xmlns="http://www.w3.org/2000/svg" width="512" height="512">
<path d="M0 0 C0.70125 0.433125 1.4025 0.86625 2.125 1.3125 C7.57933123 3.7937015 13.13612182 5.7363326 18.828125 7.59765625 C19.74656189 7.89941269 20.66499878 8.20116913 21.61126709 8.5120697 C23.54708147 9.14657797 25.48347433 9.7793238 27.42041016 10.41040039 C30.35442131 11.36828157 33.28463329 12.33720513 36.21484375 13.30664062 C38.10654757 13.92516241 39.99846796 14.54302231 41.890625 15.16015625 C42.75246399 15.44665543 43.61430298 15.7331546 44.5022583 16.02833557 C49.9579264 17.79021891 55.30534228 18.96128186 60.980896 19.79051208 C61.68845032 19.9627681 62.39600464 20.13502411 63.125 20.3125 C63.455 20.9725 63.785 21.6325 64.125 22.3125 C66.33341228 22.89866144 66.33341228 22.89866144 69 23.25 C83.68277585 25.68435056 83.68277585 25.68435056 89.125 29.3125 C98.09720548 56.22911643 88.21577204 105.32729882 77.125 130.3125 C76.81014648 131.02760742 76.49529297 131.74271484 76.17089844 132.47949219 C62.9119151 162.00534622 38.68509517 182.02164827 10.0625 195.9375 C9.06440308 196.4337085 9.06440308 196.4337085 8.04614258 196.93994141 C2.30793321 199.61390544 -3.65300063 201.35816206 -9.8359375 199.3515625 C-11.03089844 198.65160156 -11.03089844 198.65160156 -12.25 197.9375 C-14.84706054 196.46171004 -17.02875299 195.261249 -19.875 194.3125 C-23.27393208 192.42279522 -26.56256397 190.34913784 -29.875 188.3125 C-30.71289062 187.81878906 -31.55078125 187.32507813 -32.4140625 186.81640625 C-49.0666631 176.72925694 -63.31837517 163.71432043 -73.875 147.3125 C-74.42542969 146.50425781 -74.97585937 145.69601562 -75.54296875 144.86328125 C-94.42224001 115.26991554 -96.89611973 78.55323174 -97.1875 44.4375 C-97.19721832 43.75089294 -97.20693665 43.06428589 -97.21694946 42.35687256 C-97.24049286 40.40731506 -97.23990122 38.45751148 -97.23828125 36.5078125 C-97.24126221 35.38391113 -97.24424316 34.26000977 -97.24731445 33.10205078 C-96.875 30.3125 -96.875 30.3125 -95.51586914 28.48730469 C-93.14420978 26.78927986 -90.81356357 26.1999285 -88 25.4375 C-86.75089844 25.09847656 -85.50179687 24.75945312 -84.21484375 24.41015625 C-78.5432898 22.95160554 -72.84033463 21.61312077 -67.12744141 20.32666016 C-53.11908453 17.1053697 -39.48206838 12.62151002 -25.91357422 7.91821289 C-23.58567886 7.11137141 -21.25590248 6.31015378 -18.92578125 5.50976562 C-17.4243704 4.99250311 -15.92306418 4.47493675 -14.421875 3.95703125 C-13.73542908 3.72055374 -13.04898315 3.48407623 -12.34173584 3.24043274 C-9.53106008 2.26522113 -6.76100547 1.2642483 -4.02050781 0.10424805 C-1.875 -0.6875 -1.875 -0.6875 0 0 Z M-10.77734375 12.15625 C-12.46500854 12.78394287 -12.46500854 12.78394287 -14.18676758 13.42431641 C-15.38325928 13.88241699 -16.57975098 14.34051758 -17.8125 14.8125 C-20.35363774 15.75598745 -22.89930534 16.68693236 -25.4453125 17.6171875 C-26.08134903 17.85069916 -26.71738556 18.08421082 -27.37269592 18.32479858 C-43.56335941 24.24338919 -60.22923212 28.55567233 -76.93481445 32.73681641 C-78.21187256 33.05827637 -79.48893066 33.37973633 -80.8046875 33.7109375 C-81.95179199 33.99630371 -83.09889648 34.28166992 -84.28076172 34.57568359 C-86.78390836 35.05907104 -86.78390836 35.05907104 -87.875 36.3125 C-89.72259129 62.70666124 -86.75839978 91.34574376 -77.875 116.3125 C-74.53346174 115.19865391 -74.348264 114.83367707 -72.625 112 C-69.9515085 108.02655392 -67.14042631 106.40339525 -62.875 104.3125 C-63.16375 103.61125 -63.4525 102.91 -63.75 102.1875 C-66.63177477 94.82296449 -68.2682996 89.23345246 -65.1875 81.625 C-62.94224078 77.0409291 -60.73757161 74.34216323 -55.80078125 72.56640625 C-50.60934767 71.14735565 -46.94469344 71.1676297 -41.875 73.3125 C-37.19698517 76.39573705 -34.60359793 79.64097425 -33.125 85.0625 C-32.57808067 92.17245126 -33.75279925 97.93235065 -36.875 104.3125 C-35.885 104.6425 -34.895 104.9725 -33.875 105.3125 C-33.5346875 104.67183594 -33.194375 104.03117187 -32.84375 103.37109375 C-29.02368373 96.55390102 -24.59296228 89.88515409 -16.875 87.3125 C-17.60332903 84.3656861 -17.60332903 84.3656861 -19.30078125 82.91796875 C-23.098581 79.04477843 -25.08023415 72.67287156 -25.375 67.3125 C-24.93077944 59.74543258 -21.35711888 52.42914429 -15.875 47.3125 C-9.88662769 43.51035885 -3.89065293 42.21311658 3.125 43.3125 C10.12806212 45.41466252 14.49150221 49.94896717 18.1953125 56.0859375 C21.332894 62.785098 20.65648956 70.92592583 18.26171875 77.78515625 C16.57550456 81.26826278 14.47585652 84.24295306 12.125 87.3125 C12.83785156 87.77398437 13.55070312 88.23546875 14.28515625 88.7109375 C21.19902294 93.4194389 25.82097116 98.1440151 30.125 105.3125 C31.115 104.3225 32.105 103.3325 33.125 102.3125 C32.650625 101.508125 32.17625 100.70375 31.6875 99.875 C28.73445787 93.14206393 28.40149702 87.2354667 31.04296875 80.32421875 C33.24273892 76.23439334 36.49074385 74.28421987 40.4375 71.9375 C45.73133218 70.70637624 51.02495162 71.5094128 55.9375 73.8125 C60.19498991 76.55511559 61.83120986 80.55073984 63.125 85.3125 C64.10638721 91.28176243 63.01951159 95.49380821 60 100.68359375 C58.96726076 102.29797464 58.96726076 102.29797464 59.125 104.3125 C61.76392176 106.09555524 64.09678863 107.30309621 67.125 108.3125 C67.125 108.9725 67.125 109.6325 67.125 110.3125 C67.785 110.3125 68.445 110.3125 69.125 110.3125 C69.785 111.9625 70.445 113.6125 71.125 115.3125 C73.31405915 114.51224498 73.31405915 114.51224498 73.77929688 112.35742188 C73.96556641 111.50728516 74.15183594 110.65714844 74.34375 109.78125 C74.55290039 108.83386963 74.76205078 107.88648926 74.97753906 106.91040039 C75.19120117 105.88809326 75.40486328 104.86578613 75.625 103.8125 C75.84639648 102.76892334 76.06779297 101.72534668 76.29589844 100.65014648 C78.10227821 91.89537795 79.36848412 83.21475667 80.125 74.3125 C80.23585938 73.04921875 80.34671875 71.7859375 80.4609375 70.484375 C81.31357933 59.1004543 81.22753969 47.7212242 81.125 36.3125 C72.80376535 33.64904318 64.41953081 31.26706477 56 28.9375 C45.29408233 25.96879355 34.68261536 22.77054621 24.125 19.3125 C23.13886719 18.99023438 22.15273438 18.66796875 21.13671875 18.3359375 C18.75779421 17.52753513 16.39375122 16.69419295 14.03125 15.83984375 C13.31066406 15.58009766 12.59007812 15.32035156 11.84765625 15.05273438 C10.36463339 14.51712594 8.88285666 13.97805468 7.40234375 13.43554688 C6.68175781 13.17708984 5.96117187 12.91863281 5.21875 12.65234375 C4.57615234 12.41894287 3.93355469 12.18554199 3.27148438 11.94506836 C-2.09133197 10.36464785 -5.50711933 10.14594502 -10.77734375 12.15625 Z M-12.875 55.3125 C-16.00588915 59.19912101 -16.99889833 63.37426658 -16.875 68.3125 C-15.93001964 74.24375969 -13.72547687 78.61665709 -8.90234375 82.27734375 C-5.22292457 84.15604526 -1.86597351 84.16303534 2.125 83.3125 C6.53924884 81.10537558 9.23331028 78.89238038 11.125 74.3125 C12.53433447 67.88855682 12.5524598 63.13918165 9.125 57.3125 C5.41102517 52.89885585 5.41102517 52.89885585 0.125 51.3125 C-0.98875 51.209375 -2.1025 51.10625 -3.25 51 C-7.62900036 51.37750003 -9.5323014 52.50159436 -12.875 55.3125 Z M-57.4375 82.8125 C-59.2603407 87.25072084 -59.48066777 89.54286629 -58.875 94.3125 C-57.64046291 97.45994519 -57.64046291 97.45994519 -54.875 99.3125 C-51.72363583 100.02978811 -49.03048795 99.99749916 -45.875 99.3125 C-42.6448823 97.4991503 -42.6448823 97.4991503 -40.875 94.3125 C-40.02034249 90.19686771 -40.47458514 87.16793175 -42.25 83.375 C-44.08067669 81.05144882 -45.00174123 80.44568039 -47.8984375 80.00390625 C-53.23632335 79.6838916 -53.23632335 79.6838916 -57.4375 82.8125 Z M37.90625 84.39453125 C36.39063145 88.11537479 36.96921668 91.55263697 38.125 95.3125 C39.50216666 98.02357713 39.50216666 98.02357713 42.125 99.3125 C46.01721094 99.99983089 49.06141608 99.88519903 52.5625 98 C55.40875714 94.92604229 55.5360625 91.39208731 55.4609375 87.3203125 C55.21403714 85.00211735 55.21403714 85.00211735 53.125 82.3125 C49.81625816 80.10667211 47.97662096 79.49148653 44.06640625 79.7734375 C41.29185095 80.54383716 39.54931242 82.05760802 37.90625 84.39453125 Z M-21.875 100.3125 C-28.87582969 108.82702259 -29.25612456 117.88920103 -28.9375 128.5 C-28.87726918 130.78492671 -28.82617879 133.07011649 -28.78515625 135.35546875 C-28.75558838 136.35602295 -28.72602051 137.35657715 -28.69555664 138.38745117 C-28.89534823 141.64418992 -29.72426297 144.27164985 -30.875 147.3125 C-35.75 144.6875 -35.75 144.6875 -36.875 141.3125 C-36.96697592 139.3792231 -37.00664383 137.44325521 -37.015625 135.5078125 C-37.03496094 134.36699219 -37.05429688 133.22617187 -37.07421875 132.05078125 C-37.10796076 129.64990748 -37.12629351 127.24876569 -37.12890625 124.84765625 C-37.00479432 117.86224592 -37.00479432 117.86224592 -40.296875 112.0546875 C-45.17759758 108.75650224 -49.08272151 108.86694012 -54.875 109.3125 C-62.4391994 111.26875847 -66.83644438 116.97039485 -71.16796875 123.16015625 C-72.63475631 127.62534932 -71.22709059 131.52190494 -69.37890625 135.671875 C-64.03287132 145.00861205 -57.90471737 152.30527019 -50.25390625 159.921875 C-48.93517436 161.24710311 -47.62933524 162.58710433 -46.3828125 163.98046875 C-36.47971235 174.86268897 -21.93323304 181.94049149 -8.875 188.3125 C-7.99070313 188.745625 -7.10640625 189.17875 -6.1953125 189.625 C-0.69301394 191.25531069 3.99431679 188.09752618 8.8125 185.625 C9.52510986 185.26196777 10.23771973 184.89893555 10.97192383 184.52490234 C30.12651301 174.67719769 47.49502008 161.73962636 59.125 143.3125 C59.59550781 142.60222656 60.06601562 141.89195312 60.55078125 141.16015625 C65.33643431 134.21018184 65.33643431 134.21018184 67 126.25 C66.566875 125.2909375 66.566875 125.2909375 66.125 124.3125 C65.50625 122.8584375 65.50625 122.8584375 64.875 121.375 C62.96247613 118.02808323 61.00978562 115.86184543 58.125 113.3125 C57.279375 112.549375 56.43375 111.78625 55.5625 111 C50.4531588 108.49177796 45.71393148 108.54794029 40.125 109.3125 C37.37593117 110.32722221 36.28429973 111.21155972 34.125 113.3125 C32.99027892 116.52468093 32.95930702 119.68172341 32.87890625 123.06640625 C32.82959961 124.71866211 32.82959961 124.71866211 32.77929688 126.40429688 C32.71799835 128.7219027 32.66071966 131.03961826 32.60742188 133.35742188 C32.57326172 134.45763672 32.53910156 135.55785156 32.50390625 136.69140625 C32.46632202 138.20069702 32.46632202 138.20069702 32.42797852 139.74047852 C32.125 142.3125 32.125 142.3125 30.125 145.3125 C27.5 146 27.5 146 25.125 146.3125 C25.13547363 145.54172119 25.14594727 144.77094238 25.15673828 143.97680664 C25.19862863 140.44290502 25.2244306 136.9090559 25.25 133.375 C25.27513672 131.55645508 25.27513672 131.55645508 25.30078125 129.70117188 C25.36226819 118.35683177 24.37922511 110.28530712 17.125 101.3125 C5.73786503 90.22502647 -10.24080475 89.28645586 -21.875 100.3125 Z " fill="#C10C30" transform="translate(259.875,157.6875)"/>
<path d="M0 0 C0.99 0.495 0.99 0.495 2 1 C2 1.99 2 2.98 2 4 C1.34 4 0.68 4 0 4 C0 2.68 0 1.36 0 0 Z " fill="#C10C30" transform="translate(264,234)"/>
<path d="M0 0 C0.99 0 1.98 0 3 0 C2.67 0.66 2.34 1.32 2 2 C1.34 1.34 0.68 0.68 0 0 Z " fill="#C10C30" transform="translate(217,271)"/>
<path d="M0 0 C0.99 0 1.98 0 3 0 C2.67 0.66 2.34 1.32 2 2 C1.34 1.34 0.68 0.68 0 0 Z " fill="#C10C30" transform="translate(300,184)"/>
<path d="M0 0 C3 1 3 1 3 1 Z " fill="#C10C30" transform="translate(216,273)"/>
<path d="M0 0 C3 1 3 1 3 1 Z " fill="#C10C30" transform="translate(193,234)"/>
<path d="" fill="#C10C30" transform="translate(0,0)"/>
<path d="M0 0 C2 1 2 1 2 1 Z " fill="#C10C30" transform="translate(177,293)"/>
<path d="" fill="#C10C30" transform="translate(0,0)"/>
<path d="" fill="#C10C30" transform="translate(0,0)"/>
<path d="" fill="#C10C30" transform="translate(0,0)"/>
<path d="M0 0 C2 1 2 1 2 1 Z " fill="#C10C30" transform="translate(185,191)"/>
<path d="M0 0 C2 1 2 1 2 1 Z " fill="#C10C30" transform="translate(169,182)"/>
<path d="M0 0 C2 1 2 1 2 1 Z " fill="#C10C30" transform="translate(274,175)"/>
<path d="" fill="#C10C30" transform="translate(0,0)"/>
<path d="" fill="#C10C30" transform="translate(0,0)"/>
<path d="" fill="#C10C30" transform="translate(0,0)"/>
<path d="" fill="#C10C30" transform="translate(0,0)"/>
<path d="" fill="#C10C30" transform="translate(0,0)"/>
<path d="" fill="#C10C30" transform="translate(0,0)"/>
<path d="" fill="#C10C30" transform="translate(0,0)"/>
<path d="" fill="#C10C30" transform="translate(0,0)"/>
<path d="" fill="#C10C30" transform="translate(0,0)"/>
<path d="" fill="#C10C30" transform="translate(0,0)"/>
<path d="" fill="#C10C30" transform="translate(0,0)"/>
<path d="" fill="#C10C30" transform="translate(0,0)"/>
<path d="" fill="#C10C30" transform="translate(0,0)"/>
<path d="" fill="#C10C30" transform="translate(0,0)"/>
<path d="" fill="#C10C30" transform="translate(0,0)"/>
<path d="" fill="#C10C30" transform="translate(0,0)"/>
<path d="" fill="#C10C30" transform="translate(0,0)"/>
<path d="" fill="#C10C30" transform="translate(0,0)"/>
<path d="" fill="#C10C30" transform="translate(0,0)"/>
<path d="" fill="#C10C30" transform="translate(0,0)"/>
<path d="" fill="#C10C30" transform="translate(0,0)"/>
<path d="" fill="#C10C30" transform="translate(0,0)"/>
<path d="" fill="#C10C30" transform="translate(0,0)"/>
<path d="" fill="#C10C30" transform="translate(0,0)"/>
<path d="" fill="#C10C30" transform="translate(0,0)"/>
<path d="" fill="#C10C30" transform="translate(0,0)"/>
<path d="" fill="#C10C30" transform="translate(0,0)"/>
<path d="" fill="#C10C30" transform="translate(0,0)"/>
<path d="" fill="#C10C30" transform="translate(0,0)"/>
<path d="" fill="#C10C30" transform="translate(0,0)"/>
<path d="" fill="#C10C30" transform="translate(0,0)"/>
<path d="" fill="#C10C30" transform="translate(0,0)"/>
<path d="" fill="#C10C30" transform="translate(0,0)"/>
<path d="" fill="#C10C30" transform="translate(0,0)"/>
<path d="" fill="#C10C30" transform="translate(0,0)"/>
<path d="" fill="#C10C30" transform="translate(0,0)"/>
<path d="" fill="#C10C30" transform="translate(0,0)"/>
<path d="" fill="#C10C30" transform="translate(0,0)"/>
<path d="" fill="#C10C30" transform="translate(0,0)"/>
<path d="" fill="#C10C30" transform="translate(0,0)"/>
<path d="" fill="#C10C30" transform="translate(0,0)"/>
<path d="" fill="#C10C30" transform="translate(0,0)"/>
<path d="" fill="#C10C30" transform="translate(0,0)"/>
<path d="" fill="#C10C30" transform="translate(0,0)"/>
<path d="" fill="#C10C30" transform="translate(0,0)"/>
<path d="" fill="#C10C30" transform="translate(0,0)"/>
<path d="" fill="#C10C30" transform="translate(0,0)"/>
<path d="" fill="#C10C30" transform="translate(0,0)"/>
<path d="" fill="#C10C30" transform="translate(0,0)"/>
<path d="" fill="#C10C30" transform="translate(0,0)"/>
<path d="" fill="#C10C30" transform="translate(0,0)"/>
<path d="" fill="#C10C30" transform="translate(0,0)"/>
<path d="" fill="#C10C30" transform="translate(0,0)"/>
<path d="" fill="#C10C30" transform="translate(0,0)"/>
<path d="" fill="#C10C30" transform="translate(0,0)"/>
<path d="" fill="#C10C30" transform="translate(0,0)"/>
<path d="" fill="#C10C30" transform="translate(0,0)"/>
<path d="" fill="#C10C30" transform="translate(0,0)"/>
<path d="" fill="#C10C30" transform="translate(0,0)"/>
<path d="" fill="#C10C30" transform="translate(0,0)"/>
<path d="" fill="#C10C30" transform="translate(0,0)"/>
<path d="" fill="#C10C30" transform="translate(0,0)"/>
<path d="" fill="#C10C30" transform="translate(0,0)"/>
<path d="" fill="#C10C30" transform="translate(0,0)"/>
<path d="" fill="#C10C30" transform="translate(0,0)"/>
<path d="" fill="#C10C30" transform="translate(0,0)"/>
<path d="" fill="#C10C30" transform="translate(0,0)"/>
<path d="" fill="#C10C30" transform="translate(0,0)"/>
<path d="" fill="#C10C30" transform="translate(0,0)"/>
<path d="" fill="#C10C30" transform="translate(0,0)"/>
<path d="" fill="#C10C30" transform="translate(0,0)"/>
<path d="" fill="#C10C30" transform="translate(0,0)"/>
<path d="" fill="#C10C30" transform="translate(0,0)"/>
<path d="" fill="#C10C30" transform="translate(0,0)"/>
<path d="" fill="#C10C30" transform="translate(0,0)"/>
<path d="" fill="#C10C30" transform="translate(0,0)"/>
<path d="" fill="#C10C30" transform="translate(0,0)"/>
<path d="" fill="#C10C30" transform="translate(0,0)"/>
<path d="" fill="#C10C30" transform="translate(0,0)"/>
<path d="" fill="#C10C30" transform="translate(0,0)"/>
<path d="" fill="#C10C30" transform="translate(0,0)"/>
<path d="" fill="#C10C30" transform="translate(0,0)"/>
<path d="" fill="#C10C30" transform="translate(0,0)"/>
<path d="" fill="#C10C30" transform="translate(0,0)"/>
<path d="" fill="#C10C30" transform="translate(0,0)"/>
<path d="" fill="#C10C30" transform="translate(0,0)"/>
<path d="" fill="#C10C30" transform="translate(0,0)"/>
<path d="" fill="#C10C30" transform="translate(0,0)"/>
<path d="" fill="#C10C30" transform="translate(0,0)"/>
<path d="" fill="#C10C30" transform="translate(0,0)"/>
</svg>
