<?xml version="1.0" encoding="UTF-8"?>
<svg version="1.1" xmlns="http://www.w3.org/2000/svg" width="512" height="512">
<path d="M0 0 C0.99 0.53625 1.98 1.0725 3 1.625 C6.69112752 3.31676678 8.12524937 3.08493018 12 2 C13.29169844 1.43757297 14.58336312 0.8750684 15.875 0.3125 C19.60713596 -1.10926608 22.22655218 -1.25018735 26.05078125 -0.078125 C29.2381403 1.68482309 31.20730358 4.33407494 33.359375 7.22265625 C36.57393274 10.7050938 41.20316152 10.22733937 45.68359375 10.5234375 C48.75262523 11.15484027 50.52792036 12.04962548 53 14 C54.21012881 16.36900511 55.17115868 18.52151247 56.0625 21 C58.78461251 28.44196585 61.92692418 30.62421381 69 34 C69 34.66 69 35.32 69 36 C69.66 36 70.32 36 71 36 C70.80470703 37.84464844 70.80470703 37.84464844 70.60546875 39.7265625 C70.4647196 41.35925268 70.32547599 42.99207313 70.1875 44.625 C70.09791016 45.43324219 70.00832031 46.24148437 69.91601562 47.07421875 C69.58189155 51.40024622 69.54065811 54.04393757 72.42578125 57.44140625 C73.27527344 58.28574219 74.12476563 59.13007813 75 60 C77.10983735 64.87899887 74.80652636 69.3152791 73 74 C73.70125 74.24234375 74.4025 74.4846875 75.125 74.734375 C91.16942301 80.40224182 91.16942301 80.40224182 97 87 C97.49371094 87.5259375 97.98742187 88.051875 98.49609375 88.59375 C105.50618264 96.2856181 108.91810499 104.68404544 109.03515625 115.140625 C108.39227316 128.37460865 104.48915454 136.79435271 95 146 C94.22462891 146.78890625 94.22462891 146.78890625 93.43359375 147.59375 C86.54700247 154.02908316 76.62189666 156.30023836 67.453125 156.1484375 C55.63228974 155.43316403 45.0022731 150.87618301 37 142 C33.27844842 136.89198803 30.65363533 132.37294442 30 126 C29.34 125.67 28.68 125.34 28 125 C27.56034151 111.00420461 28.82726429 98.73821067 38.1875 87.8125 C44.16712693 81.48921635 50.81092576 76.94806673 59 74 C59.99 74 60.98 74 62 74 C62 73.34 62 72.68 62 72 C62.66 72 63.32 72 64 72 C64 70.68 64 69.36 64 68 C64.66 68 65.32 68 66 68 C65.07262949 64.93254369 64.20600874 62.31313329 62.4375 59.625 C59.69154165 54.61064127 59.59714869 49.90927492 60.9375 44.5 C61.288125 43.345 61.63875 42.19 62 41 C60.68 41.33 59.36 41.66 58 42 C58 41.01 58 40.02 58 39 C56.38500163 37.51459664 56.38500163 37.51459664 54.3125 36.0625 C49.04076095 31.71776302 47.16272459 26.33220804 45 20 C44.39671875 20.01160156 43.7934375 20.02320313 43.171875 20.03515625 C41.97304688 20.04869141 41.97304688 20.04869141 40.75 20.0625 C39.56664062 20.07990234 39.56664062 20.07990234 38.359375 20.09765625 C36.09308998 20.00385306 34.1711105 19.63241063 32 19 C32 18.34 32 17.68 32 17 C31.21625 16.7525 30.4325 16.505 29.625 16.25 C26.61694992 14.8175952 26.24509643 13.9690761 25 11 C22.12063188 9.56031594 20.20992381 9.697177 17 10 C14.54267317 11.16991236 12.32424363 12.56969623 10 14 C9.34 14 8.68 14 8 14 C8 14.66 8 15.32 8 16 C5.48435529 14.88193568 3.64201233 13.70466017 1.5 11.9375 C-0.82767647 10.13355073 -2.1441791 9.42308458 -5 9 C-5.33 9.99 -5.66 10.98 -6 12 C-6.99 11.67 -7.98 11.34 -9 11 C-9.25523437 11.61488281 -9.51046875 12.22976562 -9.7734375 12.86328125 C-11.84119695 16.46539724 -15.20251244 17.61667703 -19 19 C-21.68316519 19.53377354 -24.26437251 19.76816716 -27 20 C-27.99 20.33 -28.98 20.66 -30 21 C-30.99669338 23.24623523 -31.85816835 25.44403929 -32.6875 27.75 C-34.83598222 33.27129358 -36.88565583 36.66674773 -42.265625 39.3984375 C-44 40 -44 40 -46 40 C-45.84402344 40.54527344 -45.68804687 41.09054688 -45.52734375 41.65234375 C-43.84568258 48.16738869 -43.03147684 54.49089349 -46.4375 60.5625 C-48 62 -48 62 -50 62 C-50.74178107 66.74739882 -48.74750247 69.23943677 -46.24609375 73.0234375 C-42.02864939 79.71317684 -42.53642519 86.49917911 -44 94 C-43.38511719 94.39832031 -42.77023438 94.79664063 -42.13671875 95.20703125 C-41.32847656 95.73683594 -40.52023438 96.26664062 -39.6875 96.8125 C-38.88699219 97.33457031 -38.08648437 97.85664063 -37.26171875 98.39453125 C-33.34640814 101.17379318 -31.73471311 102.82623775 -30.875 107.625 C-30.50902407 110.59940649 -30.50902407 110.59940649 -29 113 C-27.10593982 113.13255476 -25.20943588 113.23083609 -23.3125 113.3125 C-16.47586428 113.83901815 -13.15678914 115.79185874 -8.375 120.6875 C-5.95911597 123.03980813 -5.24910753 123.70622898 -2 124 C0.6264257 122.83412322 2.99679112 121.40221858 5.46484375 119.93359375 C8 119 8 119 10.46484375 119.640625 C13.239346 121.12833961 15.95008968 122.65081329 18.625 124.3125 C19.56601562 124.88613281 20.50703125 125.45976562 21.4765625 126.05078125 C24.22767307 128.17586511 25.60992703 129.82057778 27 133 C26.6875 135.3125 26.6875 135.3125 26 137 C21.3460249 136.10186445 18.12814208 135.33211625 14.4375 132.3125 C11.63872896 130.15126222 11.1692234 130 7.375 130 C4.01541425 130.82144901 4.01541425 130.82144901 1.5 132.625 C-2.00079499 134.55043724 -4.19286211 133.9165332 -8 133 C-8.99 132.34 -9.98 131.68 -11 131 C-12.65549531 130.61500109 -14.3222433 130.27206865 -16 130 C-15.67 129.34 -15.34 128.68 -15 128 C-18.94218284 123.63544042 -21.74489388 123.03936648 -27.4375 122.625 C-31.27245227 122.22631684 -33.92808104 121.477354 -37 119 C-37 118.34 -37 117.68 -37 117 C-37.66 116.67 -38.32 116.34 -39 116 C-40.44512404 112.3871899 -41 109.93312158 -41 106 C-41.721875 105.731875 -42.44375 105.46375 -43.1875 105.1875 C-48.7618662 102.83387872 -52.41418795 100.6887865 -55 95 C-54.71549746 91.56923412 -53.85126763 88.32867472 -53 85 C-52.46004216 81.62526348 -52.37626566 79.91977542 -54.30859375 77.0703125 C-55.39489562 75.68964105 -56.48344166 74.31073236 -57.57421875 72.93359375 C-59.65996581 70.10497787 -60.28862042 68.53560011 -60 65 C-58.56611204 62.68238652 -56.98122367 60.51362133 -55.375 58.3125 C-53.20284781 54.65933496 -53.49713336 52.16660929 -54 48 C-54.495 46.515 -54.495 46.515 -55 45 C-55.42167655 37.26926334 -55.42167655 37.26926334 -53 34 C-51.66666667 33.33333333 -50.33333333 32.66666667 -49 32 C-47.73195434 29.9664052 -47.73195434 29.9664052 -47 28 C-46.34 28.66 -45.68 29.32 -45 30 C-44.34 30 -43.68 30 -43 30 C-42.85304687 29.3709375 -42.70609375 28.741875 -42.5546875 28.09375 C-40.57495413 20.5389054 -37.63399623 14.42266416 -31 10 C-28.6953125 9.91015625 -28.6953125 9.91015625 -26.125 10.0625 C-21.83550534 10.13731677 -19.37319423 9.87713625 -16 7 C-15.0409375 5.7625 -15.0409375 5.7625 -14.0625 4.5 C-10.02180384 -0.39781353 -6.06763634 -1.76972727 0 0 Z M49 90 C48.071875 90.66 47.14375 91.32 46.1875 92 C40.85675146 96.39002821 38.01139867 103.28514699 37 110 C36.18336284 120.36501012 38.17629306 129.89364138 45 138 C51.67484313 144.05807118 59.96478986 146.8792958 68.9296875 147.05859375 C78.25431196 146.45158911 85.56762859 143.92948677 92 137 C98.10397964 129.42264597 100.51908953 122.35872527 100.32421875 112.66015625 C99.55153591 106.32043319 97.27302732 99.82257676 93 95 C92.34 95 91.68 95 91 95 C90.65388672 94.10861328 90.65388672 94.10861328 90.30078125 93.19921875 C88.65956763 90.42443416 86.96007669 89.42949 84.1875 87.8125 C83.33542969 87.30332031 82.48335937 86.79414063 81.60546875 86.26953125 C72.01378694 81.59592317 56.81805043 82.18194957 49 90 Z " fill="#C10C30" transform="translate(246,185)"/>
<path d="M0 0 C2.01406486 0.64793813 4.02839002 1.29506765 6.04296875 1.94140625 C7.02185059 2.26125488 8.00073242 2.58110352 9.00927734 2.91064453 C12.92067535 4.16902323 16.86261748 5.30718335 20.8125 6.4375 C25.98658936 7.93556732 31.09113902 9.56300295 36.1875 11.3125 C42.07302796 13.30384405 47.99564156 15.02779274 54 16.625 C54.81452637 16.84414062 55.62905273 17.06328125 56.46826172 17.2890625 C57.23541504 17.48886719 58.00256836 17.68867188 58.79296875 17.89453125 C59.47254639 18.07218018 60.15212402 18.2498291 60.85229492 18.43286133 C63.1342331 18.93925984 63.1342331 18.93925984 66.8125 18.8125 C66.8125 19.4725 66.8125 20.1325 66.8125 20.8125 C68.1428125 20.93625 68.1428125 20.93625 69.5 21.0625 C73.46564615 21.96038215 75.04690939 22.82510473 77.8125 25.8125 C78.51941818 28.79725476 78.41818883 31.70428204 78.3359375 34.7578125 C78.33123444 35.64169647 78.32653137 36.52558044 78.32168579 37.43624878 C78.30036033 40.27079183 78.24395878 43.10346232 78.1875 45.9375 C78.17097698 47.79034627 78.15663303 49.64321333 78.14453125 51.49609375 C78.06622537 60.24826328 77.82500572 68.9927123 77.38671875 77.734375 C77.35367645 78.4487674 77.32063416 79.16315979 77.28659058 79.89920044 C76.93605924 86.09444279 75.6548895 91.90294879 73.8125 97.8125 C71.8325 97.8125 69.8525 97.8125 67.8125 97.8125 C67.8125 97.1525 67.8125 96.4925 67.8125 95.8125 C66.8225 95.8125 65.8325 95.8125 64.8125 95.8125 C64.769779 94.14638095 64.77186168 92.47867115 64.8125 90.8125 C65.1425 90.4825 65.4725 90.1525 65.8125 89.8125 C66.2152593 87.22847911 66.55041572 84.66819648 66.8359375 82.0703125 C66.92402679 81.27013702 67.01211609 80.46996155 67.10287476 79.64553833 C68.09048096 70.00937831 68.26804117 60.36607024 68.4375 50.6875 C68.47582388 48.84243243 68.514883 46.99737997 68.5546875 45.15234375 C68.64905713 40.70585687 68.73363123 36.25928771 68.8125 31.8125 C63.14402723 29.60652271 57.47467126 27.77103905 51.6171875 26.140625 C49.84064565 25.63903954 48.06411615 25.13741035 46.28759766 24.63574219 C45.37133606 24.3783728 44.45507446 24.12100342 43.51104736 23.85583496 C16.08489874 16.14988222 16.08489874 16.14988222 2.85498047 11.69238281 C-0.70930221 10.50654303 -3.38881816 9.8125 -7.1875 9.8125 C-7.1875 9.1525 -7.1875 8.4925 -7.1875 7.8125 C-13.8464434 6.8915823 -20.56811117 6.27466219 -27.1875 7.8125 C-27.5175 8.4725 -27.8475 9.1325 -28.1875 9.8125 C-30.42456055 10.50366211 -30.42456055 10.50366211 -33.38671875 11.15234375 C-40.41427333 12.80753832 -47.17277912 15.04087485 -54 17.375 C-67.97302387 22.11954294 -67.97302387 22.11954294 -74.1875 23.8125 C-76.23854718 24.38707238 -78.28929531 24.96271274 -80.33984375 25.5390625 C-82.6015093 26.1720651 -84.8632294 26.80487286 -87.125 27.4375 C-88.28580078 27.76234375 -89.44660156 28.0871875 -90.64257812 28.421875 C-93.49083819 29.21891897 -96.33914678 30.01578902 -99.1875 30.8125 C-99.70368585 59.35625423 -99.52505777 88.74252315 -89.1875 115.8125 C-88.81753906 116.83730469 -88.44757813 117.86210937 -88.06640625 118.91796875 C-84.587124 130.31871521 -84.587124 130.31871521 -77.1875 138.8125 C-77.6825 142.7725 -77.6825 142.7725 -78.1875 146.8125 C-80.1675 147.1425 -82.1475 147.4725 -84.1875 147.8125 C-103.47376309 119.61586612 -107.63746562 86.89784107 -109.4375 53.5625 C-109.50849915 52.28270264 -109.50849915 52.28270264 -109.58093262 50.97705078 C-110.75119568 29.2922119 -110.75119568 29.2922119 -109.1875 24.8125 C-106.0949648 21.73524687 -102.61907891 20.87896911 -98.4765625 19.75390625 C-97.47384308 19.476073 -97.47384308 19.476073 -96.4508667 19.19262695 C-95.00014648 18.79079069 -93.54844227 18.39249368 -92.09588623 17.99734497 C-88.16710482 16.92654174 -84.24725332 15.82428784 -80.328125 14.71875 C-79.09737747 14.3717379 -79.09737747 14.3717379 -77.84176636 14.01771545 C-68.3571926 11.3230192 -58.95789891 8.36344072 -49.5625 5.375 C-48.75371399 5.11824493 -47.94492798 4.86148987 -47.1116333 4.59695435 C-44.79002635 3.8592942 -42.46921081 3.11918414 -40.1484375 2.37890625 C-39.06539841 2.03594261 -39.06539841 2.03594261 -37.96047974 1.68605042 C-34.3786656 0.54511065 -30.86078352 -0.69071443 -27.3515625 -2.03515625 C-18.0643871 -5.10728421 -8.97498562 -3.03364466 0 0 Z " fill="#C10C30" transform="translate(269.1875,162.1875)"/>
<path d="M0 0 C4.06805197 3.85580578 7.1235428 8.26054955 9.734375 13.203125 C10.32605469 14.31107422 10.32605469 14.31107422 10.9296875 15.44140625 C14.73742545 23.57611913 15.15821997 32.91902668 12.734375 41.578125 C12.404375 42.444375 12.074375 43.310625 11.734375 44.203125 C10.744375 44.203125 9.754375 44.203125 8.734375 44.203125 C8.239375 45.193125 8.239375 45.193125 7.734375 46.203125 C6.744375 46.203125 5.754375 46.203125 4.734375 46.203125 C4.734375 46.863125 4.734375 47.523125 4.734375 48.203125 C3.249375 47.708125 3.249375 47.708125 1.734375 47.203125 C1.87875 46.59726562 2.023125 45.99140625 2.171875 45.3671875 C4.50311324 34.84423709 5.07709115 24.68450205 -0.51953125 15.04296875 C-1.99099873 12.96206515 -3.54800108 11.08545258 -5.265625 9.203125 C-5.83023438 8.584375 -6.39484375 7.965625 -6.9765625 7.328125 C-12.98499092 1.44645667 -21.19443078 -2.60451936 -29.6640625 -2.92578125 C-30.52257812 -2.88324219 -31.38109375 -2.84070313 -32.265625 -2.796875 C-31.77666748 -2.00168457 -31.77666748 -2.00168457 -31.27783203 -1.19042969 C-29.9938944 1.84568333 -30.03924804 4.20716684 -30.0703125 7.5 C-30.07675781 8.70527344 -30.08320313 9.91054687 -30.08984375 11.15234375 C-30.10660156 12.40660156 -30.12335938 13.66085938 -30.140625 14.953125 C-30.14964844 16.22285156 -30.15867187 17.49257812 -30.16796875 18.80078125 C-30.19153495 21.93508593 -30.22443668 25.06901041 -30.265625 28.203125 C-25.3285438 25.01648181 -20.61532281 21.87499165 -16.328125 17.828125 C-12.47910815 14.203125 -12.47910815 14.203125 -10.265625 14.203125 C-10.265625 13.543125 -10.265625 12.883125 -10.265625 12.203125 C-7.25530756 11.26888855 -6.39912232 11.15862589 -3.265625 12.203125 C-3.265625 15.173125 -3.265625 18.143125 -3.265625 21.203125 C-4.585625 21.203125 -5.905625 21.203125 -7.265625 21.203125 C-8.98770127 22.47723844 -8.98770127 22.47723844 -10.515625 24.265625 C-13.02925563 26.95764232 -15.58911581 29.3259509 -18.453125 31.640625 C-21.90067377 34.5833304 -23.58219106 37.37703916 -25.421875 41.46875 C-26.65053012 43.99431887 -27.69051494 45.05863164 -30.265625 46.203125 C-33.88439971 46.65921024 -37.13420852 46.5306403 -40.640625 45.515625 C-42.94803752 43.65194566 -43.48864803 42.05204055 -44.265625 39.203125 C-44.74758576 34.57630169 -44.10666735 31.91833423 -41.265625 28.203125 C-40.605625 28.203125 -39.945625 28.203125 -39.265625 28.203125 C-39.28133545 26.95438599 -39.28133545 26.95438599 -39.29736328 25.68041992 C-39.33146942 22.58863344 -39.35653576 19.49694292 -39.37548828 16.4050293 C-39.39047995 14.40992882 -39.41589231 12.41491554 -39.44140625 10.41992188 C-39.45107422 8.53950195 -39.45107422 8.53950195 -39.4609375 6.62109375 C-39.47664795 4.88508911 -39.47664795 4.88508911 -39.49267578 3.11401367 C-39.265625 0.203125 -39.265625 0.203125 -37.265625 -2.796875 C-46.50714221 -3.38675908 -54.80761566 -0.06731747 -62.04296875 5.59375 C-68.03601975 10.99667563 -72.94709326 19.15859988 -74.265625 27.203125 C-74.88851292 40.58797247 -74.20825669 51.96206219 -65.21875 62.6328125 C-57.59312716 70.6528641 -49.62700701 74.83809779 -38.484375 75.390625 C-31.50937934 75.54424487 -24.9466123 75.43012077 -18.265625 73.203125 C-17.935625 74.523125 -17.605625 75.843125 -17.265625 77.203125 C-17.925625 77.203125 -18.585625 77.203125 -19.265625 77.203125 C-19.36875 77.986875 -19.471875 78.770625 -19.578125 79.578125 C-20.265625 82.203125 -20.265625 82.203125 -23.265625 84.203125 C-25.98054434 84.68793203 -28.52626039 85.0074561 -31.265625 85.203125 C-32.08289063 85.26886719 -32.90015625 85.33460938 -33.7421875 85.40234375 C-47.64065872 85.99682113 -58.82567795 80.86886757 -69.265625 72.203125 C-70.96680678 70.50531858 -72.48482342 68.82879198 -73.921875 66.90625 C-75.33065841 65.00592951 -75.33065841 65.00592951 -77.77734375 63.06640625 C-81.06116714 59.28768953 -81.70068243 55.97991151 -82.578125 51.140625 C-82.74054688 50.29081055 -82.90296875 49.44099609 -83.0703125 48.56542969 C-85.63335892 34.39867522 -84.62305944 20.93409631 -77.078125 8.265625 C-69.66213199 -2.27289139 -58.91747691 -9.63115466 -46.25390625 -12.47265625 C-28.78849449 -14.36759635 -13.83930949 -10.97600408 0 0 Z M-36.265625 35.203125 C-35.935625 36.523125 -35.605625 37.843125 -35.265625 39.203125 C-34.275625 38.873125 -33.285625 38.543125 -32.265625 38.203125 C-32.265625 37.213125 -32.265625 36.223125 -32.265625 35.203125 C-33.585625 35.203125 -34.905625 35.203125 -36.265625 35.203125 Z " fill="#C10C30" transform="translate(289.265625,215.796875)"/>
<path d="M0 0 C0 0.99 0 1.98 0 3 C0.66 3.33 1.32 3.66 2 4 C0.58437393 7.31294564 -0.83269528 10.62527219 -2.25 13.9375 C-2.64574219 14.86369141 -3.04148438 15.78988281 -3.44921875 16.74414062 C-5.9203997 22.51698137 -8.43190234 28.2696 -11 34 C-9.948125 33.505 -9.948125 33.505 -8.875 33 C-5.58974033 31.85730098 -3.44904829 31.48631196 0 32 C3.49521847 35.39241793 5.73743287 39.71728364 8 44 C8 44.66 8 45.32 8 46 C10.24891558 43.93974653 11.58388997 42.14361355 12.7890625 39.34765625 C13.09070313 38.65349609 13.39234375 37.95933594 13.703125 37.24414062 C14.00734375 36.52419922 14.3115625 35.80425781 14.625 35.0625 C14.93695313 34.34642578 15.24890625 33.63035156 15.5703125 32.89257812 C16.98097095 29.61218918 18.19918754 26.48870231 19 23 C21.31 23 23.62 23 26 23 C27.9835487 30.0352466 25.41205279 34.63843511 22.3125 41 C21.86455078 41.9590625 21.41660156 42.918125 20.95507812 43.90625 C14.09920808 58.43630355 14.09920808 58.43630355 10.5625 60.25 C7.54045968 59.9551668 6.26737934 58.98982434 4.26953125 56.73828125 C-2 48.15384615 -2 48.15384615 -2 44 C-3.485 44.495 -3.485 44.495 -5 45 C-5 44.01 -5 43.02 -5 42 C-5.79664063 42.30035156 -6.59328125 42.60070312 -7.4140625 42.91015625 C-8.47367188 43.29042969 -9.53328125 43.67070312 -10.625 44.0625 C-12.19121094 44.63677734 -12.19121094 44.63677734 -13.7890625 45.22265625 C-17.27170764 46.06577837 -19.54452348 45.82495611 -23 45 C-23.98256932 42.4646657 -24.2183358 40.64137143 -23.33544922 38.04785156 C-22.25936831 35.70781098 -21.11531463 33.4155389 -19.9375 31.125 C-16.3463515 23.89525826 -13.1817647 16.67252781 -10.38671875 9.1015625 C-8.12239043 4.03712113 -5.88265552 0 0 0 Z " fill="#C10C30" transform="translate(204,294)"/>
<path d="M0 0 C1.8125 2.5 1.8125 2.5 3 5 C-0.77560595 9.39610943 -5.62731799 11.97838104 -10.5625 14.875 C-11.45984863 15.40440186 -12.35719727 15.93380371 -13.28173828 16.47924805 C-15.05492443 17.5220817 -16.82993973 18.56181255 -18.60693359 19.59814453 C-20.59967399 20.7654895 -22.57781497 21.95209809 -24.55078125 23.15234375 C-25.94876953 23.97412109 -25.94876953 23.97412109 -27.375 24.8125 C-28.14585937 25.27269531 -28.91671875 25.73289062 -29.7109375 26.20703125 C-32.98286432 27.3404803 -34.66216318 26.98780851 -38 26 C-41.11584345 24.40602719 -44.05069785 22.56853181 -47 20.6875 C-47.78117188 20.20087891 -48.56234375 19.71425781 -49.3671875 19.21289062 C-51.58820722 17.82381852 -53.79428616 16.41319693 -56 15 C-56.62068359 14.61803467 -57.24136719 14.23606934 -57.88085938 13.8425293 C-59.29307948 12.95446012 -60.65323214 11.98450435 -62 11 C-62.73320331 7.24233303 -62.15827162 6.23740742 -60 3 C-56.36826307 3.56190335 -53.83170495 4.47990893 -50.75 6.46875 C-49.9765625 6.95730469 -49.203125 7.44585937 -48.40625 7.94921875 C-46.80208333 8.98307292 -45.19791667 10.01692708 -43.59375 11.05078125 C-42.8203125 11.53933594 -42.046875 12.02789062 -41.25 12.53125 C-40.20585937 13.20510742 -40.20585937 13.20510742 -39.140625 13.89257812 C-36.71460325 15.14764595 -34.71445139 15.70928291 -32 16 C-28.78138852 14.65239487 -28.78138852 14.65239487 -25.5 12.5625 C-24.89486572 12.20285156 -24.28973145 11.84320313 -23.66625977 11.47265625 C-20.53220843 9.59832678 -17.44611419 7.65291357 -14.37109375 5.68359375 C-13.79359375 5.31741943 -13.21609375 4.95124512 -12.62109375 4.57397461 C-11.01894215 3.55195244 -9.4290203 2.51083298 -7.83984375 1.46875 C-4.86827244 -0.0681287 -3.28518359 -0.54943837 0 0 Z " fill="#C10C30" transform="translate(288,334)"/>
<path d="M0 0 C1.051875 0.185625 1.051875 0.185625 2.125 0.375 C3.375 2.5 3.375 2.5 4.125 5.375 C1.56018342 9.82480225 -1.67660347 13.53459116 -5.1875 17.25 C-6.1621832 18.29620015 -7.13614068 19.34307688 -8.109375 20.390625 C-8.58052734 20.89658203 -9.05167969 21.40253906 -9.53710938 21.92382812 C-11.9272618 24.51635842 -14.23177871 27.18212252 -16.53515625 29.8515625 C-17.60387904 31.06672835 -18.7307106 32.2307106 -19.875 33.375 C-23.20553955 33.45245441 -25.21307619 32.90560025 -27.82421875 30.8125 C-29.62349675 29.06066746 -31.3293687 27.3550543 -32.875 25.375 C-32.875 24.715 -32.875 24.055 -32.875 23.375 C-34.195 23.375 -35.515 23.375 -36.875 23.375 C-36.875 22.055 -36.875 20.735 -36.875 19.375 C-37.535 19.375 -38.195 19.375 -38.875 19.375 C-39.625 17.125 -39.625 17.125 -39.875 14.375 C-37.9375 12.0625 -37.9375 12.0625 -35.875 10.375 C-30.35210509 12.61045746 -27.42515735 15.77993818 -23.875 20.375 C-19.780715 18.79879638 -17.32520437 15.83683178 -14.5 12.625 C-13.52141632 11.54114002 -12.54225513 10.45780116 -11.5625 9.375 C-10.03409963 7.673014 -8.51350127 5.96530143 -7 4.25 C-4.68211311 1.73895587 -3.45961283 0.45125385 0 0 Z " fill="#C10C30" transform="translate(331.875,284.625)"/>
<path d="M0 0 C0.33 0 0.66 0 1 0 C1 1.65 1 3.3 1 5 C0.67 5 0.34 5 0 5 C0 3.35 0 1.7 0 0 Z " fill="#C10C30" transform="translate(159,225)"/>
<path d="M0 0 C0.66 0 1.32 0 2 0 C2 0.66 2 1.32 2 2 C1.34 2 0.68 2 0 2 C0 1.34 0 0.68 0 0 Z " fill="#C10C30" transform="translate(334,319)"/>
<path d="M0 0 C1 4 1 4 1 4 Z " fill="#C10C30" transform="translate(344,296)"/>
<path d="M0 0 C1 4 1 4 1 4 Z " fill="#C10C30" transform="translate(310,248)"/>
<path d="M0 0 C0.99 0.495 0.99 0.495 2 1 C1.67 1.66 1.34 2.32 1 3 C0.67 2.01 0.34 1.02 0 0 Z " fill="#C10C30" transform="translate(279,223)"/>
<path d="M0 0 C0.33 0.66 0.66 1.32 1 2 C0.34 1.67 -0.32 1.34 -1 1 C-0.67 0.67 -0.34 0.34 0 0 Z " fill="#C10C30" transform="translate(279,322)"/>
<path d="M0 0 C0.33 0.66 0.66 1.32 1 2 C0.34 1.67 -0.32 1.34 -1 1 C-0.67 0.67 -0.34 0.34 0 0 Z " fill="#C10C30" transform="translate(303,315)"/>
<path d="M0 0 C3 1 3 1 3 1 Z " fill="#C10C30" transform="translate(190,284)"/>
<path d="M0 0 C0.66 0.66 1.32 1.32 2 2 C1.34 2 0.68 2 0 2 C0 1.34 0 0.68 0 0 Z " fill="#C10C30" transform="translate(297,219)"/>
<path d="" fill="#C10C30" transform="translate(0,0)"/>
<path d="M0 0 C2 1 2 1 2 1 Z " fill="#C10C30" transform="translate(239,300)"/>
<path d="M0 0 C2 1 2 1 2 1 Z " fill="#C10C30" transform="translate(226,297)"/>
<path d="" fill="#C10C30" transform="translate(0,0)"/>
<path d="M0 0 C2 1 2 1 2 1 Z " fill="#C10C30" transform="translate(203,279)"/>
<path d="" fill="#C10C30" transform="translate(0,0)"/>
<path d="" fill="#C10C30" transform="translate(0,0)"/>
<path d="" fill="#C10C30" transform="translate(0,0)"/>
<path d="M0 0 C2 1 2 1 2 1 Z " fill="#C10C30" transform="translate(302,229)"/>
<path d="" fill="#C10C30" transform="translate(0,0)"/>
<path d="" fill="#C10C30" transform="translate(0,0)"/>
<path d="" fill="#C10C30" transform="translate(0,0)"/>
<path d="M0 0 C2 1 2 1 2 1 Z " fill="#C10C30" transform="translate(250,201)"/>
<path d="M0 0 C2 1 2 1 2 1 Z " fill="#C10C30" transform="translate(264,196)"/>
<path d="M0 0 C2 1 2 1 2 1 Z " fill="#C10C30" transform="translate(255,170)"/>
<path d="" fill="#C10C30" transform="translate(0,0)"/>
<path d="" fill="#C10C30" transform="translate(0,0)"/>
<path d="" fill="#C10C30" transform="translate(0,0)"/>
<path d="" fill="#C10C30" transform="translate(0,0)"/>
<path d="" fill="#C10C30" transform="translate(0,0)"/>
<path d="" fill="#C10C30" transform="translate(0,0)"/>
<path d="" fill="#C10C30" transform="translate(0,0)"/>
<path d="" fill="#C10C30" transform="translate(0,0)"/>
<path d="" fill="#C10C30" transform="translate(0,0)"/>
<path d="" fill="#C10C30" transform="translate(0,0)"/>
<path d="" fill="#C10C30" transform="translate(0,0)"/>
<path d="" fill="#C10C30" transform="translate(0,0)"/>
<path d="" fill="#C10C30" transform="translate(0,0)"/>
<path d="" fill="#C10C30" transform="translate(0,0)"/>
<path d="" fill="#C10C30" transform="translate(0,0)"/>
<path d="" fill="#C10C30" transform="translate(0,0)"/>
<path d="" fill="#C10C30" transform="translate(0,0)"/>
<path d="" fill="#C10C30" transform="translate(0,0)"/>
<path d="" fill="#C10C30" transform="translate(0,0)"/>
<path d="" fill="#C10C30" transform="translate(0,0)"/>
<path d="" fill="#C10C30" transform="translate(0,0)"/>
<path d="" fill="#C10C30" transform="translate(0,0)"/>
<path d="" fill="#C10C30" transform="translate(0,0)"/>
<path d="" fill="#C10C30" transform="translate(0,0)"/>
<path d="" fill="#C10C30" transform="translate(0,0)"/>
<path d="" fill="#C10C30" transform="translate(0,0)"/>
<path d="" fill="#C10C30" transform="translate(0,0)"/>
<path d="" fill="#C10C30" transform="translate(0,0)"/>
<path d="" fill="#C10C30" transform="translate(0,0)"/>
<path d="" fill="#C10C30" transform="translate(0,0)"/>
<path d="" fill="#C10C30" transform="translate(0,0)"/>
<path d="" fill="#C10C30" transform="translate(0,0)"/>
<path d="" fill="#C10C30" transform="translate(0,0)"/>
<path d="" fill="#C10C30" transform="translate(0,0)"/>
<path d="" fill="#C10C30" transform="translate(0,0)"/>
<path d="" fill="#C10C30" transform="translate(0,0)"/>
<path d="" fill="#C10C30" transform="translate(0,0)"/>
<path d="" fill="#C10C30" transform="translate(0,0)"/>
<path d="" fill="#C10C30" transform="translate(0,0)"/>
<path d="" fill="#C10C30" transform="translate(0,0)"/>
<path d="" fill="#C10C30" transform="translate(0,0)"/>
<path d="" fill="#C10C30" transform="translate(0,0)"/>
<path d="" fill="#C10C30" transform="translate(0,0)"/>
<path d="" fill="#C10C30" transform="translate(0,0)"/>
<path d="" fill="#C10C30" transform="translate(0,0)"/>
<path d="" fill="#C10C30" transform="translate(0,0)"/>
<path d="" fill="#C10C30" transform="translate(0,0)"/>
<path d="" fill="#C10C30" transform="translate(0,0)"/>
<path d="" fill="#C10C30" transform="translate(0,0)"/>
<path d="" fill="#C10C30" transform="translate(0,0)"/>
<path d="" fill="#C10C30" transform="translate(0,0)"/>
<path d="" fill="#C10C30" transform="translate(0,0)"/>
<path d="" fill="#C10C30" transform="translate(0,0)"/>
<path d="" fill="#C10C30" transform="translate(0,0)"/>
<path d="" fill="#C10C30" transform="translate(0,0)"/>
<path d="" fill="#C10C30" transform="translate(0,0)"/>
<path d="" fill="#C10C30" transform="translate(0,0)"/>
<path d="" fill="#C10C30" transform="translate(0,0)"/>
<path d="" fill="#C10C30" transform="translate(0,0)"/>
<path d="" fill="#C10C30" transform="translate(0,0)"/>
<path d="" fill="#C10C30" transform="translate(0,0)"/>
<path d="" fill="#C10C30" transform="translate(0,0)"/>
<path d="" fill="#C10C30" transform="translate(0,0)"/>
<path d="" fill="#C10C30" transform="translate(0,0)"/>
<path d="" fill="#C10C30" transform="translate(0,0)"/>
<path d="" fill="#C10C30" transform="translate(0,0)"/>
<path d="" fill="#C10C30" transform="translate(0,0)"/>
<path d="" fill="#C10C30" transform="translate(0,0)"/>
<path d="" fill="#C10C30" transform="translate(0,0)"/>
<path d="" fill="#C10C30" transform="translate(0,0)"/>
<path d="" fill="#C10C30" transform="translate(0,0)"/>
<path d="" fill="#C10C30" transform="translate(0,0)"/>
<path d="" fill="#C10C30" transform="translate(0,0)"/>
<path d="" fill="#C10C30" transform="translate(0,0)"/>
<path d="" fill="#C10C30" transform="translate(0,0)"/>
<path d="" fill="#C10C30" transform="translate(0,0)"/>
<path d="" fill="#C10C30" transform="translate(0,0)"/>
<path d="" fill="#C10C30" transform="translate(0,0)"/>
<path d="" fill="#C10C30" transform="translate(0,0)"/>
<path d="" fill="#C10C30" transform="translate(0,0)"/>
<path d="" fill="#C10C30" transform="translate(0,0)"/>
<path d="" fill="#C10C30" transform="translate(0,0)"/>
<path d="" fill="#C10C30" transform="translate(0,0)"/>
<path d="" fill="#C10C30" transform="translate(0,0)"/>
<path d="" fill="#C10C30" transform="translate(0,0)"/>
<path d="" fill="#C10C30" transform="translate(0,0)"/>
<path d="" fill="#C10C30" transform="translate(0,0)"/>
<path d="" fill="#C10C30" transform="translate(0,0)"/>
<path d="" fill="#C10C30" transform="translate(0,0)"/>
<path d="" fill="#C10C30" transform="translate(0,0)"/>
<path d="" fill="#C10C30" transform="translate(0,0)"/>
<path d="" fill="#C10C30" transform="translate(0,0)"/>
<path d="" fill="#C10C30" transform="translate(0,0)"/>
<path d="" fill="#C10C30" transform="translate(0,0)"/>
<path d="" fill="#C10C30" transform="translate(0,0)"/>
<path d="" fill="#C10C30" transform="translate(0,0)"/>
<path d="" fill="#C10C30" transform="translate(0,0)"/>
<path d="" fill="#C10C30" transform="translate(0,0)"/>
<path d="" fill="#C10C30" transform="translate(0,0)"/>
<path d="" fill="#C10C30" transform="translate(0,0)"/>
<path d="" fill="#C10C30" transform="translate(0,0)"/>
<path d="" fill="#C10C30" transform="translate(0,0)"/>
<path d="" fill="#C10C30" transform="translate(0,0)"/>
<path d="" fill="#C10C30" transform="translate(0,0)"/>
<path d="" fill="#C10C30" transform="translate(0,0)"/>
<path d="" fill="#C10C30" transform="translate(0,0)"/>
<path d="" fill="#C10C30" transform="translate(0,0)"/>
<path d="" fill="#C10C30" transform="translate(0,0)"/>
<path d="" fill="#C10C30" transform="translate(0,0)"/>
<path d="" fill="#C10C30" transform="translate(0,0)"/>
<path d="" fill="#C10C30" transform="translate(0,0)"/>
<path d="" fill="#C10C30" transform="translate(0,0)"/>
<path d="" fill="#C10C30" transform="translate(0,0)"/>
<path d="" fill="#C10C30" transform="translate(0,0)"/>
<path d="" fill="#C10C30" transform="translate(0,0)"/>
<path d="" fill="#C10C30" transform="translate(0,0)"/>
<path d="" fill="#C10C30" transform="translate(0,0)"/>
<path d="" fill="#C10C30" transform="translate(0,0)"/>
<path d="" fill="#C10C30" transform="translate(0,0)"/>
<path d="" fill="#C10C30" transform="translate(0,0)"/>
<path d="" fill="#C10C30" transform="translate(0,0)"/>
<path d="" fill="#C10C30" transform="translate(0,0)"/>
<path d="" fill="#C10C30" transform="translate(0,0)"/>
<path d="" fill="#C10C30" transform="translate(0,0)"/>
<path d="" fill="#C10C30" transform="translate(0,0)"/>
<path d="" fill="#C10C30" transform="translate(0,0)"/>
<path d="" fill="#C10C30" transform="translate(0,0)"/>
<path d="" fill="#C10C30" transform="translate(0,0)"/>
<path d="" fill="#C10C30" transform="translate(0,0)"/>
<path d="" fill="#C10C30" transform="translate(0,0)"/>
<path d="" fill="#C10C30" transform="translate(0,0)"/>
<path d="" fill="#C10C30" transform="translate(0,0)"/>
<path d="" fill="#C10C30" transform="translate(0,0)"/>
<path d="" fill="#C10C30" transform="translate(0,0)"/>
<path d="" fill="#C10C30" transform="translate(0,0)"/>
<path d="" fill="#C10C30" transform="translate(0,0)"/>
<path d="" fill="#C10C30" transform="translate(0,0)"/>
<path d="" fill="#C10C30" transform="translate(0,0)"/>
<path d="" fill="#C10C30" transform="translate(0,0)"/>
<path d="" fill="#C10C30" transform="translate(0,0)"/>
<path d="" fill="#C10C30" transform="translate(0,0)"/>
<path d="" fill="#C10C30" transform="translate(0,0)"/>
<path d="" fill="#C10C30" transform="translate(0,0)"/>
<path d="" fill="#C10C30" transform="translate(0,0)"/>
<path d="" fill="#C10C30" transform="translate(0,0)"/>
<path d="" fill="#C10C30" transform="translate(0,0)"/>
<path d="" fill="#C10C30" transform="translate(0,0)"/>
<path d="" fill="#C10C30" transform="translate(0,0)"/>
<path d="" fill="#C10C30" transform="translate(0,0)"/>
<path d="" fill="#C10C30" transform="translate(0,0)"/>
<path d="" fill="#C10C30" transform="translate(0,0)"/>
<path d="" fill="#C10C30" transform="translate(0,0)"/>
<path d="" fill="#C10C30" transform="translate(0,0)"/>
<path d="" fill="#C10C30" transform="translate(0,0)"/>
<path d="" fill="#C10C30" transform="translate(0,0)"/>
<path d="" fill="#C10C30" transform="translate(0,0)"/>
<path d="" fill="#C10C30" transform="translate(0,0)"/>
<path d="" fill="#C10C30" transform="translate(0,0)"/>
<path d="" fill="#C10C30" transform="translate(0,0)"/>
<path d="" fill="#C10C30" transform="translate(0,0)"/>
</svg>
