<?xml version="1.0" encoding="UTF-8"?>
<svg version="1.1" xmlns="http://www.w3.org/2000/svg" width="512" height="512">
<path d="M0 0 C1.47028154 0.50264711 2.94057839 1.00524946 4.41088867 1.5078125 C5.17227142 1.77126465 5.93365417 2.0347168 6.71810913 2.30615234 C27.54554345 9.49811187 48.55668572 16.29730131 70.203125 20.57421875 C73.7675068 21.69699902 75.02877016 22.64781259 77.328125 25.55859375 C77.81396484 28.41186523 77.81396484 28.41186523 77.7890625 31.6796875 C77.78519531 32.86240234 77.78132812 34.04511719 77.77734375 35.26367188 C77.75285156 36.49537109 77.72835937 37.72707031 77.703125 38.99609375 C77.70119141 40.8378418 77.70119141 40.8378418 77.69921875 42.71679688 C77.6017865 52.66029906 77.6017865 52.66029906 75.328125 57.55859375 C76.9059375 58.14640625 76.9059375 58.14640625 78.515625 58.74609375 C82.25611617 60.34699362 84.67469464 62.43691097 87.328125 65.55859375 C88.79106755 69.94742141 89.21300695 74.20196515 87.57421875 78.56640625 C85.693418 82.0919857 84.06643206 84.14061521 80.328125 85.55859375 C79.998125 86.21859375 79.668125 86.87859375 79.328125 87.55859375 C77.30323872 87.84786322 75.27568484 88.13131529 73.23828125 88.3125 C71.24560467 88.46266253 71.24560467 88.46266253 69.328125 89.55859375 C68.338125 88.89859375 67.348125 88.23859375 66.328125 87.55859375 C65.668125 87.45546875 65.008125 87.35234375 64.328125 87.24609375 C61.37122781 86.22966034 60.7655334 84.23740032 59.328125 81.55859375 C58.668125 80.89859375 58.008125 80.23859375 57.328125 79.55859375 C56.338125 80.21859375 55.348125 80.87859375 54.328125 81.55859375 C54.328125 80.56859375 54.328125 79.57859375 54.328125 78.55859375 C53.565 78.64109375 52.801875 78.72359375 52.015625 78.80859375 C49.328125 78.55859375 49.328125 78.55859375 47.453125 76.87109375 C46.328125 74.55859375 46.328125 74.55859375 46.390625 71.93359375 C47.328125 69.55859375 47.328125 69.55859375 49.015625 68.37109375 C51.328125 67.55859375 51.328125 67.55859375 54.015625 66.87109375 C58.04875747 65.27306013 60.80856257 62.92385137 64.08203125 60.1171875 C66.54049105 58.41123018 68.38560133 57.93610557 71.328125 57.55859375 C71.658125 56.56859375 71.988125 55.57859375 72.328125 54.55859375 C71.338125 54.22859375 70.348125 53.89859375 69.328125 53.55859375 C68.3980361 50.76832705 68.14113731 48.79329833 68.01171875 45.890625 C67.94887695 44.55161133 67.94887695 44.55161133 67.88476562 43.18554688 C67.84544922 42.25677734 67.80613281 41.32800781 67.765625 40.37109375 C67.72244141 39.43072266 67.67925781 38.49035156 67.63476562 37.52148438 C67.52873835 35.20066521 67.42667471 32.8797405 67.328125 30.55859375 C66.17183594 30.30207031 65.01554688 30.04554688 63.82421875 29.78125 C41.97894128 24.81631269 20.13759828 18.90776047 -0.671875 10.55859375 C-2.83543485 9.75847542 -5.00184817 8.96600292 -7.171875 8.18359375 C-8.0484375 7.86648437 -8.925 7.549375 -9.828125 7.22265625 C-10.4365625 7.00351563 -11.045 6.784375 -11.671875 6.55859375 C-12.001875 7.21859375 -12.331875 7.87859375 -12.671875 8.55859375 C-12.671875 7.89859375 -12.671875 7.23859375 -12.671875 6.55859375 C-13.3517749 6.78522705 -14.0316748 7.01186035 -14.73217773 7.24536133 C-30.54296875 12.515625 -30.54296875 12.515625 -33.70605469 13.56982422 C-35.54537994 14.18303358 -37.38459424 14.79657597 -39.22363281 15.41064453 C-41.37258493 16.12802469 -43.52207529 16.84375822 -45.671875 17.55859375 C-46.80367187 17.935 -47.93546875 18.31140625 -49.1015625 18.69921875 C-57.96552001 21.55337287 -66.91323597 24.01353662 -75.921875 26.37109375 C-77.11280762 26.68530273 -78.30374023 26.99951172 -79.53076172 27.32324219 C-80.65498535 27.61360352 -81.77920898 27.90396484 -82.9375 28.203125 C-83.94586914 28.46456299 -84.95423828 28.72600098 -85.99316406 28.99536133 C-88.671875 29.55859375 -88.671875 29.55859375 -92.671875 29.55859375 C-92.671875 38.79859375 -92.671875 48.03859375 -92.671875 57.55859375 C-95.62852019 59.03691635 -98.41417237 58.61892158 -101.671875 58.55859375 C-101.671875 56.90859375 -101.671875 55.25859375 -101.671875 53.55859375 C-102.331875 53.22859375 -102.991875 52.89859375 -103.671875 52.55859375 C-103.5906667 48.5161251 -103.47784919 44.47512839 -103.359375 40.43359375 C-103.32553711 38.72042969 -103.32553711 38.72042969 -103.29101562 36.97265625 C-103.2378418 35.30976563 -103.2378418 35.30976563 -103.18359375 33.61328125 C-103.15740967 32.59733887 -103.13122559 31.58139648 -103.10424805 30.53466797 C-102.5811174 26.93389856 -101.69722688 24.58864774 -99.671875 21.55859375 C-97.07617188 20.36523438 -97.07617188 20.36523438 -93.890625 19.71484375 C-92.06930054 19.31011841 -92.06930054 19.31011841 -90.21118164 18.8972168 C-89.55538116 18.76165375 -88.89958069 18.6260907 -88.22390747 18.48641968 C-84.63780893 17.73875805 -81.07452847 16.89781591 -77.51171875 16.046875 C-76.35536171 15.77095268 -76.35536171 15.77095268 -75.17564392 15.48945618 C-64.86282978 12.95874942 -54.80852084 9.5835303 -44.734375 6.24609375 C-43.80077148 5.93768555 -42.86716797 5.62927734 -41.90527344 5.31152344 C-37.6448579 3.90238987 -33.38705241 2.48577088 -29.13305664 1.05737305 C-28.02500168 0.69196915 -28.02500168 0.69196915 -26.89456177 0.31918335 C-25.37928155 -0.19933613 -23.8754443 -0.75225692 -22.3835144 -1.33456421 C-14.14846569 -4.44046278 -8.16390844 -2.88086808 0 0 Z M66.390625 69.37109375 C64.05649936 72.34561456 64.05649936 72.34561456 64.328125 75.55859375 C67.25051862 77.94964307 69.17739734 78.54300123 72.953125 78.93359375 C76.23049763 78.83105706 76.23049763 78.83105706 78.203125 77.30859375 C79.49863636 75.29335386 80.11042242 73.95332213 80.328125 71.55859375 C79.33787407 68.89253356 78.9003297 67.8446961 76.328125 66.55859375 C71.85061892 65.96722502 69.37133846 65.93049879 66.390625 69.37109375 Z " fill="#FFFFFF" transform="translate(266.671875,169.44140625)"/>
<path d="M0 0 C8.58624055 1.68327378 15.86951444 3.33966201 23.02734375 8.59765625 C24.95031511 9.96467945 26.86620416 11.00231917 29 12 C29.33 11.01 29.66 10.02 30 9 C36.05138043 3.57755517 45.95922647 0 54 0 C54 0.66 54 1.32 54 2 C54.99 2.0825 55.98 2.165 57 2.25 C63.55709383 3.19241632 69.16386933 6.57319701 74 11 C80.95604138 21.99547486 83.17543019 30.56795857 80.53051758 43.34033203 C78.02905927 53.91148155 71.97147185 61.90285931 65 70 C64.28714844 70.84691406 63.57429688 71.69382812 62.83984375 72.56640625 C54.85677747 81.78846694 40.39064779 96.23787757 28 99 C25.03515625 97.84375 25.03515625 97.84375 22 96 C21.09121094 95.4534375 20.18242187 94.906875 19.24609375 94.34375 C5.09424283 85.05352242 -10.95101558 73.18182427 -19 58 C-19 57.34 -19 56.68 -19 56 C-19.66 56 -20.32 56 -21 56 C-21.81542431 53.91780951 -22.62723189 51.83420239 -23.4375 49.75 C-23.88996094 48.58984375 -24.34242188 47.4296875 -24.80859375 46.234375 C-27.98896723 37.60044306 -27.99106815 28.60633568 -25.29296875 19.77734375 C-21.8768691 12.43943785 -16.09973294 6.45742467 -8.625 3.3125 C-5.42236504 2.21192023 -3.48667519 2 0 2 C0 1.34 0 0.68 0 0 Z M-10 15 C-10 15.66 -10 16.32 -10 17 C-10.99 17.33 -11.98 17.66 -13 18 C-17.54490627 24.75243217 -18.01918313 31.00123242 -17 39 C-14.6264062 48.7568399 -9.78738504 55.7621248 -3 63 C-2.5040332 63.53157715 -2.00806641 64.0631543 -1.49707031 64.61083984 C7.30049083 73.95926617 16.60906737 81.92483593 28 88 C46.57187141 78.06425841 63.57803666 61.96569477 71 42 C72.81045163 34.41443686 72.57388185 27.9460123 69 21 C65.55828135 15.88658943 61.86974115 12.78384323 56 11 C49.18125285 9.9222955 43.8598806 10.7565866 38.00390625 14.43359375 C35.38811311 16.47829755 33.31694112 18.73073691 31.2890625 21.3515625 C29.96885676 23.0398256 28.54086476 24.51320067 27 26 C23.55594784 24.85198261 23.11496789 24.08639917 21.125 21.1875 C17.23660504 15.83377393 13.58257574 12.51905594 7 11 C0.17318759 10.16251 -4.09544442 11.56462221 -10 15 Z " fill="#FFFFFF" transform="translate(228,211)"/>
<path d="M0 0 C0.8559375 -0.020625 1.711875 -0.04125 2.59375 -0.0625 C8.52161549 -0.09842646 13.8714837 0.61690789 19.25 3.25 C21.8125 5.9375 21.8125 5.9375 23.25 8.25 C22.26 10.23 21.27 12.21 20.25 14.25 C16.75512285 13.60280053 14.25290786 12.10752012 11.25 10.25 C11.47860572 12.19014063 11.73369181 14.12717414 12 16.0625 C12.13921875 17.14144531 12.2784375 18.22039062 12.421875 19.33203125 C13.38334297 22.71984528 14.37081954 23.39491828 17.25 25.25 C17.25 25.91 17.25 26.57 17.25 27.25 C15.25 29.25 15.25 29.25 12.25 31.25 C11.48930839 33.29944138 11.48930839 33.29944138 11.125 35.625 C10.97804687 36.39585937 10.83109375 37.16671875 10.6796875 37.9609375 C10.53789062 38.71632813 10.39609375 39.47171875 10.25 40.25 C9.92632921 41.58571184 9.59617896 42.91994398 9.25 44.25 C9.91 44.25 10.57 44.25 11.25 44.25 C11.559375 43.63125 11.86875 43.0125 12.1875 42.375 C12.875 41 13.5625 39.625 14.25 38.25 C14.91 38.25 15.57 38.25 16.25 38.25 C16.25 37.59 16.25 36.93 16.25 36.25 C16.91 36.25 17.57 36.25 18.25 36.25 C18.58 35.26 18.91 34.27 19.25 33.25 C23.125 34.125 23.125 34.125 24.25 35.25 C24.12559296 41.82698535 21.55762499 44.98111817 17.1875 49.6875 C16.59839844 50.34057129 16.00929687 50.99364258 15.40234375 51.66650391 C13.69986012 53.54212938 11.97742088 55.39736589 10.25 57.25 C9.43660156 58.14589844 8.62320313 59.04179687 7.78515625 59.96484375 C2.29511677 65.79208335 2.29511677 65.79208335 -2.75 66.25 C-12.3803084 61.65371644 -18.85052872 50.99811322 -24.90234375 42.5234375 C-25.51207031 41.77320313 -26.12179688 41.02296875 -26.75 40.25 C-27.41 40.25 -28.07 40.25 -28.75 40.25 C-28.82992187 39.69183594 -28.90984375 39.13367188 -28.9921875 38.55859375 C-30.29492865 34.58993384 -33.38616223 31.85969383 -36.1328125 28.78515625 C-37.75 26.25 -37.75 26.25 -37.85546875 23.84375 C-36.25813801 20.09594926 -33.75811343 17.58137611 -30.9375 14.6875 C-30.40318359 14.12353516 -29.86886719 13.55957031 -29.31835938 12.97851562 C-27.80782404 11.38994525 -26.28157913 9.81825111 -24.75 8.25 C-24.02296875 7.49203125 -23.2959375 6.7340625 -22.546875 5.953125 C-16.18272837 -0.0789792 -8.21006205 0.04858025 0 0 Z M-9.75 9.25 C-10.97322357 13.40896013 -10.75 16.74478944 -10.75 21.25 C-5.8 21.25 -0.85 21.25 4.25 21.25 C4.105625 19.290625 3.96125 17.33125 3.8125 15.3125 C3.73128906 14.21035156 3.65007812 13.10820312 3.56640625 11.97265625 C3.54581916 9.33890097 3.54581916 9.33890097 2.25 8.25 C0.60659133 8.15145345 -1.0411461 8.12027589 -2.6875 8.125 C-3.58339844 8.12242187 -4.47929687 8.11984375 -5.40234375 8.1171875 C-7.77155555 8.09578587 -7.77155555 8.09578587 -9.75 9.25 Z M-19.75 14.25 C-20.08 14.91 -20.41 15.57 -20.75 16.25 C-20.09 16.25 -19.43 16.25 -18.75 16.25 C-19.08 15.59 -19.41 14.93 -19.75 14.25 Z M-21.75 16.25 C-23.235 18.725 -23.235 18.725 -24.75 21.25 C-21.75 22.58333333 -21.75 22.58333333 -18.75 21.25 C-19.09786708 19.27463255 -19.09786708 19.27463255 -19.75 17.25 C-20.41 16.92 -21.07 16.59 -21.75 16.25 Z M-24.75 29.25 C-24.42 29.91 -24.09 30.57 -23.75 31.25 C-22.1 30.92 -20.45 30.59 -18.75 30.25 C-18.75 30.91 -18.75 31.57 -18.75 32.25 C-20.07 32.58 -21.39 32.91 -22.75 33.25 C-22.151875 33.848125 -21.55375 34.44625 -20.9375 35.0625 C-19.20833333 36.79166667 -17.47916667 38.52083333 -15.75 40.25 C-16.41 36.62 -17.07 32.99 -17.75 29.25 C-20.06 29.25 -22.37 29.25 -24.75 29.25 Z M-9.75 29.25 C-9.23334032 35.10983633 -7.99718923 39.85893883 -5.6875 45.25 C-5.40583984 45.92933594 -5.12417969 46.60867188 -4.83398438 47.30859375 C-4.14808689 48.95939787 -3.45030171 50.60525469 -2.75 52.25 C-0.58390224 51.45199765 -0.58390224 51.45199765 -0.06396484 49.39233398 C0.13503418 48.60157471 0.3340332 47.81081543 0.5390625 46.99609375 C0.75820312 46.14208984 0.97734375 45.28808594 1.203125 44.40820312 C1.42484375 43.51037109 1.6465625 42.61253906 1.875 41.6875 C2.10445312 40.78580078 2.33390625 39.88410156 2.5703125 38.95507812 C3.13749807 36.72178495 3.69702882 34.48684742 4.25 32.25 C3.59 31.92 2.93 31.59 2.25 31.25 C2.25 30.59 2.25 29.93 2.25 29.25 C-1.71 29.25 -5.67 29.25 -9.75 29.25 Z M8.25 44.25 C7.92 44.91 7.59 45.57 7.25 46.25 C7.91 46.25 8.57 46.25 9.25 46.25 C8.92 45.59 8.59 44.93 8.25 44.25 Z " fill="#FFFFFF" transform="translate(174.75,228.75)"/>
<path d="M0 0 C1.18136023 6.02493716 0.77519676 9.14529169 -2.4453125 14.32421875 C-18.34215281 36.69070337 -40.10646451 57.85357073 -66.31640625 67.88671875 C-70.43040018 68.06038079 -73.31471518 66.23239191 -76.875 64.3125 C-77.55691406 63.95994141 -78.23882812 63.60738281 -78.94140625 63.24414062 C-89.6310099 57.67536615 -98.66478919 51.37541862 -107.55859375 43.21484375 C-109.68294945 41.28762826 -111.85512759 39.45496878 -114.0625 37.625 C-122.40986607 30.31895525 -129.53964728 20.64116775 -135 11 C-135 8 -135 8 -133.3125 6.25 C-131 5 -131 5 -128.55078125 5.15625 C-125.30728968 6.22913542 -124.65046753 7.36835114 -122.875 10.25 C-109.91298245 29.88942054 -91.41626349 46.07604962 -70 56 C-61.55520259 57.40527733 -51.63098061 48.58199306 -45.01293945 43.85620117 C-29.74028501 32.61797261 -17.57332775 19.45108881 -8.2265625 2.8984375 C-6.03708453 -0.49037235 -3.76482354 -0.0990743 0 0 Z " fill="#FFFFFF" transform="translate(322,280)"/>
<path d="M0 0 C3.76044578 3.13370482 5.66963298 5.3004295 6.2734375 10.234375 C6.49526708 15.72892302 6.07919638 19.31227735 2.484375 23.59375 C-0.90362942 26.8034384 -3.91115924 27.88333849 -8.5 28.375 C-12.4514388 27.95163156 -14.67371607 27.1693156 -18 25 C-18.66 23.989375 -19.32 22.97875 -20 21.9375 C-21.9091513 19.42709001 -22.97118897 19.00705798 -26.109375 18.23828125 C-28.55513923 17.91025493 -31.00629985 17.62040275 -33.4609375 17.3671875 C-37.76091203 16.92105328 -41.80317984 16.01302556 -46 15 C-46 14.34 -46 13.68 -46 13 C-51.28 12.01 -56.56 11.02 -62 10 C-59 5 -59 5 -56.8125 3.6875 C-50.68953814 2.19077599 -45.79732862 2.7314801 -40 5 C-36.29301228 6.33451558 -33.99100292 7 -30 7 C-30 7.66 -30 8.32 -30 9 C-29.34 9 -28.68 9 -28 9 C-28 8.34 -28 7.68 -28 7 C-27.25621094 6.90589844 -26.51242187 6.81179688 -25.74609375 6.71484375 C-22.5950672 5.89459075 -21.36100111 4.82339782 -19.0625 2.5625 C-12.54383316 -3.33592055 -7.83814326 -3.91185419 0 0 Z M-13.375 8.0625 C-15.47345819 11.85586673 -15.10993679 13.87737763 -14 18 C-10.95016004 19.52491998 -8.3576631 19.23562548 -5 19 C-2.93597315 18.01951062 -2.93597315 18.01951062 -2 16 C-1.45375842 12.33237794 -1.52101702 10.6741242 -3.6875 7.625 C-5.88986616 5.85785358 -5.88986616 5.85785358 -8.5 5.4375 C-11.18901068 5.83504853 -11.18901068 5.83504853 -13.375 8.0625 Z " fill="#FFFFFF" transform="translate(368,260)"/>
<path d="M0 0 C0.66 0 1.32 0 2 0 C2 0.66 2 1.32 2 2 C1.34 2 0.68 2 0 2 C0 1.34 0 0.68 0 0 Z " fill="#FFFFFF" transform="translate(161,223)"/>
<path d="M0 0 C0.33 0.66 0.66 1.32 1 2 C0.34 1.67 -0.32 1.34 -1 1 C-0.67 0.67 -0.34 0.34 0 0 Z " fill="#FFFFFF" transform="translate(168,241)"/>
<path d="M0 0 C0.33 0.66 0.66 1.32 1 2 C0.34 1.67 -0.32 1.34 -1 1 C-0.67 0.67 -0.34 0.34 0 0 Z " fill="#FFFFFF" transform="translate(250,237)"/>
<path d="M0 0 C3 1 3 1 3 1 Z " fill="#FFFFFF" transform="translate(174,227)"/>
<path d="" fill="#FFFFFF" transform="translate(0,0)"/>
<path d="M0 0 C2 1 2 1 2 1 Z " fill="#FFFFFF" transform="translate(243,344)"/>
<path d="M0 0 C2 1 2 1 2 1 Z " fill="#FFFFFF" transform="translate(274,338)"/>
<path d="M0 0 C2 1 2 1 2 1 Z " fill="#FFFFFF" transform="translate(313,272)"/>
<path d="" fill="#FFFFFF" transform="translate(0,0)"/>
<path d="" fill="#FFFFFF" transform="translate(0,0)"/>
<path d="" fill="#FFFFFF" transform="translate(0,0)"/>
<path d="" fill="#FFFFFF" transform="translate(0,0)"/>
<path d="" fill="#FFFFFF" transform="translate(0,0)"/>
<path d="" fill="#FFFFFF" transform="translate(0,0)"/>
<path d="M0 0 C2 1 2 1 2 1 Z " fill="#FFFFFF" transform="translate(250,240)"/>
<path d="" fill="#FFFFFF" transform="translate(0,0)"/>
<path d="M0 0 C2 1 2 1 2 1 Z " fill="#FFFFFF" transform="translate(283,211)"/>
<path d="M0 0 C2 1 2 1 2 1 Z " fill="#FFFFFF" transform="translate(217,211)"/>
<path d="M0 0 C2 1 2 1 2 1 Z " fill="#FFFFFF" transform="translate(322,198)"/>
<path d="" fill="#FFFFFF" transform="translate(0,0)"/>
<path d="" fill="#FFFFFF" transform="translate(0,0)"/>
<path d="" fill="#FFFFFF" transform="translate(0,0)"/>
<path d="" fill="#FFFFFF" transform="translate(0,0)"/>
<path d="" fill="#FFFFFF" transform="translate(0,0)"/>
<path d="" fill="#FFFFFF" transform="translate(0,0)"/>
<path d="" fill="#FFFFFF" transform="translate(0,0)"/>
<path d="" fill="#FFFFFF" transform="translate(0,0)"/>
<path d="" fill="#FFFFFF" transform="translate(0,0)"/>
<path d="" fill="#FFFFFF" transform="translate(0,0)"/>
<path d="" fill="#FFFFFF" transform="translate(0,0)"/>
<path d="" fill="#FFFFFF" transform="translate(0,0)"/>
<path d="" fill="#FFFFFF" transform="translate(0,0)"/>
<path d="" fill="#FFFFFF" transform="translate(0,0)"/>
<path d="" fill="#FFFFFF" transform="translate(0,0)"/>
<path d="" fill="#FFFFFF" transform="translate(0,0)"/>
<path d="" fill="#FFFFFF" transform="translate(0,0)"/>
<path d="" fill="#FFFFFF" transform="translate(0,0)"/>
<path d="" fill="#FFFFFF" transform="translate(0,0)"/>
<path d="" fill="#FFFFFF" transform="translate(0,0)"/>
<path d="" fill="#FFFFFF" transform="translate(0,0)"/>
<path d="" fill="#FFFFFF" transform="translate(0,0)"/>
<path d="" fill="#FFFFFF" transform="translate(0,0)"/>
<path d="" fill="#FFFFFF" transform="translate(0,0)"/>
<path d="" fill="#FFFFFF" transform="translate(0,0)"/>
<path d="" fill="#FFFFFF" transform="translate(0,0)"/>
<path d="" fill="#FFFFFF" transform="translate(0,0)"/>
<path d="" fill="#FFFFFF" transform="translate(0,0)"/>
<path d="" fill="#FFFFFF" transform="translate(0,0)"/>
<path d="" fill="#FFFFFF" transform="translate(0,0)"/>
<path d="" fill="#FFFFFF" transform="translate(0,0)"/>
<path d="" fill="#FFFFFF" transform="translate(0,0)"/>
<path d="" fill="#FFFFFF" transform="translate(0,0)"/>
<path d="" fill="#FFFFFF" transform="translate(0,0)"/>
<path d="" fill="#FFFFFF" transform="translate(0,0)"/>
<path d="" fill="#FFFFFF" transform="translate(0,0)"/>
<path d="" fill="#FFFFFF" transform="translate(0,0)"/>
<path d="" fill="#FFFFFF" transform="translate(0,0)"/>
<path d="" fill="#FFFFFF" transform="translate(0,0)"/>
<path d="" fill="#FFFFFF" transform="translate(0,0)"/>
<path d="" fill="#FFFFFF" transform="translate(0,0)"/>
<path d="" fill="#FFFFFF" transform="translate(0,0)"/>
<path d="" fill="#FFFFFF" transform="translate(0,0)"/>
<path d="" fill="#FFFFFF" transform="translate(0,0)"/>
<path d="" fill="#FFFFFF" transform="translate(0,0)"/>
<path d="" fill="#FFFFFF" transform="translate(0,0)"/>
<path d="" fill="#FFFFFF" transform="translate(0,0)"/>
<path d="" fill="#FFFFFF" transform="translate(0,0)"/>
<path d="" fill="#FFFFFF" transform="translate(0,0)"/>
<path d="" fill="#FFFFFF" transform="translate(0,0)"/>
<path d="" fill="#FFFFFF" transform="translate(0,0)"/>
<path d="" fill="#FFFFFF" transform="translate(0,0)"/>
<path d="" fill="#FFFFFF" transform="translate(0,0)"/>
<path d="" fill="#FFFFFF" transform="translate(0,0)"/>
<path d="" fill="#FFFFFF" transform="translate(0,0)"/>
<path d="" fill="#FFFFFF" transform="translate(0,0)"/>
<path d="" fill="#FFFFFF" transform="translate(0,0)"/>
<path d="" fill="#FFFFFF" transform="translate(0,0)"/>
<path d="" fill="#FFFFFF" transform="translate(0,0)"/>
<path d="" fill="#FFFFFF" transform="translate(0,0)"/>
<path d="" fill="#FFFFFF" transform="translate(0,0)"/>
<path d="" fill="#FFFFFF" transform="translate(0,0)"/>
<path d="" fill="#FFFFFF" transform="translate(0,0)"/>
<path d="" fill="#FFFFFF" transform="translate(0,0)"/>
<path d="" fill="#FFFFFF" transform="translate(0,0)"/>
<path d="" fill="#FFFFFF" transform="translate(0,0)"/>
<path d="" fill="#FFFFFF" transform="translate(0,0)"/>
<path d="" fill="#FFFFFF" transform="translate(0,0)"/>
<path d="" fill="#FFFFFF" transform="translate(0,0)"/>
<path d="" fill="#FFFFFF" transform="translate(0,0)"/>
<path d="" fill="#FFFFFF" transform="translate(0,0)"/>
<path d="" fill="#FFFFFF" transform="translate(0,0)"/>
<path d="" fill="#FFFFFF" transform="translate(0,0)"/>
<path d="" fill="#FFFFFF" transform="translate(0,0)"/>
<path d="" fill="#FFFFFF" transform="translate(0,0)"/>
<path d="" fill="#FFFFFF" transform="translate(0,0)"/>
<path d="" fill="#FFFFFF" transform="translate(0,0)"/>
<path d="" fill="#FFFFFF" transform="translate(0,0)"/>
<path d="" fill="#FFFFFF" transform="translate(0,0)"/>
<path d="" fill="#FFFFFF" transform="translate(0,0)"/>
<path d="" fill="#FFFFFF" transform="translate(0,0)"/>
<path d="" fill="#FFFFFF" transform="translate(0,0)"/>
<path d="" fill="#FFFFFF" transform="translate(0,0)"/>
<path d="" fill="#FFFFFF" transform="translate(0,0)"/>
<path d="" fill="#FFFFFF" transform="translate(0,0)"/>
<path d="" fill="#FFFFFF" transform="translate(0,0)"/>
<path d="" fill="#FFFFFF" transform="translate(0,0)"/>
<path d="" fill="#FFFFFF" transform="translate(0,0)"/>
<path d="" fill="#FFFFFF" transform="translate(0,0)"/>
<path d="" fill="#FFFFFF" transform="translate(0,0)"/>
<path d="" fill="#FFFFFF" transform="translate(0,0)"/>
<path d="" fill="#FFFFFF" transform="translate(0,0)"/>
<path d="" fill="#FFFFFF" transform="translate(0,0)"/>
<path d="" fill="#FFFFFF" transform="translate(0,0)"/>
<path d="" fill="#FFFFFF" transform="translate(0,0)"/>
<path d="" fill="#FFFFFF" transform="translate(0,0)"/>
<path d="" fill="#FFFFFF" transform="translate(0,0)"/>
<path d="" fill="#FFFFFF" transform="translate(0,0)"/>
<path d="" fill="#FFFFFF" transform="translate(0,0)"/>
<path d="" fill="#FFFFFF" transform="translate(0,0)"/>
<path d="" fill="#FFFFFF" transform="translate(0,0)"/>
<path d="" fill="#FFFFFF" transform="translate(0,0)"/>
<path d="" fill="#FFFFFF" transform="translate(0,0)"/>
<path d="" fill="#FFFFFF" transform="translate(0,0)"/>
<path d="" fill="#FFFFFF" transform="translate(0,0)"/>
<path d="" fill="#FFFFFF" transform="translate(0,0)"/>
<path d="" fill="#FFFFFF" transform="translate(0,0)"/>
<path d="" fill="#FFFFFF" transform="translate(0,0)"/>
</svg>
