<?xml version="1.0" encoding="UTF-8"?>
<svg version="1.1" xmlns="http://www.w3.org/2000/svg" width="512" height="512">
<path d="M0 0 C0.75770691 0.27255112 1.51541382 0.54510223 2.29608154 0.82591248 C3.90761677 1.40637706 5.51746203 1.99155198 7.1257019 2.58108521 C11.29518321 4.10820191 15.47788557 5.59818439 19.66015625 7.08984375 C20.47459702 7.38110641 21.28903778 7.67236908 22.12815857 7.97245789 C30.30599156 10.88453578 38.55980328 13.45654396 46.91796875 15.79833984 C48.96910228 16.37946109 51.01010879 16.98869108 53.05078125 17.60546875 C54.30890625 17.98058594 55.56703125 18.35570312 56.86328125 18.7421875 C57.92417969 19.05929688 58.98507812 19.37640625 60.078125 19.703125 C62.87531998 20.47330616 62.87531998 20.47330616 65.6171875 20.34375 C67.92578125 20.3671875 67.92578125 20.3671875 70.92578125 22.3671875 C72.12203125 22.6765625 73.31828125 22.9859375 74.55078125 23.3046875 C75.66453125 23.6553125 76.77828125 24.0059375 77.92578125 24.3671875 C79.79674936 29.98009183 79.12154884 36.11526856 79.11328125 41.9921875 C79.11287338 43.05948593 79.11287338 43.05948593 79.11245728 44.14834595 C79.09521157 53.97301995 78.84225517 63.75297349 78.11328125 73.5546875 C78.00826294 75.09213623 78.00826294 75.09213623 77.90112305 76.66064453 C77.47989729 81.60532257 77.08535977 85.32465827 73.92578125 89.3671875 C71.90532683 88.76535001 69.90467086 88.09412654 67.92578125 87.3671875 C66.33006171 84.17574842 67.03022184 80.78785911 67.23828125 77.3046875 C67.30776978 76.0367334 67.30776978 76.0367334 67.37866211 74.74316406 C67.55325694 71.61734462 67.73884269 68.49229352 67.92578125 65.3671875 C68.00848977 63.97477369 68.09117054 62.58235824 68.17382812 61.18994141 C68.7455969 51.58160092 69.33161529 41.97416782 69.92578125 32.3671875 C68.85271729 32.22676025 67.77965332 32.08633301 66.67407227 31.94165039 C63.91789237 31.5192384 61.56205934 31.07060584 58.953125 30.17578125 C58.28087891 29.95341797 57.60863281 29.73105469 56.91601562 29.50195312 C55.54283232 29.03551503 54.170438 28.56674795 52.79882812 28.09570312 C48.70185857 26.74578905 45.23709896 26.10487644 40.92578125 26.3671875 C40.59578125 25.7071875 40.26578125 25.0471875 39.92578125 24.3671875 C37.46263347 23.39473729 35.0318391 22.53542295 32.515625 21.72265625 C31.75592911 21.47099197 30.99623322 21.2193277 30.21351624 20.96003723 C27.76568928 20.15122796 25.31455104 19.35299375 22.86328125 18.5546875 C21.26866296 18.0286529 19.67425934 17.50196707 18.08007812 16.97460938 C14.13929126 15.67388272 10.19219767 14.39363209 6.24255371 13.12008667 C3.94751419 12.37425022 1.65866789 11.61143122 -0.62988281 10.84594727 C-2.05519625 10.37863481 -3.48064553 9.91173638 -4.90625 9.4453125 C-6.15510986 9.03055664 -7.40396973 8.61580078 -8.69067383 8.18847656 C-13.02068955 7.13745031 -16.10960372 7.05128587 -20.0390625 9.22265625 C-25.12370412 14.58056075 -26.37926781 22.39442683 -28.07421875 29.3671875 C-28.37489258 30.59308594 -28.67556641 31.81898438 -28.98535156 33.08203125 C-30.87724206 40.85141245 -32.67432891 48.63978771 -34.41333008 56.44482422 C-34.93725569 58.76155474 -35.4845336 61.0665405 -36.07421875 63.3671875 C-34.0115804 63.07650084 -31.94911784 62.78456687 -29.88671875 62.4921875 C-28.60925781 62.31171875 -27.33179688 62.13125 -26.015625 61.9453125 C-22.44293807 61.42127121 -18.88569994 60.83647518 -15.32421875 60.2421875 C-9.86243383 59.3843857 -4.59355069 59.14292571 0.92578125 59.3671875 C-0.85224151 73.14686388 -11.23496374 86.70854614 -18.109375 98.63671875 C-22.85560096 106.88276149 -27.5615633 115.07757978 -31.69921875 123.6484375 C-33.81902711 127.83987675 -36.23582372 131.84773616 -38.65625 135.87109375 C-40.18324659 138.37154929 -40.18324659 138.37154929 -41.07421875 141.3671875 C-44.07421875 143.3671875 -44.07421875 143.3671875 -46.63671875 143.1796875 C-49.07421875 142.3671875 -49.07421875 142.3671875 -51.07421875 139.3671875 C-50.62230534 134.67077409 -49.34227606 130.09892889 -48.2265625 125.51953125 C-47.86502566 124.01241984 -47.50370398 122.50525681 -47.14257812 120.99804688 C-46.57655553 118.64515416 -46.00880946 116.29271776 -45.43725586 113.94116211 C-44.88281401 111.65596583 -44.33544877 109.36916496 -43.7890625 107.08203125 C-43.61720932 106.38295151 -43.44535614 105.68387177 -43.26829529 104.96360779 C-42.40833217 101.34178539 -41.9975079 98.07990901 -42.07421875 94.3671875 C-41.07421875 92.0546875 -41.07421875 92.0546875 -40.07421875 90.3671875 C-41.06421875 90.6971875 -42.05421875 91.0271875 -43.07421875 91.3671875 C-44.55004893 91.54361502 -46.03016838 91.6854823 -47.51171875 91.8046875 C-52.56373986 92.26531295 -57.5155956 93.07314399 -62.5078125 93.96484375 C-65.07421875 94.3671875 -65.07421875 94.3671875 -68.07421875 94.3671875 C-68.73421875 93.7071875 -69.39421875 93.0471875 -70.07421875 92.3671875 C-69.68921924 87.78453619 -67.67857357 83.61053166 -65.93359375 79.40234375 C-65.61469177 78.62403198 -65.29578979 77.84572021 -64.96722412 77.04382324 C-63.92443935 74.50373714 -62.87465272 71.96661889 -61.82421875 69.4296875 C-61.10345179 67.68028346 -60.38274916 65.93085292 -59.66210938 64.18139648 C-53.32234115 48.82733658 -46.76446421 33.57150054 -40.07421875 18.3671875 C-43.53559229 19.31476413 -46.99270257 20.27705636 -50.44921875 21.2421875 C-51.4340625 21.51160156 -52.41890625 21.78101563 -53.43359375 22.05859375 C-54.37460938 22.32285156 -55.315625 22.58710938 -56.28515625 22.859375 C-57.15446777 23.10026855 -58.0237793 23.34116211 -58.91943359 23.58935547 C-61.24763628 24.25726303 -61.24763628 24.25726303 -63.07421875 26.3671875 C-64.97016152 26.61858323 -66.86755717 26.86254339 -68.77001953 27.05859375 C-72.78498823 27.59630518 -76.62460195 28.75294436 -80.51171875 29.8671875 C-81.32576172 30.09277344 -82.13980469 30.31835938 -82.97851562 30.55078125 C-86.83290433 31.37064679 -86.83290433 31.37064679 -90.07421875 33.3671875 C-92.13212318 64.13853018 -85.60146031 98.14063545 -71.07421875 125.3671875 C-70.41421875 126.0271875 -69.75421875 126.6871875 -69.07421875 127.3671875 C-68.61789063 128.28371094 -68.1615625 129.20023438 -67.69140625 130.14453125 C-57.47931448 150.49471412 -35.55873787 168.06960236 -15.07421875 177.3671875 C-8.36177921 179.36900379 -4.27231059 177.06531704 1.61328125 173.9921875 C3.28234994 173.1480608 4.95287314 172.30680248 6.625 171.46875 C7.35549561 171.09057129 8.08599121 170.71239258 8.83862305 170.32275391 C10.86057658 169.39704024 12.75568697 168.82930037 14.92578125 168.3671875 C15.58578125 169.3571875 16.24578125 170.3471875 16.92578125 171.3671875 C18.41078125 172.3571875 18.41078125 172.3571875 19.92578125 173.3671875 C19.26578125 173.3671875 18.60578125 173.3671875 17.92578125 173.3671875 C17.70825195 173.95975342 17.49072266 174.55231934 17.26660156 175.1628418 C14.43568454 179.81694773 8.38430665 181.75672578 3.67578125 184.1796875 C2.54269531 184.79005859 1.40960938 185.40042969 0.2421875 186.02929688 C-0.85738281 186.60099609 -1.95695312 187.17269531 -3.08984375 187.76171875 C-4.59466309 188.54832886 -4.59466309 188.54832886 -6.12988281 189.35083008 C-10.4453477 190.84048848 -13.38873037 190.11447853 -17.49267578 188.29492188 C-18.26466309 187.85470703 -19.03665039 187.41449219 -19.83203125 186.9609375 C-20.69924805 186.46875732 -21.56646484 185.97657715 -22.45996094 185.46948242 C-23.36391602 184.9407251 -24.26787109 184.41196777 -25.19921875 183.8671875 C-26.13411133 183.32618408 -27.06900391 182.78518066 -28.03222656 182.2277832 C-35.13288461 178.05740886 -41.65648251 173.53341511 -48.07421875 168.3671875 C-48.89019531 167.76390625 -49.70617187 167.160625 -50.546875 166.5390625 C-56.40337901 162.19801445 -61.01218159 157.30774785 -65.4765625 151.5625 C-67.93720051 148.3936152 -67.93720051 148.3936152 -71.38671875 146.4921875 C-71.94359375 146.4509375 -72.50046875 146.4096875 -73.07421875 146.3671875 C-73.07421875 145.0471875 -73.07421875 143.7271875 -73.07421875 142.3671875 C-74.59452661 139.54751792 -74.59452661 139.54751792 -76.63671875 136.5546875 C-83.65759672 125.58114134 -93.07421875 109.67225561 -93.07421875 96.3671875 C-93.73421875 96.0371875 -94.39421875 95.7071875 -95.07421875 95.3671875 C-95.35066999 93.32318977 -95.60829575 91.27555943 -95.79248047 89.22119141 C-96.10802298 86.02475126 -96.56982524 82.86772914 -97.046875 79.69140625 C-98.98328458 66.32430158 -100.468099 53.20092013 -100.51171875 39.6796875 C-100.52146729 38.49914795 -100.53121582 37.3186084 -100.54125977 36.10229492 C-100.46049744 28.1115404 -100.46049744 28.1115404 -98.9206543 25.14428711 C-96.46071461 22.7767212 -94.4078711 22.31330633 -91.09765625 21.5078125 C-89.27186035 21.04665039 -89.27186035 21.04665039 -87.40917969 20.57617188 C-86.76299683 20.41979248 -86.11681396 20.26341309 -85.4510498 20.10229492 C-82.0593352 19.28037445 -78.68020667 18.40992059 -75.30078125 17.5390625 C-74.27114258 17.2750061 -74.27114258 17.2750061 -73.22070312 17.00561523 C-65.24866977 14.93570022 -57.43539257 12.39417789 -49.61865234 9.80566406 C-48.65008301 9.4856543 -47.68151367 9.16564453 -46.68359375 8.8359375 C-45.41467285 8.40958008 -45.41467285 8.40958008 -44.12011719 7.97460938 C-42.07421875 7.3671875 -42.07421875 7.3671875 -40.07421875 7.3671875 C-39.74421875 6.7071875 -39.41421875 6.0471875 -39.07421875 5.3671875 C-37.05520103 4.94945969 -35.03518579 4.53623875 -33.01171875 4.140625 C-28.69192102 3.00323145 -24.63716687 1.22230649 -20.56787109 -0.60058594 C-13.07770745 -3.80754142 -7.30269834 -2.73004121 0 0 Z " fill="#C10C30" transform="translate(260.07421875,162.6328125)"/>
<path d="M0 0 C2.05960081 0.91415437 3.99431174 1.497203 6.19140625 1.97265625 C6.19140625 2.63265625 6.19140625 3.29265625 6.19140625 3.97265625 C7.18140625 4.25109375 7.18140625 4.25109375 8.19140625 4.53515625 C17.75202374 9.11628546 23.22592097 17.65855914 27.00390625 27.28515625 C30.60957234 38.48169833 30.46865742 51.23202817 25.50390625 62.03515625 C19.17465363 73.53445772 9.77589225 81.82929787 -2.80859375 85.97265625 C-3.79859375 85.97265625 -4.78859375 85.97265625 -5.80859375 85.97265625 C-6.13859375 86.63265625 -6.46859375 87.29265625 -6.80859375 87.97265625 C-7.13859375 87.64265625 -7.46859375 87.31265625 -7.80859375 86.97265625 C-9.63390625 87.28203125 -9.63390625 87.28203125 -11.49609375 87.59765625 C-22.83287893 88.96962388 -34.45662121 84.74608799 -43.43359375 78 C-53.82474946 69.23246237 -59.32306033 58.45817226 -60.80859375 44.97265625 C-61.30521368 32.12756643 -56.48600721 20.57834231 -48.62109375 10.53515625 C-36.53551598 -1.98013096 -16.00759408 -7.35769151 0 0 Z M-38.80859375 13.97265625 C-38.80859375 14.63265625 -38.80859375 15.29265625 -38.80859375 15.97265625 C-39.41574219 16.23304688 -40.02289063 16.4934375 -40.6484375 16.76171875 C-45.18913051 19.30713436 -47.16047813 24.07717526 -48.79296875 28.8515625 C-51.8005742 39.95984111 -51.83920229 49.97422123 -46.5546875 60.4609375 C-41.07433739 69.34597378 -32.5084836 75.13057734 -22.359375 77.55859375 C-11.43718151 79.3315685 -2.0077546 77.27596725 7.00390625 70.78515625 C12.98096477 65.79356257 17.29094981 59.57448202 19.19140625 51.97265625 C19.39765625 51.20953125 19.60390625 50.44640625 19.81640625 49.66015625 C21.27639412 39.19690987 19.56848894 29.97197884 13.56640625 21.16015625 C6.81370397 12.55353025 -0.9288896 8.42655065 -11.80859375 6.97265625 C-12.79859375 7.30265625 -13.78859375 7.63265625 -14.80859375 7.97265625 C-14.80859375 7.64265625 -14.80859375 7.31265625 -14.80859375 6.97265625 C-23.82716324 6.51016551 -31.33919925 8.99305991 -38.80859375 13.97265625 Z " fill="#C10C30" transform="translate(322.80859375,252.02734375)"/>
<path d="M0 0 C1.84765625 0.83203125 1.84765625 0.83203125 3.34765625 3.01953125 C3.84765625 5.83203125 3.84765625 5.83203125 2.53515625 8.51953125 C-1.04572568 13.21048658 -5.15671144 17.4973756 -9.15234375 21.83203125 C-10.11649743 22.88876485 -11.08002073 23.94607388 -12.04296875 25.00390625 C-13.01672803 26.07179613 -13.99068316 27.13950745 -14.96484375 28.20703125 C-15.42060791 28.7067041 -15.87637207 29.20637695 -16.34594727 29.72119141 C-17.60770872 31.09795414 -18.87976468 32.46526129 -20.15234375 33.83203125 C-20.86132812 34.60289062 -21.5703125 35.37375 -22.30078125 36.16796875 C-24.15234375 37.83203125 -24.15234375 37.83203125 -26.96484375 38.08203125 C-31.61663474 36.25779949 -34.3401706 32.90053028 -37.15234375 28.83203125 C-37.15234375 28.17203125 -37.15234375 27.51203125 -37.15234375 26.83203125 C-37.75046875 26.60515625 -38.34859375 26.37828125 -38.96484375 26.14453125 C-41.8465561 24.41550384 -42.82306803 22.91035397 -44.15234375 19.83203125 C-43.83984375 16.51953125 -43.83984375 16.51953125 -43.15234375 13.83203125 C-41.17234375 13.17203125 -39.19234375 12.51203125 -37.15234375 11.83203125 C-32.15234375 17.58203125 -32.15234375 17.58203125 -32.15234375 19.83203125 C-31.49234375 19.83203125 -30.83234375 19.83203125 -30.15234375 19.83203125 C-28.52734375 22.33203125 -28.52734375 22.33203125 -27.15234375 24.83203125 C-22.81761254 21.5293789 -19.76564409 18.14870614 -16.578125 13.7421875 C-14.65384799 11.1641835 -12.5088859 9.02024896 -10.15234375 6.83203125 C-9.18748047 5.89423828 -9.18748047 5.89423828 -8.203125 4.9375 C-7.50574219 4.28394531 -6.80835938 3.63039063 -6.08984375 2.95703125 C-5.43886719 2.34085937 -4.78789062 1.7246875 -4.1171875 1.08984375 C-2.15234375 -0.16796875 -2.15234375 -0.16796875 0 0 Z " fill="#C10C30" transform="translate(328.15234375,274.16796875)"/>
<path d="M0 0 C0.33 0.66 0.66 1.32 1 2 C0.34 1.67 -0.32 1.34 -1 1 C-0.67 0.67 -0.34 0.34 0 0 Z " fill="#C10C30" transform="translate(293,340)"/>
<path d="M0 0 C0.66 0 1.32 0 2 0 C1.67 0.66 1.34 1.32 1 2 C0.67 1.34 0.34 0.68 0 0 Z " fill="#C10C30" transform="translate(290,337)"/>
<path d="" fill="#C10C30" transform="translate(0,0)"/>
<path d="" fill="#C10C30" transform="translate(0,0)"/>
<path d="" fill="#C10C30" transform="translate(0,0)"/>
<path d="M0 0 C2 1 2 1 2 1 Z " fill="#C10C30" transform="translate(287,301)"/>
<path d="M0 0 C2 1 2 1 2 1 Z " fill="#C10C30" transform="translate(286,286)"/>
<path d="" fill="#C10C30" transform="translate(0,0)"/>
<path d="" fill="#C10C30" transform="translate(0,0)"/>
<path d="" fill="#C10C30" transform="translate(0,0)"/>
<path d="M0 0 C2 1 2 1 2 1 Z " fill="#C10C30" transform="translate(294,247)"/>
<path d="" fill="#C10C30" transform="translate(0,0)"/>
<path d="M0 0 C2 1 2 1 2 1 Z " fill="#C10C30" transform="translate(298,187)"/>
<path d="M0 0 C2 1 2 1 2 1 Z " fill="#C10C30" transform="translate(291,185)"/>
<path d="M0 0 C2 1 2 1 2 1 Z " fill="#C10C30" transform="translate(296,174)"/>
<path d="" fill="#C10C30" transform="translate(0,0)"/>
<path d="" fill="#C10C30" transform="translate(0,0)"/>
<path d="" fill="#C10C30" transform="translate(0,0)"/>
<path d="" fill="#C10C30" transform="translate(0,0)"/>
<path d="" fill="#C10C30" transform="translate(0,0)"/>
<path d="" fill="#C10C30" transform="translate(0,0)"/>
<path d="" fill="#C10C30" transform="translate(0,0)"/>
<path d="" fill="#C10C30" transform="translate(0,0)"/>
<path d="" fill="#C10C30" transform="translate(0,0)"/>
<path d="" fill="#C10C30" transform="translate(0,0)"/>
<path d="" fill="#C10C30" transform="translate(0,0)"/>
<path d="" fill="#C10C30" transform="translate(0,0)"/>
<path d="" fill="#C10C30" transform="translate(0,0)"/>
<path d="" fill="#C10C30" transform="translate(0,0)"/>
<path d="" fill="#C10C30" transform="translate(0,0)"/>
<path d="" fill="#C10C30" transform="translate(0,0)"/>
<path d="" fill="#C10C30" transform="translate(0,0)"/>
<path d="" fill="#C10C30" transform="translate(0,0)"/>
<path d="" fill="#C10C30" transform="translate(0,0)"/>
<path d="" fill="#C10C30" transform="translate(0,0)"/>
<path d="" fill="#C10C30" transform="translate(0,0)"/>
<path d="" fill="#C10C30" transform="translate(0,0)"/>
<path d="" fill="#C10C30" transform="translate(0,0)"/>
<path d="" fill="#C10C30" transform="translate(0,0)"/>
<path d="" fill="#C10C30" transform="translate(0,0)"/>
<path d="" fill="#C10C30" transform="translate(0,0)"/>
<path d="" fill="#C10C30" transform="translate(0,0)"/>
<path d="" fill="#C10C30" transform="translate(0,0)"/>
<path d="" fill="#C10C30" transform="translate(0,0)"/>
<path d="" fill="#C10C30" transform="translate(0,0)"/>
<path d="" fill="#C10C30" transform="translate(0,0)"/>
<path d="" fill="#C10C30" transform="translate(0,0)"/>
<path d="" fill="#C10C30" transform="translate(0,0)"/>
<path d="" fill="#C10C30" transform="translate(0,0)"/>
<path d="" fill="#C10C30" transform="translate(0,0)"/>
<path d="" fill="#C10C30" transform="translate(0,0)"/>
<path d="" fill="#C10C30" transform="translate(0,0)"/>
<path d="" fill="#C10C30" transform="translate(0,0)"/>
<path d="" fill="#C10C30" transform="translate(0,0)"/>
<path d="" fill="#C10C30" transform="translate(0,0)"/>
<path d="" fill="#C10C30" transform="translate(0,0)"/>
<path d="" fill="#C10C30" transform="translate(0,0)"/>
<path d="" fill="#C10C30" transform="translate(0,0)"/>
<path d="" fill="#C10C30" transform="translate(0,0)"/>
<path d="" fill="#C10C30" transform="translate(0,0)"/>
<path d="" fill="#C10C30" transform="translate(0,0)"/>
<path d="" fill="#C10C30" transform="translate(0,0)"/>
<path d="" fill="#C10C30" transform="translate(0,0)"/>
<path d="" fill="#C10C30" transform="translate(0,0)"/>
<path d="" fill="#C10C30" transform="translate(0,0)"/>
<path d="" fill="#C10C30" transform="translate(0,0)"/>
<path d="" fill="#C10C30" transform="translate(0,0)"/>
<path d="" fill="#C10C30" transform="translate(0,0)"/>
<path d="" fill="#C10C30" transform="translate(0,0)"/>
<path d="" fill="#C10C30" transform="translate(0,0)"/>
<path d="" fill="#C10C30" transform="translate(0,0)"/>
<path d="" fill="#C10C30" transform="translate(0,0)"/>
<path d="" fill="#C10C30" transform="translate(0,0)"/>
<path d="" fill="#C10C30" transform="translate(0,0)"/>
<path d="" fill="#C10C30" transform="translate(0,0)"/>
<path d="" fill="#C10C30" transform="translate(0,0)"/>
<path d="" fill="#C10C30" transform="translate(0,0)"/>
<path d="" fill="#C10C30" transform="translate(0,0)"/>
<path d="" fill="#C10C30" transform="translate(0,0)"/>
<path d="" fill="#C10C30" transform="translate(0,0)"/>
<path d="" fill="#C10C30" transform="translate(0,0)"/>
<path d="" fill="#C10C30" transform="translate(0,0)"/>
<path d="" fill="#C10C30" transform="translate(0,0)"/>
<path d="" fill="#C10C30" transform="translate(0,0)"/>
<path d="" fill="#C10C30" transform="translate(0,0)"/>
<path d="" fill="#C10C30" transform="translate(0,0)"/>
<path d="" fill="#C10C30" transform="translate(0,0)"/>
<path d="" fill="#C10C30" transform="translate(0,0)"/>
<path d="" fill="#C10C30" transform="translate(0,0)"/>
<path d="" fill="#C10C30" transform="translate(0,0)"/>
<path d="" fill="#C10C30" transform="translate(0,0)"/>
<path d="" fill="#C10C30" transform="translate(0,0)"/>
<path d="" fill="#C10C30" transform="translate(0,0)"/>
<path d="" fill="#C10C30" transform="translate(0,0)"/>
<path d="" fill="#C10C30" transform="translate(0,0)"/>
<path d="" fill="#C10C30" transform="translate(0,0)"/>
<path d="" fill="#C10C30" transform="translate(0,0)"/>
<path d="" fill="#C10C30" transform="translate(0,0)"/>
<path d="" fill="#C10C30" transform="translate(0,0)"/>
<path d="" fill="#C10C30" transform="translate(0,0)"/>
<path d="" fill="#C10C30" transform="translate(0,0)"/>
<path d="" fill="#C10C30" transform="translate(0,0)"/>
</svg>
