<?xml version="1.0" encoding="UTF-8"?>
<svg version="1.1" xmlns="http://www.w3.org/2000/svg" width="512" height="512">
<path d="M0 0 C-0.33 2.31 -0.66 4.62 -1 7 C-6.9129304 6.35729017 -12.34244531 4.80996216 -18 3 C-18.33 3.33 -18.66 3.66 -19 4 C-17.96875 4.804375 -16.9375 5.60875 -15.875 6.4375 C-12.21776852 9.54577585 -9.7813327 12.98788048 -7.26171875 17.046875 C-6.01823388 19.1219389 -6.01823388 19.1219389 -4 21 C-2.96157435 23.31648799 -1.9578025 25.64903024 -1 28 C-0.34 28 0.32 28 1 28 C1.2475 29.2375 1.495 30.475 1.75 31.75 C2.82334027 36.70930214 4.49731757 41.36571104 6.29296875 46.10546875 C7.11243122 49.46028473 6.89514338 51.68130351 6 55 C3.84139132 56.53191584 2.63707871 57 0 57 C-0.99 53.535 -0.99 53.535 -2 50 C-3.65 50 -5.3 50 -7 50 C-7 50.66 -7 51.32 -7 52 C-7.63421875 51.97679687 -8.2684375 51.95359375 -8.921875 51.9296875 C-19.03148453 51.73419781 -28.96437113 52.88933752 -39 54 C-39.03738281 55.03640625 -39.07476562 56.0728125 -39.11328125 57.140625 C-39.17895788 58.51045184 -39.24540464 59.88024191 -39.3125 61.25 C-39.33505859 61.93191406 -39.35761719 62.61382812 -39.38085938 63.31640625 C-39.60166604 67.45151296 -40.09593 69.97914434 -43 73 C-44.65 72.67 -46.3 72.34 -48 72 C-48.17084377 70.31291777 -48.33644426 68.62530436 -48.5 66.9375 C-48.5928125 65.99777344 -48.685625 65.05804688 -48.78125 64.08984375 C-49.01999637 60.71755131 -49.01397313 57.37975068 -49 54 C-50.32390747 53.92483154 -50.32390747 53.92483154 -51.67456055 53.84814453 C-54.9644175 53.65730903 -58.25363681 53.45888222 -61.54272461 53.25537109 C-62.96344237 53.16901215 -64.38434504 53.0856393 -65.80541992 53.00537109 C-67.85391847 52.88913405 -69.90150082 52.76199707 -71.94921875 52.6328125 C-73.17987061 52.55949707 -74.41052246 52.48618164 -75.6784668 52.41064453 C-78.80478171 52.02413504 -81.1602576 51.32442758 -84 50 C-85.53767346 58.98717886 -86.48143798 67.897872 -87 77 C-86.21399414 76.75878418 -86.21399414 76.75878418 -85.41210938 76.51269531 C-80.54105321 75.47734937 -75.48952169 75.77424879 -70.52783203 75.75976562 C-68.5064218 75.75003093 -66.48601699 75.7189656 -64.46484375 75.6875 C-62.54865234 75.67976563 -62.54865234 75.67976563 -60.59375 75.671875 C-59.42521484 75.6625293 -58.25667969 75.65318359 -57.05273438 75.64355469 C-53.70519405 76.03442232 -52.27322625 76.52405677 -50 79 C-50 80.32 -50 81.64 -50 83 C-54.22904751 85.0273819 -57.82406913 85.30256739 -62.48828125 85.4140625 C-63.19147995 85.43342865 -63.89467865 85.4527948 -64.6191864 85.4727478 C-66.85017019 85.53220183 -69.08120654 85.57879049 -71.3125 85.625 C-72.83140186 85.66321137 -74.35028278 85.70226492 -75.86914062 85.7421875 C-79.57923467 85.83787416 -83.28948651 85.92203072 -87 86 C-86.71382812 87.75376953 -86.71382812 87.75376953 -86.421875 89.54296875 C-86.19671104 91.09097095 -85.97281937 92.63915858 -85.75 94.1875 C-85.62109375 94.95642578 -85.4921875 95.72535156 -85.359375 96.51757812 C-84.78235472 100.71900707 -84.5850859 102.35190418 -86.953125 106.05078125 C-87.62859375 106.69402344 -88.3040625 107.33726562 -89 108 C-92 106 -92 106 -95 100 C-95.33 95.38 -95.66 90.76 -96 86 C-105.9 86 -115.8 86 -126 86 C-125.01893808 90.99660158 -125.01893808 90.99660158 -124.02539062 95.99072266 C-123.24555412 100.0539184 -122.84254378 103.84053165 -123 108 C-122.34 108.33 -121.68 108.66 -121 109 C-123.51904593 109.93297997 -124.90977395 110.01980572 -127.5625 109.4375 C-131.43457613 107.15396793 -132.44906874 104.12370423 -133.5546875 99.86181641 C-134.9121766 93.48553349 -135.35003148 87.38616016 -135.3125 80.875 C-135.30831055 79.87235107 -135.30412109 78.86970215 -135.29980469 77.83666992 C-135.17057385 69.24488119 -134.13980393 61.32662833 -132 53 C-131.61714844 51.43958984 -131.61714844 51.43958984 -131.2265625 49.84765625 C-128.75901356 41.23387302 -124.14350511 34.22581623 -119 27 C-118.34773438 26.07832031 -117.69546875 25.15664062 -117.0234375 24.20703125 C-112.1539829 17.74448347 -106.44547933 12.8499739 -100 8 C-99.19691406 7.38253906 -98.39382812 6.76507813 -97.56640625 6.12890625 C-70.56803493 -13.77629691 -29.13263921 -19.42175947 0 0 Z M-60 7 C-60.62777344 7.45503906 -61.25554687 7.91007812 -61.90234375 8.37890625 C-71.85926693 16.22730452 -79.84469428 28.44983441 -82 41 C-70.96863966 43.58700043 -60.30825541 44.62435349 -49 45 C-48.26796733 39.7525543 -47.87191472 34.70420756 -47.8671875 29.39453125 C-47.86623077 28.70743576 -47.86527405 28.02034027 -47.86428833 27.31242371 C-47.86361376 25.87470405 -47.86541701 24.43698122 -47.86962891 22.99926758 C-47.87501256 20.8073849 -47.86964658 18.61570477 -47.86328125 16.42382812 C-47.86394168 15.01822872 -47.86522211 13.61262944 -47.8671875 12.20703125 C-47.86887939 10.31174683 -47.86887939 10.31174683 -47.87060547 8.37817383 C-47.98283917 5.44802717 -48.31790371 2.84319679 -49 0 C-52.47843862 0 -57.2660643 5.00760871 -60 7 Z M-40 0 C-40 14.85 -40 29.7 -40 45 C-33.5340625 44.566875 -33.5340625 44.566875 -26.9375 44.125 C-25.59163818 44.03879395 -24.24577637 43.95258789 -22.85913086 43.86376953 C-16.98241824 43.44861233 -11.56911075 42.96946264 -6 41 C-9.22590405 26.83674506 -19.06317994 12.38117153 -31 4 C-35.27218207 1.28201493 -35.27218207 1.28201493 -40 0 Z M-68 1 C-82.47480426 6.36403361 -96.85134629 14.08165223 -107 26 C-107.8810288 28.68785229 -107.8810288 28.68785229 -108 31 C-101.05551029 35.44556324 -101.05551029 35.44556324 -93 36 C-93 36.66 -93 37.32 -93 38 C-92.01 38 -91.02 38 -90 38 C-89.68546875 37.2265625 -89.3709375 36.453125 -89.046875 35.65625 C-80.76305502 15.49562787 -80.76305502 15.49562787 -73.31640625 8.39453125 C-71.77118531 7.07722549 -71.77118531 7.07722549 -72 5 C-71.34 5 -70.68 5 -70 5 C-70 4.34 -70 3.68 -70 3 C-69.01 3 -68.02 3 -67 3 C-67.495 2.01 -67.495 2.01 -68 1 Z M-115 38 C-123.19118831 49.51994781 -126 63.08428004 -126 77 C-116.1 77 -106.2 77 -96 77 C-94.3959726 62.01017619 -94.3959726 62.01017619 -93 47 C-100.30851156 43.93595048 -107.63184879 40.91791829 -115 38 Z " fill="#C10C30" transform="translate(288,180)"/>
<path d="M0 0 C0.99 0.66 1.98 1.32 3 2 C3.56498261 5.63203108 3.17675013 9.33685348 3 13 C2.9690625 14.05832031 2.938125 15.11664063 2.90625 16.20703125 C2.24751822 30.35329616 -0.75355023 44.25139784 -7 57 C-7.66128906 58.38058594 -7.66128906 58.38058594 -8.3359375 59.7890625 C-19.583538 81.84927343 -39.87817808 96.43064567 -63 104 C-67.63791576 105.22429453 -72.27296488 106.19206288 -77 107 C-78.299375 107.226875 -79.59875 107.45375 -80.9375 107.6875 C-107.67791506 110.4242589 -133.55508211 103.35820427 -154.625 86.6875 C-161.29056177 81.08729676 -167.78341558 74.69984981 -172 67 C-171.67 66.01 -171.34 65.02 -171 64 C-168.525 63.505 -168.525 63.505 -166 63 C-166 63.66 -166 64.32 -166 65 C-165.401875 65.103125 -164.80375 65.20625 -164.1875 65.3125 C-161.68741714 66.09824033 -160.62464918 66.96918853 -159 69 C-159 69.66 -159 70.32 -159 71 C-158.4225 71.28875 -157.845 71.5775 -157.25 71.875 C-156.13625 72.431875 -156.13625 72.431875 -155 73 C-154.34 73.268125 -153.68 73.53625 -153 73.8125 C-151 75 -151 75 -149.26171875 77.3203125 C-146.70487518 80.3496643 -144.20400806 82.02435358 -140.8125 84.0625 C-140.24313721 84.40539062 -139.67377441 84.74828125 -139.0871582 85.1015625 C-134.52748685 87.80054928 -129.90224522 90.00586635 -125 92 C-125.61488281 91.27554688 -126.22976562 90.55109375 -126.86328125 89.8046875 C-127.67152344 88.83789062 -128.47976562 87.87109375 -129.3125 86.875 C-130.51326172 85.44800781 -130.51326172 85.44800781 -131.73828125 83.9921875 C-137 77.03108808 -137 77.03108808 -137 73 C-133.87109072 71.94254455 -131.28099552 71.458278 -128 72 C-124.75992164 74.90776263 -122.48232602 78.44354119 -120 82 C-114.9564344 88.09480058 -109.04858978 91.52031644 -102 95 C-102.33 94.34 -102.66 93.68 -103 93 C-103.12308974 90.42071047 -103.18835973 87.86945066 -103.203125 85.2890625 C-103.20882507 84.52451752 -103.21452515 83.75997253 -103.22039795 82.97225952 C-103.2298497 81.35326523 -103.23638263 79.73425168 -103.24023438 78.11523438 C-103.24993496 75.64158442 -103.28095335 73.16876719 -103.3125 70.6953125 C-103.31903068 69.12240077 -103.3242809 67.54948309 -103.328125 65.9765625 C-103.3404718 65.23789948 -103.3528186 64.49923645 -103.36553955 63.7381897 C-103.35198768 60.60447829 -103.16043794 58.31551151 -101.72949219 55.50146484 C-100 54 -100 54 -96 54 C-93.39631687 57.9055247 -93.64851503 61.28663889 -93.5859375 65.82421875 C-93.56657135 66.68561966 -93.5472052 67.54702057 -93.5272522 68.43452454 C-93.4674797 71.18541568 -93.42108052 73.93634873 -93.375 76.6875 C-93.33681806 78.55275261 -93.2977662 80.41798763 -93.2578125 82.28320312 C-93.1617801 86.85532586 -93.0777405 91.42753114 -93 96 C-91.11241457 95.40264365 -89.22751833 94.79678667 -87.34375 94.1875 C-86.29380859 93.85105469 -85.24386719 93.51460938 -84.16210938 93.16796875 C-73.53754152 89.24363794 -65.32060642 81.41933618 -58 73 C-58 72.34 -58 71.68 -58 71 C-57.56042969 70.56816406 -57.12085938 70.13632812 -56.66796875 69.69140625 C-54.63428348 67.62914461 -53.58568534 65.53357462 -52.3125 62.9375 C-51.87550781 62.05964844 -51.43851562 61.18179688 -50.98828125 60.27734375 C-49.86730229 58.10797464 -49.86730229 58.10797464 -50 56 C-58.4827587 53.95021484 -66.5063509 52.62189828 -75.234375 52.2109375 C-78 52 -78 52 -80 51 C-78.59269612 47.59901562 -77.09985254 45.97015276 -74 44 C-67.97823919 42.56624743 -62.04578654 42.99236891 -56 44 C-56 44.66 -56 45.32 -56 46 C-53.03 46.33 -50.06 46.66 -47 47 C-46.67 35.45 -46.34 23.9 -46 12 C-45.01 12 -44.02 12 -43 12 C-42.67 11.34 -42.34 10.68 -42 10 C-40.35 10.33 -38.7 10.66 -37 11 C-36.97054961 15.41665225 -36.95305184 19.83327867 -36.9375 24.25 C-36.92912109 25.48492187 -36.92074219 26.71984375 -36.91210938 27.9921875 C-36.89178114 35.71691504 -37.20994685 43.31501847 -38 51 C-37.236875 51.226875 -36.47375 51.45375 -35.6875 51.6875 C-31.45959861 53.19234626 -27.51370961 55.09769445 -23.48828125 57.07421875 C-20.92581495 58.32370968 -20.92581495 58.32370968 -18 57 C-10.92073866 44.44610989 -7.95867532 29.87732687 -6.68261719 15.6706543 C-6.31823745 11.79374736 -5.83555135 8.46222962 -4 5 C-3.01 4.34 -2.02 3.68 -1 3 C-0.67 2.01 -0.34 1.02 0 0 Z M-41.51171875 61.17578125 C-43.31003266 63.38001379 -44.51602368 65.65526389 -45.8125 68.1875 C-48.47652893 73.18585131 -51.44053188 77.60583181 -55 82 C-55.46792969 82.59039062 -55.93585938 83.18078125 -56.41796875 83.7890625 C-59.69905567 87.84952783 -59.69905567 87.84952783 -62 89 C-62 89.66 -62 90.32 -62 91 C-62.66 91 -63.32 91 -64 91 C-64 91.66 -64 92.32 -64 93 C-65.485 93.495 -65.485 93.495 -67 94 C-60.76960897 93.53292919 -56.15817769 91.43537909 -50.6875 88.5 C-49.850979 88.0551123 -49.01445801 87.61022461 -48.15258789 87.15185547 C-40.37858853 82.88594038 -32.98687383 78.18450751 -29 70 C-26.875 68.75 -26.875 68.75 -25 68 C-25.495 66.515 -25.495 66.515 -26 65 C-26.99 65 -27.98 65 -29 65 C-30 64 -31 63 -32 62 C-36.79214268 59.59363679 -36.79214268 59.59363679 -41.51171875 61.17578125 Z " fill="#C10C30" transform="translate(343,245)"/>
<path d="M0 0 C8.00536905 5.99143973 13.20550902 14.04181872 14.8125 23.9375 C16.91683783 41.41638766 8.49786221 57.56901675 -1.89453125 71.171875 C-3.38355038 73.01670179 -3.38355038 73.01670179 -4.1875 75.9375 C-4.8475 75.9375 -5.5075 75.9375 -6.1875 75.9375 C-6.496875 76.72125 -6.80625 77.505 -7.125 78.3125 C-8.83667898 82.54135394 -10.90444811 84.72906293 -14.1875 87.9375 C-15.0125 88.845 -15.8375 89.7525 -16.6875 90.6875 C-19.31955177 93.05634659 -20.71565843 93.63991358 -24.1875 93.9375 C-24.1875 93.2775 -24.1875 92.6175 -24.1875 91.9375 C-24.8475 91.9375 -25.5075 91.9375 -26.1875 91.9375 C-27.37670898 90.53222656 -27.37670898 90.53222656 -28.68359375 88.578125 C-29.15990234 87.87429687 -29.63621094 87.17046875 -30.12695312 86.4453125 C-30.62130859 85.70023437 -31.11566406 84.95515625 -31.625 84.1875 C-32.60218655 82.73391896 -33.58003208 81.28078066 -34.55859375 79.828125 C-35.01830566 79.14186035 -35.47801758 78.4555957 -35.95166016 77.74853516 C-36.8845688 76.38142407 -37.8635305 75.04558097 -38.86328125 73.7265625 C-43.41718702 67.57408804 -46.58873258 60.248426 -50.0625 53.4375 C-50.65804688 52.2721875 -51.25359375 51.106875 -51.8671875 49.90625 C-53.1875 46.9375 -53.1875 46.9375 -53.1875 43.9375 C-53.8475 43.6075 -54.5075 43.2775 -55.1875 42.9375 C-58.08511582 32.63694312 -56.65995284 21.50938505 -52.1875 11.9375 C-47.56752834 3.75074171 -39.83347199 -3.06238832 -30.69921875 -5.62890625 C-19.58126646 -7.54817951 -9.50534806 -6.06968009 0 0 Z M-39.25 9.75 C-45.26391236 15.67691182 -47.29630596 21.59226994 -47.5625 29.875 C-47.24765111 48.84989327 -32.85760886 67.08401826 -22.1875 81.9375 C-8.89530048 69.26799812 5.41665897 49.18582936 6.4375 30.5 C6.15361339 22.5511748 3.38954945 15.65649585 -2.15625 9.890625 C-5.95362125 6.82351745 -9.20479342 5.18663533 -14.1875 4.9375 C-14.1875 4.6075 -14.1875 4.2775 -14.1875 3.9375 C-23.41353131 1.98583953 -31.96184651 3.55388254 -39.25 9.75 Z " fill="#C10C30" transform="translate(346.1875,168.0625)"/>
<path d="M0 0 C2.4375 0.6875 2.4375 0.6875 5 2 C6.0625 4.3125 6.0625 4.3125 6 7 C3.20068158 11.10747448 -0.25507923 13.94055337 -4.25 16.8125 C-5.08144531 17.42254883 -5.08144531 17.42254883 -5.9296875 18.04492188 C-7.28210453 19.03591711 -8.64044907 20.01881466 -10 21 C-9.76023437 22.0828125 -9.76023437 22.0828125 -9.515625 23.1875 C-8.51285685 28.65714447 -8.10965394 33.97648622 -10.375 39.125 C-10.91125 39.74375 -11.4475 40.3625 -12 41 C-12.66 41 -13.32 41 -14 41 C-14 41.66 -14 42.32 -14 43 C-16.98028958 43.99342986 -18.06877065 43.94012941 -21.0625 43.625 C-26.38008905 43.57378726 -29.05279914 45.80396989 -33.171875 48.9375 C-45.75583321 58.11475129 -60.529758 62.68161632 -75.2109375 67.3359375 C-82.10687788 69.6056705 -85.80324551 71.098314 -90 77 C-94.60151522 79.30075761 -98.05352721 79.30170337 -103 78 C-104.83577338 76.83066551 -106.52544074 75.54280762 -108.24609375 74.2109375 C-112.72246235 71.12034893 -117.71487123 70.74218884 -123 71 C-123 70.34 -123 69.68 -123 69 C-124.28197266 68.81824219 -124.28197266 68.81824219 -125.58984375 68.6328125 C-126.69457031 68.46523438 -127.79929688 68.29765625 -128.9375 68.125 C-130.03964844 67.96257812 -131.14179688 67.80015625 -132.27734375 67.6328125 C-133.17582031 67.42398438 -134.07429687 67.21515625 -135 67 C-135.33 66.34 -135.66 65.68 -136 65 C-137.66279327 63.9935725 -139.32983484 62.99414593 -141 62 C-144.15433122 59.54663128 -144.90780957 56.78065919 -146 53 C-142.41167292 51.75788678 -139.6556535 52.06664166 -136 53 C-134.97803008 53.97753644 -133.98020375 54.9805881 -133 56 C-127.80426819 58.50436945 -122.68033751 59.95032413 -117.0625 61.1875 C-116.28326172 61.36474609 -115.50402344 61.54199219 -114.70117188 61.72460938 C-112.80212046 62.1556824 -110.90124122 62.57869008 -109 63 C-108.57460937 61.83210938 -108.57460937 61.83210938 -108.140625 60.640625 C-106.67785537 57.25421311 -105.09787181 55.97137297 -102 54 C-98.94009073 52.91203226 -97.02891496 52.63225093 -93.9453125 53.734375 C-90.37926806 55.4324914 -87.75440736 57.16744998 -85 60 C-65.63797012 54.53161178 -47.82317758 48.17582115 -31 37 C-31.0721875 36.30132812 -31.144375 35.60265625 -31.21875 34.8828125 C-31.3115625 33.97273438 -31.404375 33.06265625 -31.5 32.125 C-31.5928125 31.22007812 -31.685625 30.31515625 -31.78125 29.3828125 C-32 27 -32 27 -32 25 C-31.34 25 -30.68 25 -30 25 C-29.62101562 24.09121094 -29.62101562 24.09121094 -29.234375 23.1640625 C-27.81880713 20.68233908 -26.66907416 19.85736499 -24.25 18.375 C-19.90287318 15.6002382 -15.65231843 12.72045363 -11.4375 9.75 C-10.48955566 9.09523682 -10.48955566 9.09523682 -9.52246094 8.42724609 C-7.97779732 7.33562153 -6.48354929 6.17333344 -5 5 C-5 4.34 -5 3.68 -5 3 C-3.35 3 -1.7 3 0 3 C0 2.01 0 1.02 0 0 Z M-21 27 C-21.66 27.66 -22.32 28.32 -23 29 C-22.6814823 31.10820797 -22.6814823 31.10820797 -22 33 C-20.05396726 33.59070014 -20.05396726 33.59070014 -18 34 C-16.70366379 32.93354885 -16.70366379 32.93354885 -16.9375 30.4375 C-16.958125 29.633125 -16.97875 28.82875 -17 28 C-18.89179203 27.3185177 -18.89179203 27.3185177 -21 27 Z M-98 62 C-100.35953094 64.35953094 -100.49141413 65.77895617 -101 69 C-98.64632287 69.6878236 -98.64632287 69.6878236 -96 70 C-95.01 69.34 -94.02 68.68 -93 68 C-93.19471111 66.05000871 -93.19471111 66.05000871 -94 64 C-95.9837767 62.71563266 -95.9837767 62.71563266 -98 62 Z " fill="#C10C30" transform="translate(297,237)"/>
<path d="M0 0 C4.25567553 4.14928364 5.84593228 8.05874669 6.3125 13.9375 C6.15065334 18.72995952 4.78898581 22.06771042 1.48828125 25.6328125 C-2.3295434 29.18467633 -5.7044824 31.34967328 -11 32 C-15.45509581 31.02858813 -19.68117159 29.1805439 -23 26 C-23 25.34 -23 24.68 -23 24 C-23.66 24 -24.32 24 -25 24 C-27.60246961 17.33117163 -27.87192465 12.39762015 -25 5.8125 C-22.32707607 0.80171952 -19.3481892 -1.30941932 -14 -3 C-13.36191406 -3.22816406 -12.72382813 -3.45632812 -12.06640625 -3.69140625 C-7.77346795 -4.33250668 -3.72138315 -1.96613077 0 0 Z M-16.375 7.625 C-18.38506043 10.56278062 -18.92733979 12.4396496 -19 16 C-17.26655125 19.72843964 -17.26655125 19.72843964 -14 22 C-10.34453935 22.40616229 -8.41082318 22.21434253 -5.125 20.5 C-2.53956368 17.45831021 -2.30989319 15.79992767 -2.5859375 11.90625 C-2.93198465 9.79554214 -2.93198465 9.79554214 -4.5625 7.5 C-8.68972366 4.96017006 -12.34925344 4.87054183 -16.375 7.625 Z " fill="#C10C30" transform="translate(336,184)"/>
<path d="M0 0 C0.33 0.99 0.66 1.98 1 3 C0.01 2.67 -0.98 2.34 -2 2 C-1.34 2 -0.68 2 0 2 C0 1.34 0 0.68 0 0 Z " fill="#C10C30" transform="translate(316,213)"/>
<path d="M0 0 C3 1 3 1 3 1 Z " fill="#C10C30" transform="translate(226,351)"/>
<path d="M0 0 C0.66 0 1.32 0 2 0 C1.67 0.66 1.34 1.32 1 2 C0.67 1.34 0.34 0.68 0 0 Z " fill="#C10C30" transform="translate(182,311)"/>
<path d="M0 0 C0.33 0.66 0.66 1.32 1 2 C0.34 1.67 -0.32 1.34 -1 1 C-0.67 0.67 -0.34 0.34 0 0 Z " fill="#C10C30" transform="translate(278,265)"/>
<path d="M0 0 C0.66 0.66 1.32 1.32 2 2 C1.34 2 0.68 2 0 2 C0 1.34 0 0.68 0 0 Z " fill="#C10C30" transform="translate(289,240)"/>
<path d="M0 0 C0.66 0 1.32 0 2 0 C1.67 0.66 1.34 1.32 1 2 C0.67 1.34 0.34 0.68 0 0 Z " fill="#C10C30" transform="translate(249,182)"/>
<path d="M0 0 C0.66 0 1.32 0 2 0 C1.67 0.66 1.34 1.32 1 2 C0.67 1.34 0.34 0.68 0 0 Z " fill="#C10C30" transform="translate(333,174)"/>
<path d="" fill="#C10C30" transform="translate(0,0)"/>
<path d="" fill="#C10C30" transform="translate(0,0)"/>
<path d="M0 0 C2 1 2 1 2 1 Z " fill="#C10C30" transform="translate(169,312)"/>
<path d="M0 0 C2 1 2 1 2 1 Z " fill="#C10C30" transform="translate(306,307)"/>
<path d="M0 0 C2 1 2 1 2 1 Z " fill="#C10C30" transform="translate(155,288)"/>
<path d="M0 0 C2 1 2 1 2 1 Z " fill="#C10C30" transform="translate(313,253)"/>
<path d="M0 0 C2 1 2 1 2 1 Z " fill="#C10C30" transform="translate(273,249)"/>
<path d="" fill="#C10C30" transform="translate(0,0)"/>
<path d="M0 0 C2 1 2 1 2 1 Z " fill="#C10C30" transform="translate(273,209)"/>
<path d="" fill="#C10C30" transform="translate(0,0)"/>
<path d="M0 0 C2 1 2 1 2 1 Z " fill="#C10C30" transform="translate(343,196)"/>
<path d="" fill="#C10C30" transform="translate(0,0)"/>
<path d="M0 0 C2 1 2 1 2 1 Z " fill="#C10C30" transform="translate(327,191)"/>
<path d="M0 0 C2 1 2 1 2 1 Z " fill="#C10C30" transform="translate(210,186)"/>
<path d="" fill="#C10C30" transform="translate(0,0)"/>
<path d="" fill="#C10C30" transform="translate(0,0)"/>
<path d="" fill="#C10C30" transform="translate(0,0)"/>
<path d="" fill="#C10C30" transform="translate(0,0)"/>
<path d="" fill="#C10C30" transform="translate(0,0)"/>
<path d="" fill="#C10C30" transform="translate(0,0)"/>
<path d="" fill="#C10C30" transform="translate(0,0)"/>
<path d="" fill="#C10C30" transform="translate(0,0)"/>
<path d="" fill="#C10C30" transform="translate(0,0)"/>
<path d="" fill="#C10C30" transform="translate(0,0)"/>
<path d="" fill="#C10C30" transform="translate(0,0)"/>
<path d="" fill="#C10C30" transform="translate(0,0)"/>
<path d="" fill="#C10C30" transform="translate(0,0)"/>
<path d="" fill="#C10C30" transform="translate(0,0)"/>
<path d="" fill="#C10C30" transform="translate(0,0)"/>
<path d="" fill="#C10C30" transform="translate(0,0)"/>
<path d="" fill="#C10C30" transform="translate(0,0)"/>
<path d="" fill="#C10C30" transform="translate(0,0)"/>
<path d="" fill="#C10C30" transform="translate(0,0)"/>
<path d="" fill="#C10C30" transform="translate(0,0)"/>
<path d="" fill="#C10C30" transform="translate(0,0)"/>
<path d="" fill="#C10C30" transform="translate(0,0)"/>
<path d="" fill="#C10C30" transform="translate(0,0)"/>
<path d="" fill="#C10C30" transform="translate(0,0)"/>
<path d="" fill="#C10C30" transform="translate(0,0)"/>
<path d="" fill="#C10C30" transform="translate(0,0)"/>
<path d="" fill="#C10C30" transform="translate(0,0)"/>
<path d="" fill="#C10C30" transform="translate(0,0)"/>
<path d="" fill="#C10C30" transform="translate(0,0)"/>
<path d="" fill="#C10C30" transform="translate(0,0)"/>
<path d="" fill="#C10C30" transform="translate(0,0)"/>
<path d="" fill="#C10C30" transform="translate(0,0)"/>
<path d="" fill="#C10C30" transform="translate(0,0)"/>
<path d="" fill="#C10C30" transform="translate(0,0)"/>
<path d="" fill="#C10C30" transform="translate(0,0)"/>
<path d="" fill="#C10C30" transform="translate(0,0)"/>
<path d="" fill="#C10C30" transform="translate(0,0)"/>
<path d="" fill="#C10C30" transform="translate(0,0)"/>
<path d="" fill="#C10C30" transform="translate(0,0)"/>
<path d="" fill="#C10C30" transform="translate(0,0)"/>
<path d="" fill="#C10C30" transform="translate(0,0)"/>
<path d="" fill="#C10C30" transform="translate(0,0)"/>
<path d="" fill="#C10C30" transform="translate(0,0)"/>
<path d="" fill="#C10C30" transform="translate(0,0)"/>
<path d="" fill="#C10C30" transform="translate(0,0)"/>
<path d="" fill="#C10C30" transform="translate(0,0)"/>
<path d="" fill="#C10C30" transform="translate(0,0)"/>
<path d="" fill="#C10C30" transform="translate(0,0)"/>
<path d="" fill="#C10C30" transform="translate(0,0)"/>
<path d="" fill="#C10C30" transform="translate(0,0)"/>
<path d="" fill="#C10C30" transform="translate(0,0)"/>
<path d="" fill="#C10C30" transform="translate(0,0)"/>
<path d="" fill="#C10C30" transform="translate(0,0)"/>
<path d="" fill="#C10C30" transform="translate(0,0)"/>
<path d="" fill="#C10C30" transform="translate(0,0)"/>
<path d="" fill="#C10C30" transform="translate(0,0)"/>
<path d="" fill="#C10C30" transform="translate(0,0)"/>
<path d="" fill="#C10C30" transform="translate(0,0)"/>
<path d="" fill="#C10C30" transform="translate(0,0)"/>
<path d="" fill="#C10C30" transform="translate(0,0)"/>
<path d="" fill="#C10C30" transform="translate(0,0)"/>
<path d="" fill="#C10C30" transform="translate(0,0)"/>
<path d="" fill="#C10C30" transform="translate(0,0)"/>
<path d="" fill="#C10C30" transform="translate(0,0)"/>
<path d="" fill="#C10C30" transform="translate(0,0)"/>
<path d="" fill="#C10C30" transform="translate(0,0)"/>
<path d="" fill="#C10C30" transform="translate(0,0)"/>
<path d="" fill="#C10C30" transform="translate(0,0)"/>
<path d="" fill="#C10C30" transform="translate(0,0)"/>
<path d="" fill="#C10C30" transform="translate(0,0)"/>
<path d="" fill="#C10C30" transform="translate(0,0)"/>
<path d="" fill="#C10C30" transform="translate(0,0)"/>
<path d="" fill="#C10C30" transform="translate(0,0)"/>
<path d="" fill="#C10C30" transform="translate(0,0)"/>
<path d="" fill="#C10C30" transform="translate(0,0)"/>
<path d="" fill="#C10C30" transform="translate(0,0)"/>
<path d="" fill="#C10C30" transform="translate(0,0)"/>
<path d="" fill="#C10C30" transform="translate(0,0)"/>
<path d="" fill="#C10C30" transform="translate(0,0)"/>
<path d="" fill="#C10C30" transform="translate(0,0)"/>
<path d="" fill="#C10C30" transform="translate(0,0)"/>
<path d="" fill="#C10C30" transform="translate(0,0)"/>
<path d="" fill="#C10C30" transform="translate(0,0)"/>
<path d="" fill="#C10C30" transform="translate(0,0)"/>
<path d="" fill="#C10C30" transform="translate(0,0)"/>
<path d="" fill="#C10C30" transform="translate(0,0)"/>
<path d="" fill="#C10C30" transform="translate(0,0)"/>
<path d="" fill="#C10C30" transform="translate(0,0)"/>
<path d="" fill="#C10C30" transform="translate(0,0)"/>
<path d="" fill="#C10C30" transform="translate(0,0)"/>
<path d="" fill="#C10C30" transform="translate(0,0)"/>
<path d="" fill="#C10C30" transform="translate(0,0)"/>
<path d="" fill="#C10C30" transform="translate(0,0)"/>
<path d="" fill="#C10C30" transform="translate(0,0)"/>
<path d="" fill="#C10C30" transform="translate(0,0)"/>
<path d="" fill="#C10C30" transform="translate(0,0)"/>
<path d="" fill="#C10C30" transform="translate(0,0)"/>
<path d="" fill="#C10C30" transform="translate(0,0)"/>
<path d="" fill="#C10C30" transform="translate(0,0)"/>
<path d="" fill="#C10C30" transform="translate(0,0)"/>
<path d="" fill="#C10C30" transform="translate(0,0)"/>
<path d="" fill="#C10C30" transform="translate(0,0)"/>
<path d="" fill="#C10C30" transform="translate(0,0)"/>
<path d="" fill="#C10C30" transform="translate(0,0)"/>
<path d="" fill="#C10C30" transform="translate(0,0)"/>
<path d="" fill="#C10C30" transform="translate(0,0)"/>
<path d="" fill="#C10C30" transform="translate(0,0)"/>
<path d="" fill="#C10C30" transform="translate(0,0)"/>
<path d="" fill="#C10C30" transform="translate(0,0)"/>
<path d="" fill="#C10C30" transform="translate(0,0)"/>
<path d="" fill="#C10C30" transform="translate(0,0)"/>
<path d="" fill="#C10C30" transform="translate(0,0)"/>
<path d="" fill="#C10C30" transform="translate(0,0)"/>
<path d="" fill="#C10C30" transform="translate(0,0)"/>
<path d="" fill="#C10C30" transform="translate(0,0)"/>
<path d="" fill="#C10C30" transform="translate(0,0)"/>
<path d="" fill="#C10C30" transform="translate(0,0)"/>
<path d="" fill="#C10C30" transform="translate(0,0)"/>
<path d="" fill="#C10C30" transform="translate(0,0)"/>
<path d="" fill="#C10C30" transform="translate(0,0)"/>
<path d="" fill="#C10C30" transform="translate(0,0)"/>
<path d="" fill="#C10C30" transform="translate(0,0)"/>
<path d="" fill="#C10C30" transform="translate(0,0)"/>
<path d="" fill="#C10C30" transform="translate(0,0)"/>
<path d="" fill="#C10C30" transform="translate(0,0)"/>
<path d="" fill="#C10C30" transform="translate(0,0)"/>
<path d="" fill="#C10C30" transform="translate(0,0)"/>
</svg>
