<?xml version="1.0" encoding="UTF-8"?>
<svg version="1.1" xmlns="http://www.w3.org/2000/svg" width="512" height="512">
<path d="M0 0 C0.91507257 2.47069595 0.99603446 4.02723806 0.61328125 6.65625 C-1 9 -1 9 -2.74072266 9.59765625 C-5.09495852 10.00328292 -7.43499947 10.2669789 -9.8125 10.5 C-22.57673476 12.14606919 -32.89161063 15.85758587 -43 24 C-44.30130859 25.03833984 -44.30130859 25.03833984 -45.62890625 26.09765625 C-55.90995857 34.78522207 -61.32242773 45.01190485 -62.9375 58.3125 C-63.51200603 68.3487686 -59.84698158 76.99886731 -54 85 C-53.29875 85.99 -52.5975 86.98 -51.875 88 C-38.31725722 103.49456318 -16.02020152 109.27479349 3.765625 110.80859375 C26.17050802 111.9735445 49.06860581 107.8718438 66.61328125 93.1640625 C75.18091066 85.39570458 82.42797258 76.4116163 83.23828125 64.49609375 C83.59837662 51.4131668 80.90442746 41.05390809 72 31 C69.13230906 28.50719588 66.21190125 26.1732942 63.16015625 23.91015625 C62.44730469 23.27980469 61.73445312 22.64945313 61 22 C61 21.01 61 20.02 61 19 C61.66 19 62.32 19 63 19 C63.66 17.68 64.32 16.36 65 15 C68.78091617 16.34313185 71.65651916 18.02964684 74.8125 20.5 C75.60269531 21.1084375 76.39289063 21.716875 77.20703125 22.34375 C77.79871094 22.8903125 78.39039063 23.436875 79 24 C79 24.66 79 25.32 79 26 C79.66 26 80.32 26 81 26 C91.45867559 39.54990975 94.36222032 53.68861754 94.25 70.4375 C94.25773438 71.58798828 94.26546875 72.73847656 94.2734375 73.92382812 C94.23893206 89.14935267 91.04579941 100.72669448 82 113 C81.26523437 114.00353516 81.26523437 114.00353516 80.515625 115.02734375 C67.76982378 130.95959528 45.87818621 138.99206512 26.265625 141.5078125 C25.14414062 141.75144531 25.14414062 141.75144531 24 142 C23.67 142.66 23.34 143.32 23 144 C22.34 143.67 21.68 143.34 21 143 C19.30212617 142.88193472 17.60011118 142.8210257 15.8984375 142.7890625 C-11.12952705 142.11053619 -36.5573456 137.95926004 -56.9375 118.6875 C-72.13708952 102.36945012 -74.42162717 84.3794053 -74 63 C-73.69977063 58.26456406 -72.91859814 53.65204346 -72 49 C-71.77680369 47.37697468 -71.56609494 45.75211724 -71.375 44.125 C-71.25125 43.09375 -71.1275 42.0625 -71 41 C-70.34 41 -69.68 41 -69 41 C-67.82393119 39.16924301 -66.73417618 37.28268918 -65.6875 35.375 C-63.10406557 30.82169681 -60.65135159 26.75567593 -57 23 C-56.34 23 -55.68 23 -55 23 C-55 22.34 -55 21.68 -55 21 C-41.04549044 6.70262779 -19.75949841 -1.34723853 0 0 Z M83 88 C82.67 89.32 82.34 90.64 82 92 C81.34 92 80.68 92 80 92 C79.175 93.010625 78.35 94.02125 77.5 95.0625 C64.17177069 111.06928387 41.17884991 117.62346365 21.3125 119.6875 C11.28352921 120.39542735 1.78311963 119.87225826 -8.140625 118.4375 C-12.1595891 117.98190893 -15.96112978 117.92819786 -20 118 C-20.495 117.01 -20.495 117.01 -21 116 C-22.95132973 115.1611931 -24.93794757 114.40379241 -26.9375 113.6875 C-40.89401484 108.44618875 -51.56990363 101.74078224 -61 90 C-61.86596946 92.40847757 -62.14555124 93.60352449 -61.25 96.04296875 C-53.70341134 108.99008492 -44.16692117 119.22425521 -30 125 C-29.2059375 125.33515625 -28.411875 125.6703125 -27.59375 126.015625 C-4.17281924 135.24622712 25.40264075 135.76365286 48.86035156 126.24511719 C56.4620313 122.92360877 64.09102095 118.92461127 70 113 C70 112.34 70 111.68 70 111 C70.87978516 110.6596875 70.87978516 110.6596875 71.77734375 110.3125 C78.50974442 106.33695233 81.71609129 97.01528922 83.58984375 89.80078125 C83.79287109 88.90939453 83.79287109 88.90939453 84 88 C83.67 88 83.34 88 83 88 Z " fill="#FFFFFF" transform="translate(246,200)"/>
<path d="M0 0 C2.5 -0.375 2.5 -0.375 5 0 C7 3 7 3 7 6 C8.11971191 5.98428955 9.23942383 5.9685791 10.39306641 5.95239258 C14.56389111 5.89792106 18.73468462 5.86358748 22.90576172 5.83520508 C24.70789892 5.8201576 26.50999973 5.7997147 28.31201172 5.77368164 C30.90862021 5.73711979 33.50474275 5.72023319 36.1015625 5.70703125 C37.30191635 5.68380547 37.30191635 5.68380547 38.52651978 5.66011047 C43.40662684 5.65865612 46.79797193 6.23632393 51 9 C52.125 11.75 52.125 11.75 52 15 C50.97120088 16.70394855 49.93995379 18.40682866 48.87109375 20.0859375 C46.94194967 24.32486395 48.29063183 28.94209337 49.75 33.17578125 C50.27869202 34.52547099 50.81229495 35.87325078 51.3515625 37.21875 C52.24401739 39.67031284 52.4996558 41.4303416 52 44 C50.453125 46.15234375 50.453125 46.15234375 48 48 C45.25436822 48.15903659 43.00685247 48.1126724 40.3125 47.8125 C39.60222656 47.75006104 38.89195312 47.68762207 38.16015625 47.62329102 C36.10388981 47.4373171 34.05253291 47.22304502 32 47 C30.99324219 46.89945313 29.98648438 46.79890625 28.94921875 46.6953125 C26.96361797 46.48630189 24.98115327 46.24764416 23 46 C25.25099615 48.25099615 27.60487769 49.3175679 30.45922852 50.66381836 C42.79675685 56.49532059 52.75637648 64.04296113 58.375 76.9375 C62.0780855 87.34140689 61.20856346 96.31155549 56.96484375 106.48046875 C50.85209322 118.51947911 39.68170178 125.82889419 27.2890625 130.35546875 C7.22258289 136.18189941 -14.45903566 135.29511345 -33.06640625 125.36328125 C-43.64173559 118.96053084 -50.5401968 111.17771664 -55.375 99.75 C-57.22274338 88.66353973 -56.65580922 79.14283642 -50.45703125 69.6328125 C-41.53843683 57.51005487 -29.00780106 49.41671515 -14 47 C-10.3125 47.3125 -10.3125 47.3125 -8 48 C-8.5234375 51.3046875 -8.5234375 51.3046875 -10 55 C-12.68579485 56.43201419 -14.764513 57.29145712 -17.625 58.125 C-19.0866673 58.61243843 -20.54634742 59.10587914 -22.00390625 59.60546875 C-22.70016113 59.84056152 -23.39641602 60.0756543 -24.11376953 60.31787109 C-33.54863732 63.72985927 -40.652924 71.13865277 -45 80 C-47.14115026 86.75176048 -47.14613444 95.49470125 -44.21875 102 C-37.59454582 112.8704889 -28.32816572 118.35593863 -16.3125 121.8125 C1.43244416 125.70434154 20.41535971 125.11400681 36.30859375 115.62109375 C43.53806282 110.60556417 48.38506764 104.20317538 50.59375 95.64453125 C51.80249827 87.77604489 50.42033035 80.60957913 46 74 C43.06374189 70.01676514 40.58471157 67.03545384 36 65 C36 64.34 36 63.68 36 63 C32.35206816 61.72746564 28.8063457 60.67170806 25 60 C25 59.34 25 58.68 25 58 C24.18015625 57.82984375 23.3603125 57.6596875 22.515625 57.484375 C21.43796875 57.24203125 20.3603125 56.9996875 19.25 56.75 C18.18265625 56.51796875 17.1153125 56.2859375 16.015625 56.046875 C12.68714188 54.89139122 11.14570335 53.77066549 9 51 C9 48 9 48 11 46 C9.35 45.67 7.7 45.34 6 45 C6 45.99 6 46.98 6 48 C6.99 48.495 6.99 48.495 8 49 C7.67 49.33 7.34 49.66 7 50 C6.84011509 52.51880517 6.74065775 55.01342266 6.68359375 57.53515625 C6.66281265 58.28840683 6.64203156 59.04165741 6.62062073 59.81773376 C6.55504575 62.2325599 6.49620379 64.64749798 6.4375 67.0625 C6.3943223 68.69597529 6.35070827 70.3294391 6.30664062 71.96289062 C6.19935638 75.97514464 6.09811179 79.98751164 6 84 C6.93070312 83.9690625 7.86140625 83.938125 8.8203125 83.90625 C12.43799418 84.01291383 14.08450705 84.94200497 17 87 C16.70540991 90.53508103 16.25118587 91.76203444 13.625 94.25 C8.4206568 97.71956213 3.06987918 97.62763377 -3 97 C-6.25947706 95.86357377 -9.51841444 94.48158556 -12 92 C-12.25 89.0625 -12.25 89.0625 -12 86 C-9.08235 84.0549 -7.37462715 83.54723683 -4 83 C-3.05522823 74.71888912 -2.82930287 66.47693053 -2.77020454 58.15014648 C-2.75354483 55.88843324 -2.73031211 53.62686995 -2.70530701 51.36523438 C-2.63513828 44.94425085 -2.57409274 38.52321615 -2.52319336 32.10205078 C-2.49143963 28.15353979 -2.45020636 24.20522148 -2.40299797 20.25686646 C-2.3869954 18.75777622 -2.37466576 17.25864208 -2.36609077 15.75949097 C-2.35396055 13.67279311 -2.32983128 11.58655283 -2.30297852 9.5 C-2.29267105 8.3140625 -2.28236359 7.128125 -2.27174377 5.90625 C-2 3 -2 3 0 0 Z M6 15 C6 22.26 6 29.52 6 37 C13.07373071 37.28711779 13.07373071 37.28711779 20.14770508 37.56811523 C26.08115706 37.81756175 31.93252996 38.2597417 37.8269043 38.99633789 C38.90258667 38.99815063 38.90258667 38.99815063 40 39 C40.66 38.34 41.32 37.68 42 37 C41.484375 35.845 40.96875 34.69 40.4375 33.5 C38.68925399 28.86263383 39.04952895 25.83156116 40 21 C40.2784375 19.515 40.2784375 19.515 40.5625 18 C40.706875 17.34 40.85125 16.68 41 16 C37.98786971 14.49393485 34.88717378 14.87839669 31.5859375 14.90234375 C30.49147812 14.90446617 30.49147812 14.90446617 29.37490845 14.90663147 C27.04156415 14.91223469 24.70831536 14.92478765 22.375 14.9375 C20.79427222 14.94251459 19.21354293 14.94707757 17.6328125 14.95117188 C13.75514182 14.96135483 9.87767798 14.98092945 6 15 Z " fill="#FFFFFF" transform="translate(254,168)"/>
<path d="M0 0 C18.37365241 7.08999724 18.37365241 7.08999724 23 16 C25.30885899 21.9435974 25.23417641 26.63899294 23.109375 32.640625 C20.00740689 39.23776844 15.42145847 42.84559935 9 46 C7.98292969 46.52335937 6.96585937 47.04671875 5.91796875 47.5859375 C1.27674755 49.55021575 -3.27597029 49.45253818 -8.25 49.375 C-9.18150879 49.36484863 -10.11301758 49.35469727 -11.07275391 49.34423828 C-20.63606059 49.12867537 -28.530462 48.25312575 -35.66015625 41.40234375 C-36.10230469 40.93957031 -36.54445312 40.47679687 -37 40 C-37.66 39.34 -38.32 38.68 -39 38 C-41.10820797 38.3185177 -41.10820797 38.3185177 -43 39 C-42.6596875 38.0409375 -42.6596875 38.0409375 -42.3125 37.0625 C-41.98441454 33.84726251 -42.38448722 32.57782796 -43.5 29.625 C-45.44984407 24.23162397 -44.83784934 20.46118242 -43 15.0625 C-39.47338012 9.66236331 -34.87067794 4.71766948 -28.5 3.125 C-27.2625 3.063125 -27.2625 3.063125 -26 3 C-25.67 2.34 -25.34 1.68 -25 1 C-22.525 1.495 -22.525 1.495 -20 2 C-19.63083935 7.5374098 -19.63083935 7.5374098 -21.265625 9.5859375 C-23.09825366 11.08010772 -24.76365605 11.8987345 -26.9375 12.8125 C-31.03082508 14.81384898 -33.10910933 16.72494283 -35 21 C-35.42936465 25.47254842 -34.34941712 28.41388096 -32.0625 32.25 C-27.08302601 37.577892 -18.7080402 39.66482495 -11.640625 40.16796875 C-3.19008528 40.23700911 4.2844273 39.59631059 11 34 C14.17317883 30.29795803 14.52103248 26.88266466 14.35546875 22.16015625 C13.81185267 18.85664316 12.50385298 17.15609562 10 15 C8.68 15 7.36 15 6 15 C5.505 13.515 5.505 13.515 5 12 C3.13977928 10.76722873 3.13977928 10.76722873 0.9375 9.8125 C-0.16271484 9.29623047 -0.16271484 9.29623047 -1.28515625 8.76953125 C-1.85105469 8.51558594 -2.41695313 8.26164063 -3 8 C-3 5.69 -3 3.38 -3 1 C-2.01 1.33 -1.02 1.66 0 2 C0 1.34 0 0.68 0 0 Z " fill="#FFFFFF" transform="translate(266,233)"/>
<path d="M0 0 C0.99 0.33 1.98 0.66 3 1 C2.01 1.33 1.02 1.66 0 2 C0 1.34 0 0.68 0 0 Z " fill="#FFFFFF" transform="translate(231,341)"/>
<path d="M0 0 C4 1 4 1 4 1 Z " fill="#FFFFFF" transform="translate(253,272)"/>
<path d="M0 0 C0.33 0.66 0.66 1.32 1 2 C0.34 1.67 -0.32 1.34 -1 1 C-0.67 0.67 -0.34 0.34 0 0 Z " fill="#FFFFFF" transform="translate(275,328)"/>
<path d="M0 0 C3 1 3 1 3 1 Z " fill="#FFFFFF" transform="translate(279,307)"/>
<path d="M0 0 C0.33 0.66 0.66 1.32 1 2 C0.34 1.67 -0.32 1.34 -1 1 C-0.67 0.67 -0.34 0.34 0 0 Z " fill="#FFFFFF" transform="translate(232,277)"/>
<path d="M0 0 C0.33 0.66 0.66 1.32 1 2 C0.34 1.67 -0.32 1.34 -1 1 C-0.67 0.67 -0.34 0.34 0 0 Z " fill="#FFFFFF" transform="translate(262,249)"/>
<path d="M0 0 C2 1 2 1 2 1 Z " fill="#FFFFFF" transform="translate(240,343)"/>
<path d="M0 0 C2 1 2 1 2 1 Z " fill="#FFFFFF" transform="translate(279,328)"/>
<path d="M0 0 C2 1 2 1 2 1 Z " fill="#FFFFFF" transform="translate(219,324)"/>
<path d="" fill="#FFFFFF" transform="translate(0,0)"/>
<path d="M0 0 C2 1 2 1 2 1 Z " fill="#FFFFFF" transform="translate(264,302)"/>
<path d="M0 0 C2 1 2 1 2 1 Z " fill="#FFFFFF" transform="translate(241,301)"/>
<path d="" fill="#FFFFFF" transform="translate(0,0)"/>
<path d="" fill="#FFFFFF" transform="translate(0,0)"/>
<path d="M0 0 C2 1 2 1 2 1 Z " fill="#FFFFFF" transform="translate(240,260)"/>
<path d="M0 0 C2 1 2 1 2 1 Z " fill="#FFFFFF" transform="translate(239,257)"/>
<path d="" fill="#FFFFFF" transform="translate(0,0)"/>
<path d="" fill="#FFFFFF" transform="translate(0,0)"/>
<path d="" fill="#FFFFFF" transform="translate(0,0)"/>
<path d="M0 0 C2 1 2 1 2 1 Z " fill="#FFFFFF" transform="translate(263,232)"/>
<path d="M0 0 C2 1 2 1 2 1 Z " fill="#FFFFFF" transform="translate(261,203)"/>
<path d="" fill="#FFFFFF" transform="translate(0,0)"/>
<path d="" fill="#FFFFFF" transform="translate(0,0)"/>
<path d="" fill="#FFFFFF" transform="translate(0,0)"/>
<path d="" fill="#FFFFFF" transform="translate(0,0)"/>
<path d="" fill="#FFFFFF" transform="translate(0,0)"/>
<path d="" fill="#FFFFFF" transform="translate(0,0)"/>
<path d="" fill="#FFFFFF" transform="translate(0,0)"/>
<path d="" fill="#FFFFFF" transform="translate(0,0)"/>
<path d="" fill="#FFFFFF" transform="translate(0,0)"/>
<path d="" fill="#FFFFFF" transform="translate(0,0)"/>
<path d="" fill="#FFFFFF" transform="translate(0,0)"/>
<path d="" fill="#FFFFFF" transform="translate(0,0)"/>
<path d="" fill="#FFFFFF" transform="translate(0,0)"/>
<path d="" fill="#FFFFFF" transform="translate(0,0)"/>
<path d="" fill="#FFFFFF" transform="translate(0,0)"/>
<path d="" fill="#FFFFFF" transform="translate(0,0)"/>
<path d="" fill="#FFFFFF" transform="translate(0,0)"/>
<path d="" fill="#FFFFFF" transform="translate(0,0)"/>
<path d="" fill="#FFFFFF" transform="translate(0,0)"/>
<path d="" fill="#FFFFFF" transform="translate(0,0)"/>
<path d="" fill="#FFFFFF" transform="translate(0,0)"/>
<path d="" fill="#FFFFFF" transform="translate(0,0)"/>
<path d="" fill="#FFFFFF" transform="translate(0,0)"/>
<path d="" fill="#FFFFFF" transform="translate(0,0)"/>
<path d="" fill="#FFFFFF" transform="translate(0,0)"/>
<path d="" fill="#FFFFFF" transform="translate(0,0)"/>
<path d="" fill="#FFFFFF" transform="translate(0,0)"/>
<path d="" fill="#FFFFFF" transform="translate(0,0)"/>
<path d="" fill="#FFFFFF" transform="translate(0,0)"/>
<path d="" fill="#FFFFFF" transform="translate(0,0)"/>
<path d="" fill="#FFFFFF" transform="translate(0,0)"/>
<path d="" fill="#FFFFFF" transform="translate(0,0)"/>
<path d="" fill="#FFFFFF" transform="translate(0,0)"/>
<path d="" fill="#FFFFFF" transform="translate(0,0)"/>
<path d="" fill="#FFFFFF" transform="translate(0,0)"/>
<path d="" fill="#FFFFFF" transform="translate(0,0)"/>
<path d="" fill="#FFFFFF" transform="translate(0,0)"/>
<path d="" fill="#FFFFFF" transform="translate(0,0)"/>
<path d="" fill="#FFFFFF" transform="translate(0,0)"/>
<path d="" fill="#FFFFFF" transform="translate(0,0)"/>
<path d="" fill="#FFFFFF" transform="translate(0,0)"/>
<path d="" fill="#FFFFFF" transform="translate(0,0)"/>
<path d="" fill="#FFFFFF" transform="translate(0,0)"/>
<path d="" fill="#FFFFFF" transform="translate(0,0)"/>
<path d="" fill="#FFFFFF" transform="translate(0,0)"/>
<path d="" fill="#FFFFFF" transform="translate(0,0)"/>
<path d="" fill="#FFFFFF" transform="translate(0,0)"/>
<path d="" fill="#FFFFFF" transform="translate(0,0)"/>
<path d="" fill="#FFFFFF" transform="translate(0,0)"/>
<path d="" fill="#FFFFFF" transform="translate(0,0)"/>
<path d="" fill="#FFFFFF" transform="translate(0,0)"/>
<path d="" fill="#FFFFFF" transform="translate(0,0)"/>
<path d="" fill="#FFFFFF" transform="translate(0,0)"/>
<path d="" fill="#FFFFFF" transform="translate(0,0)"/>
<path d="" fill="#FFFFFF" transform="translate(0,0)"/>
<path d="" fill="#FFFFFF" transform="translate(0,0)"/>
<path d="" fill="#FFFFFF" transform="translate(0,0)"/>
<path d="" fill="#FFFFFF" transform="translate(0,0)"/>
<path d="" fill="#FFFFFF" transform="translate(0,0)"/>
<path d="" fill="#FFFFFF" transform="translate(0,0)"/>
<path d="" fill="#FFFFFF" transform="translate(0,0)"/>
<path d="" fill="#FFFFFF" transform="translate(0,0)"/>
<path d="" fill="#FFFFFF" transform="translate(0,0)"/>
<path d="" fill="#FFFFFF" transform="translate(0,0)"/>
<path d="" fill="#FFFFFF" transform="translate(0,0)"/>
<path d="" fill="#FFFFFF" transform="translate(0,0)"/>
<path d="" fill="#FFFFFF" transform="translate(0,0)"/>
<path d="" fill="#FFFFFF" transform="translate(0,0)"/>
<path d="" fill="#FFFFFF" transform="translate(0,0)"/>
<path d="" fill="#FFFFFF" transform="translate(0,0)"/>
<path d="" fill="#FFFFFF" transform="translate(0,0)"/>
<path d="" fill="#FFFFFF" transform="translate(0,0)"/>
<path d="" fill="#FFFFFF" transform="translate(0,0)"/>
<path d="" fill="#FFFFFF" transform="translate(0,0)"/>
<path d="" fill="#FFFFFF" transform="translate(0,0)"/>
<path d="" fill="#FFFFFF" transform="translate(0,0)"/>
<path d="" fill="#FFFFFF" transform="translate(0,0)"/>
<path d="" fill="#FFFFFF" transform="translate(0,0)"/>
<path d="" fill="#FFFFFF" transform="translate(0,0)"/>
<path d="" fill="#FFFFFF" transform="translate(0,0)"/>
<path d="" fill="#FFFFFF" transform="translate(0,0)"/>
<path d="" fill="#FFFFFF" transform="translate(0,0)"/>
<path d="" fill="#FFFFFF" transform="translate(0,0)"/>
<path d="" fill="#FFFFFF" transform="translate(0,0)"/>
<path d="" fill="#FFFFFF" transform="translate(0,0)"/>
<path d="" fill="#FFFFFF" transform="translate(0,0)"/>
<path d="" fill="#FFFFFF" transform="translate(0,0)"/>
<path d="" fill="#FFFFFF" transform="translate(0,0)"/>
<path d="" fill="#FFFFFF" transform="translate(0,0)"/>
<path d="" fill="#FFFFFF" transform="translate(0,0)"/>
<path d="" fill="#FFFFFF" transform="translate(0,0)"/>
<path d="" fill="#FFFFFF" transform="translate(0,0)"/>
<path d="" fill="#FFFFFF" transform="translate(0,0)"/>
<path d="" fill="#FFFFFF" transform="translate(0,0)"/>
<path d="" fill="#FFFFFF" transform="translate(0,0)"/>
<path d="" fill="#FFFFFF" transform="translate(0,0)"/>
<path d="" fill="#FFFFFF" transform="translate(0,0)"/>
<path d="" fill="#FFFFFF" transform="translate(0,0)"/>
<path d="" fill="#FFFFFF" transform="translate(0,0)"/>
<path d="" fill="#FFFFFF" transform="translate(0,0)"/>
<path d="" fill="#FFFFFF" transform="translate(0,0)"/>
<path d="" fill="#FFFFFF" transform="translate(0,0)"/>
<path d="" fill="#FFFFFF" transform="translate(0,0)"/>
<path d="" fill="#FFFFFF" transform="translate(0,0)"/>
<path d="" fill="#FFFFFF" transform="translate(0,0)"/>
<path d="" fill="#FFFFFF" transform="translate(0,0)"/>
<path d="" fill="#FFFFFF" transform="translate(0,0)"/>
<path d="" fill="#FFFFFF" transform="translate(0,0)"/>
<path d="" fill="#FFFFFF" transform="translate(0,0)"/>
<path d="" fill="#FFFFFF" transform="translate(0,0)"/>
<path d="" fill="#FFFFFF" transform="translate(0,0)"/>
<path d="" fill="#FFFFFF" transform="translate(0,0)"/>
<path d="" fill="#FFFFFF" transform="translate(0,0)"/>
<path d="" fill="#FFFFFF" transform="translate(0,0)"/>
<path d="" fill="#FFFFFF" transform="translate(0,0)"/>
<path d="" fill="#FFFFFF" transform="translate(0,0)"/>
</svg>
