<?xml version="1.0" encoding="UTF-8"?>
<svg version="1.1" xmlns="http://www.w3.org/2000/svg" width="512" height="512">
<path d="M0 0 C0 0.66 0 1.32 0 2 C1.134375 2.04125 2.26875 2.0825 3.4375 2.125 C8.77253991 2.80849266 13.18911713 5.2266998 17 9 C20.72190098 15.25880209 20.41681461 21.36488054 20.3125 28.5 C20.31572266 29.60214844 20.31894531 30.70429688 20.32226562 31.83984375 C20.2842186 37.60223802 19.95962306 42.56614483 18 48 C19.258125 48.0825 20.51625 48.165 21.8125 48.25 C33.31879707 49.60050435 43.24134561 54.74988345 51.10546875 63.28515625 C57.36433072 71.49240596 60.98488762 81.65868003 60 92 C59.9175 92.91265625 59.835 93.8253125 59.75 94.765625 C58.33971504 106.22419034 53.6111491 114.61059577 44.79296875 122.0546875 C35.90540111 128.24490944 25.74193704 131.01016891 15 130 C7.24791146 128.47742369 0.56108025 126.53354035 -5.44921875 121.26953125 C-7.09093524 119.77177069 -7.09093524 119.77177069 -10 119 C-11.375 116.9375 -11.375 116.9375 -13 114 C-13.39445312 113.40832031 -13.78890625 112.81664062 -14.1953125 112.20703125 C-21.03828403 101.94257395 -21.39756628 93.00061166 -21 81 C-24.11785113 81.64644661 -24.11785113 81.64644661 -25 84 C-26.175625 83.835 -27.35125 83.67 -28.5625 83.5 C-31.45860251 83.48475736 -32.5989866 83.63696805 -34.7734375 85.60546875 C-35.91291683 87.03115533 -37.04540881 88.46244681 -38.171875 89.8984375 C-44.25789336 96.89475775 -54.40965874 99.52691058 -63.34667969 100.16845703 C-65.96177864 100.28805302 -68.56986068 100.34678072 -71.1875 100.375 C-72.01870361 100.38893799 -72.84990723 100.40287598 -73.70629883 100.41723633 C-81.91456059 100.35455298 -88.74384564 97.9534723 -95.9375 94.0625 C-96.85402344 93.57910156 -97.77054688 93.09570312 -98.71484375 92.59765625 C-101.18010377 90.8740813 -102.03515721 89.81734096 -103 87 C-103 86.01 -103 85.02 -103 84 C-103.66 84 -104.32 84 -105 84 C-105.495 84.99 -105.495 84.99 -106 86 C-106.625 84.125 -106.625 84.125 -107 82 C-106.01 81.01 -106.01 81.01 -105 80 C-104.98411073 77.99798522 -104.98411073 77.99798522 -105.375 75.625 C-106.00163002 69.94758105 -106.15547385 64.33081985 -106.1875 58.625 C-106.20022949 57.75697754 -106.21295898 56.88895508 -106.22607422 55.99462891 C-106.23658759 49.97046734 -105.87110423 45.96705829 -101.5625 41.4375 C-91.89640139 34.11888248 -79.612785 33.91458203 -68 33 C-67.34 31.02 -66.68 29.04 -66 27 C-65.67 27 -65.34 27 -65 27 C-64.96132812 25.82244141 -64.96132812 25.82244141 -64.921875 24.62109375 C-64.56339731 17.98110921 -64.26346876 13.22274923 -60 8 C-44.31032699 -4.81083393 -18.66340552 -2.2016299 0 0 Z M-54 15 C-53.67 15.99 -53.34 16.98 -53 18 C-35.89241832 26.37371103 -13.29742103 25.82117131 4.390625 20.03515625 C7.1692882 19.03793474 7.1692882 19.03793474 10 17 C9.43677219 15.00671284 9.43677219 15.00671284 8 13 C5.12388584 11.67172183 5.12388584 11.67172183 1.75 10.8125 C0.63109375 10.48894531 -0.4878125 10.16539062 -1.640625 9.83203125 C-18.79877853 5.58239555 -38.2612881 6.61402984 -54 15 Z M-55 26 C-55.41725678 29.37400578 -55.41725678 29.37400578 -55 33 C-42.98907667 42.0302714 -23.70444331 41.80750086 -9.47265625 40.58203125 C-2.3170094 39.38271586 4.94720173 37.03519885 11 33 C11.73343428 29.93443402 11.73343428 29.93443402 12 27 C11.40832031 27.13277344 10.81664062 27.26554687 10.20703125 27.40234375 C9.41683594 27.57894531 8.62664062 27.75554687 7.8125 27.9375 C7.03519531 28.11152344 6.25789063 28.28554687 5.45703125 28.46484375 C-11.2342344 32.10030225 -32.07582019 35.9620899 -48 28 C-49.3242287 27.63215869 -50.65613912 27.28797019 -52 27 C-52.99 26.67 -53.98 26.34 -55 26 Z M-94.89453125 48.109375 C-95.25933594 48.73328125 -95.62414062 49.3571875 -96 50 C-89.22724779 55.53571984 -80.50997815 56.59241034 -72 57 C-70.46666016 57.07927734 -70.46666016 57.07927734 -68.90234375 57.16015625 C-59.93206349 57.40606381 -51.85823871 56.0316271 -43.5625 52.5625 C-42.716875 52.376875 -41.87125 52.19125 -41 52 C-39.32012773 53.31665664 -37.65533995 54.65263027 -36 56 C-33.01927253 56.64300885 -30.03737977 56.79417024 -27 57 C-25.33034549 57.31802943 -23.66321482 57.64984951 -22 58 C-19.66822025 58.34403308 -17.33512959 58.67949202 -15 59 C-15.495 61.475 -15.495 61.475 -16 64 C-14.515 64.495 -14.515 64.495 -13 65 C-12.4225 64.154375 -11.845 63.30875 -11.25 62.4375 C-5.20666066 55.2095288 3.88511266 51.3672331 13 50 C12.505 49.54625 12.01 49.0925 11.5 48.625 C10 47 10 47 10 45 C10.66 44.67 11.32 44.34 12 44 C10.68 44 9.36 44 8 44 C7.67 44.33 7.34 44.66 7 45 C-9.49498547 52.19781184 -34.1984435 51.35769296 -50.75 44.875 C-52.17205307 44.2623545 -53.59102187 43.6421449 -55 43 C-55.33 44.32 -55.66 45.64 -56 47 C-57.98 47 -59.96 47 -62 47 C-62.495 46.01 -62.495 46.01 -63 45 C-63.99 45 -64.98 45 -66 45 C-65.67 44.34 -65.34 43.68 -65 43 C-81.14133274 41.89515855 -81.14133274 41.89515855 -94.89453125 48.109375 Z M-4 67 C-10.89160007 75.52663601 -12.86574708 83.11632244 -12 94 C-10.52842818 102.60684025 -6.59834738 109.42492525 0.3125 114.8125 C8.61701364 120.23324847 18.36268994 121.97876328 28 120 C37.08900724 117.4527623 43.14990078 111.93652599 48 104 C51.78321675 95.84415229 51.96591121 86.54956257 48.94140625 78.140625 C45.14392659 69.505692 38.78612769 63.14635106 30.05078125 59.7109375 C17.89430725 55.49669318 5.25052388 58.00264835 -4 67 Z M-98 60 C-98 63.01083067 -97.79724839 65.17288351 -95.64453125 67.40625 C-86.26466102 73.96615924 -74.06331895 74.52313417 -63 74 C-62.67 74 -62.34 74 -62 74 C-60.35173688 73.70058007 -58.70628584 73.38559707 -57.0625 73.0625 C-56.16660156 72.88847656 -55.27070313 72.71445312 -54.34765625 72.53515625 C-51.9955884 72.09664424 -51.9955884 72.09664424 -50 71 C-50 69.35 -50 67.7 -50 66 C-49.34 67.32 -48.68 68.64 -48 70 C-45.95163118 69.43637698 -45.95163118 69.43637698 -44 68 C-43.33963205 64.9550144 -43.33963205 64.9550144 -43 62 C-43.80179688 62.2165625 -44.60359375 62.433125 -45.4296875 62.65625 C-61.37180857 66.56044291 -78.85849209 66.93985779 -94 60 C-95.32 60 -96.64 60 -98 60 Z M-16 65 C-16.33 66.65 -16.66 68.3 -17 70 C-16.01 68.68 -15.02 67.36 -14 66 C-14.66 65.67 -15.32 65.34 -16 65 Z M-35 66 C-35.48875818 70.69801727 -35.48875818 70.69801727 -33.6875 72.8125 C-31.93500458 74.2877467 -31.93500458 74.2877467 -29 74 C-28.67 73.67 -28.34 73.34 -28 73 C-28 73.33 -28 73.66 -28 74 C-26.700625 74.12375 -25.40125 74.2475 -24.0625 74.375 C-21.84765625 74.5859375 -21.84765625 74.5859375 -20 75 C-19.67 75.66 -19.34 76.32 -19 77 C-17.22240124 72.03079316 -17.22240124 72.03079316 -18 67 C-23.61 66.67 -29.22 66.34 -35 66 Z M-97 77 C-97 77.66 -97 78.32 -97 79 C-96.34 78.67 -95.68 78.34 -95 78 C-95.66 77.67 -96.32 77.34 -97 77 Z M-21 77 C-20 81 -20 81 -20 81 Z M-94 78 C-94 78.66 -94 79.32 -94 80 C-94.99 80.495 -94.99 80.495 -96 81 C-91.0916001 86.89007988 -84.54861103 89.64756593 -77 90.75 C-70.29474868 91.3200821 -63.60626822 91.39079331 -57 90 C-57 89.34 -57 88.68 -57 88 C-56.44699219 88.21914063 -55.89398438 88.43828125 -55.32421875 88.6640625 C-52.07098647 89.13427759 -50.59992558 88.04663188 -47.8125 86.375 C-46.93207031 85.86710937 -46.05164063 85.35921875 -45.14453125 84.8359375 C-42.57289503 82.63435458 -42.28811528 81.31050103 -42 78 C-43.27875 78.28875 -44.5575 78.5775 -45.875 78.875 C-62.02101383 82.05388941 -78.22524668 83.7792299 -94 78 Z " fill="#C10C30" transform="translate(296,211)"/>
<path d="M0 0 C1.39239946 0.50256686 2.7848155 1.00508777 4.17724609 1.50756836 C5.26063263 1.90273148 5.26063263 1.90273148 6.36590576 2.30587769 C26.12976845 9.50005728 46.04993455 16.4556222 66.65576172 20.83764648 C67.41002441 21.00852783 68.16428711 21.17940918 68.94140625 21.35546875 C69.59286621 21.49307617 70.24432617 21.63068359 70.91552734 21.77246094 C73.59481589 22.89434769 74.99371182 24.2877465 76.79296875 26.55859375 C77.29467773 29.05932617 77.29467773 29.05932617 77.2890625 31.9140625 C77.29196289 32.99550537 77.29486328 34.07694824 77.29785156 35.19116211 C77.27561523 36.36428955 77.25337891 37.53741699 77.23046875 38.74609375 C77.21725586 39.96756104 77.20404297 41.18902832 77.19042969 42.44750977 C77.00384058 52.32367113 76.37637571 62.15503202 75.54296875 71.99609375 C75.48865692 72.68061615 75.43434509 73.36513855 75.37838745 74.07040405 C74.6201512 83.35701808 72.90520322 91.77204224 69.79296875 100.55859375 C67.44984745 100.30298052 65.11453472 99.96588603 62.79296875 99.55859375 C61.3473533 96.66736286 62.08036784 94.65674876 62.5703125 91.4765625 C62.84584961 89.61161133 62.84584961 89.61161133 63.12695312 87.70898438 C63.52080677 85.10929355 63.92115846 82.51070136 64.32226562 79.91210938 C65.52677007 71.7239973 66.05272042 63.8330399 65.79296875 55.55859375 C66.45296875 55.55859375 67.11296875 55.55859375 67.79296875 55.55859375 C67.79296875 47.63859375 67.79296875 39.71859375 67.79296875 31.55859375 C65.48296875 31.22859375 63.17296875 30.89859375 60.79296875 30.55859375 C57.29907064 29.79371335 53.86335463 28.82974536 50.41796875 27.87109375 C49.37809814 27.58218262 48.33822754 27.29327148 47.2668457 26.99560547 C34.172459 23.24269135 21.32382863 18.73162939 8.45751953 14.27075195 C7.58433578 13.96815964 6.71115204 13.66556732 5.81150818 13.35380554 C4.15981902 12.78038387 2.50879061 12.20505424 0.85853577 11.6275177 C-0.25250267 11.24076118 -0.25250267 11.24076118 -1.38598633 10.84619141 C-2.03005936 10.62081696 -2.67413239 10.3954425 -3.33772278 10.16323853 C-5.27728927 9.53586816 -7.22451127 9.03084234 -9.20703125 8.55859375 C-9.20703125 7.89859375 -9.20703125 7.23859375 -9.20703125 6.55859375 C-15.33307092 7.96306598 -21.0874743 9.88660778 -26.95703125 12.12109375 C-28.61776767 12.7493076 -30.27920233 13.37567939 -31.94140625 14 C-32.66553711 14.27529541 -33.38966797 14.55059082 -34.13574219 14.83422852 C-36.14672495 15.5375036 -38.14031401 16.04639467 -40.20703125 16.55859375 C-42.07841378 17.15230027 -43.94512966 17.76079494 -45.80859375 18.37890625 C-58.08402651 22.41206061 -70.34780855 26.2751883 -82.83203125 29.62109375 C-83.94529785 29.91967285 -85.05856445 30.21825195 -86.20556641 30.52587891 C-93.9177472 32.55859375 -93.9177472 32.55859375 -96.20703125 32.55859375 C-94.97888033 60.08964353 -93.49520256 87.35580538 -84.20703125 113.55859375 C-83.96194824 114.26467773 -83.71686523 114.97076172 -83.46435547 115.69824219 C-80.81941473 123.20315095 -77.74065366 129.93053114 -72.91015625 136.3046875 C-71.27467714 138.46907155 -69.87503089 140.68573226 -68.45703125 142.99609375 C-57.86934125 158.80815572 -40.85585938 169.47995877 -24.06347656 177.64550781 C-22.44434632 178.44187119 -20.8504208 179.2890763 -19.26171875 180.14453125 C-16.0009469 181.74936254 -13.59062393 182.76888072 -9.9453125 182.21484375 C-5.7816771 180.72832268 -2.07375856 178.48843698 1.734375 176.2734375 C2.4341748 175.86955811 3.13397461 175.46567871 3.85498047 175.04956055 C5.2463206 174.23722631 6.62751082 173.40718947 7.99658203 172.55786133 C12.43515998 169.91159506 15.48310936 169.0902793 20.79296875 169.55859375 C21.79296875 172.55859375 21.79296875 172.55859375 21.26953125 175.0078125 C19.28700216 178.43265773 16.61250354 179.70402723 13.16796875 181.37109375 C12.55695313 181.68240234 11.9459375 181.99371094 11.31640625 182.31445312 C9.81564929 183.07655627 8.30519877 183.81951795 6.79296875 184.55859375 C7.12296875 185.21859375 7.45296875 185.87859375 7.79296875 186.55859375 C7.02984375 186.62046875 6.26671875 186.68234375 5.48046875 186.74609375 C1.0479935 187.72274084 -2.65385389 189.51534118 -6.71875 191.5 C-9.20703125 192.55859375 -9.20703125 192.55859375 -12.20703125 192.55859375 C-12.53703125 193.21859375 -12.86703125 193.87859375 -13.20703125 194.55859375 C-14.52305648 193.94105116 -15.83476681 193.31430633 -17.14453125 192.68359375 C-17.87542969 192.33554687 -18.60632813 191.9875 -19.359375 191.62890625 C-21.20703125 190.55859375 -21.20703125 190.55859375 -22.20703125 188.55859375 C-24.04687922 187.81208096 -24.04687922 187.81208096 -26.2578125 187.21875 C-31.04926918 185.70491099 -35.11118079 183.59481526 -39.39453125 180.99609375 C-40.11995117 180.56208252 -40.84537109 180.12807129 -41.59277344 179.6809082 C-46.49926256 176.70304013 -51.27431565 173.56420076 -55.95703125 170.24609375 C-56.51672607 169.850271 -57.0764209 169.45444824 -57.65307617 169.04663086 C-61.16978062 166.48995401 -64.20296394 163.69454694 -67.20703125 160.55859375 C-67.97402344 159.78902344 -68.74101562 159.01945313 -69.53125 158.2265625 C-82.47644421 144.63945783 -98.20703125 121.15686729 -98.20703125 101.55859375 C-98.86703125 101.22859375 -99.52703125 100.89859375 -100.20703125 100.55859375 C-100.57055664 98.79101562 -100.57055664 98.79101562 -100.7421875 96.52734375 C-101.01683535 93.4743655 -101.35082153 90.48246967 -101.890625 87.46484375 C-103.78898767 76.51699247 -104.73923044 65.57722282 -105.39453125 54.49609375 C-105.43714081 53.78839844 -105.47975037 53.08070313 -105.52365112 52.3515625 C-106.92637389 28.63760772 -106.92637389 28.63760772 -104.20703125 24.55859375 C-102.01831055 23.6706543 -102.01831055 23.6706543 -99.28125 22.9453125 C-98.25451172 22.66623047 -97.22777344 22.38714844 -96.16992188 22.09960938 C-95.08904297 21.81794922 -94.00816406 21.53628906 -92.89453125 21.24609375 C-90.81481553 20.68857559 -88.73540003 20.12993657 -86.65625 19.5703125 C-85.50318359 19.2602124 -84.35011719 18.9501123 -83.16210938 18.63061523 C-81.843614 18.27377688 -80.52526475 17.91639831 -79.20703125 17.55859375 C-78.45099609 17.35364288 -77.69496094 17.14869202 -76.91601562 16.93753052 C-66.7525159 14.16212694 -56.72145513 11.14151781 -46.77734375 7.65625 C-45.83423843 7.32590256 -44.89113312 6.99555511 -43.91944885 6.65519714 C-40.06938609 5.30110634 -36.22192375 3.94032152 -32.38037109 2.56225586 C-29.5172984 1.53830477 -26.64806743 0.53351398 -23.77734375 -0.46875 C-22.48668503 -0.94041847 -22.48668503 -0.94041847 -21.16995239 -1.4216156 C-13.2717742 -4.15302525 -7.79596703 -2.84839794 0 0 Z " fill="#C10C30" transform="translate(261.20703125,160.44140625)"/>
<path d="M0 0 C2.46800047 1.15173355 4.04783565 2.04783565 6 4 C5.89426321 8.0804787 5.508412 10.35425832 2.9609375 13.58984375 C2.10757813 14.36457031 1.25421875 15.13929688 0.375 15.9375 C-2.82880841 18.94935413 -5.93256403 21.92504081 -8.8125 25.25 C-9.36421875 25.88550781 -9.9159375 26.52101563 -10.484375 27.17578125 C-11.4645049 28.35547368 -12.41520643 29.56052868 -13.328125 30.79296875 C-15.31820069 33.44430377 -16.81168774 34.9181251 -19.875 36.25 C-24.48132262 35.88149419 -27.02303504 33.41430259 -30 30 C-30.6787965 28.67280087 -31.34622549 27.33970187 -32 26 C-33.6459651 24.31288577 -35.31237149 22.6454378 -37 21 C-39 18 -39 18 -38.8125 15.9375 C-38 14 -38 14 -35 12 C-31.87559006 12.09683089 -30.9088786 13.088255 -28.640625 15.28515625 C-27.45726562 16.65994141 -27.45726562 16.65994141 -26.25 18.0625 C-25.05117188 19.44115234 -25.05117188 19.44115234 -23.828125 20.84765625 C-23.22484375 21.55792969 -22.6215625 22.26820313 -22 23 C-15.6319909 17.80162522 -10.4806305 11.99870985 -5.25 5.6875 C-3.56623775 3.67633953 -1.90025422 1.80024084 0 0 Z " fill="#C10C30" transform="translate(332,283)"/>
<path d="M0 0 C0.66 0.66 1.32 1.32 2 2 C1.01 2 0.02 2 -1 2 C-0.67 1.34 -0.34 0.68 0 0 Z " fill="#C10C30" transform="translate(304,240)"/>
<path d="M0 0 C4 1 4 1 4 1 Z " fill="#C10C30" transform="translate(229,299)"/>
<path d="M0 0 C3 1 3 1 3 1 Z " fill="#C10C30" transform="translate(250,354)"/>
<path d="M0 0 C0.66 0.66 1.32 1.32 2 2 C1.34 2 0.68 2 0 2 C0 1.34 0 0.68 0 0 Z " fill="#C10C30" transform="translate(213,337)"/>
<path d="M0 0 C0.99 0.495 0.99 0.495 2 1 C1.01 1.495 1.01 1.495 0 2 C0 1.34 0 0.68 0 0 Z " fill="#C10C30" transform="translate(219,298)"/>
<path d="M0 0 C0.66 0.66 1.32 1.32 2 2 C1.34 2 0.68 2 0 2 C0 1.34 0 0.68 0 0 Z " fill="#C10C30" transform="translate(274,281)"/>
<path d="M0 0 C0.66 0.66 1.32 1.32 2 2 C1.34 2 0.68 2 0 2 C0 1.34 0 0.68 0 0 Z " fill="#C10C30" transform="translate(300,241)"/>
<path d="M0 0 C0.66 0 1.32 0 2 0 C1.67 0.66 1.34 1.32 1 2 C0.67 1.34 0.34 0.68 0 0 Z " fill="#C10C30" transform="translate(246,241)"/>
<path d="" fill="#C10C30" transform="translate(0,0)"/>
<path d="" fill="#C10C30" transform="translate(0,0)"/>
<path d="" fill="#C10C30" transform="translate(0,0)"/>
<path d="" fill="#C10C30" transform="translate(0,0)"/>
<path d="M0 0 C2 1 2 1 2 1 Z " fill="#C10C30" transform="translate(214,312)"/>
<path d="M0 0 C2 1 2 1 2 1 Z " fill="#C10C30" transform="translate(197,305)"/>
<path d="M0 0 C2 1 2 1 2 1 Z " fill="#C10C30" transform="translate(224,299)"/>
<path d="" fill="#C10C30" transform="translate(0,0)"/>
<path d="M0 0 C2 1 2 1 2 1 Z " fill="#C10C30" transform="translate(334,278)"/>
<path d="M0 0 C2 1 2 1 2 1 Z " fill="#C10C30" transform="translate(203,261)"/>
<path d="M0 0 C2 1 2 1 2 1 Z " fill="#C10C30" transform="translate(229,258)"/>
<path d="" fill="#C10C30" transform="translate(0,0)"/>
<path d="" fill="#C10C30" transform="translate(0,0)"/>
<path d="M0 0 C2 1 2 1 2 1 Z " fill="#C10C30" transform="translate(206,245)"/>
<path d="M0 0 C2 1 2 1 2 1 Z " fill="#C10C30" transform="translate(301,244)"/>
<path d="" fill="#C10C30" transform="translate(0,0)"/>
<path d="" fill="#C10C30" transform="translate(0,0)"/>
<path d="" fill="#C10C30" transform="translate(0,0)"/>
<path d="M0 0 C2 1 2 1 2 1 Z " fill="#C10C30" transform="translate(271,176)"/>
<path d="M0 0 C2 1 2 1 2 1 Z " fill="#C10C30" transform="translate(254,170)"/>
<path d="" fill="#C10C30" transform="translate(0,0)"/>
<path d="" fill="#C10C30" transform="translate(0,0)"/>
<path d="" fill="#C10C30" transform="translate(0,0)"/>
<path d="" fill="#C10C30" transform="translate(0,0)"/>
<path d="" fill="#C10C30" transform="translate(0,0)"/>
<path d="" fill="#C10C30" transform="translate(0,0)"/>
<path d="" fill="#C10C30" transform="translate(0,0)"/>
<path d="" fill="#C10C30" transform="translate(0,0)"/>
<path d="" fill="#C10C30" transform="translate(0,0)"/>
<path d="" fill="#C10C30" transform="translate(0,0)"/>
<path d="" fill="#C10C30" transform="translate(0,0)"/>
<path d="" fill="#C10C30" transform="translate(0,0)"/>
<path d="" fill="#C10C30" transform="translate(0,0)"/>
<path d="" fill="#C10C30" transform="translate(0,0)"/>
<path d="" fill="#C10C30" transform="translate(0,0)"/>
<path d="" fill="#C10C30" transform="translate(0,0)"/>
<path d="" fill="#C10C30" transform="translate(0,0)"/>
<path d="" fill="#C10C30" transform="translate(0,0)"/>
<path d="" fill="#C10C30" transform="translate(0,0)"/>
<path d="" fill="#C10C30" transform="translate(0,0)"/>
<path d="" fill="#C10C30" transform="translate(0,0)"/>
<path d="" fill="#C10C30" transform="translate(0,0)"/>
<path d="" fill="#C10C30" transform="translate(0,0)"/>
<path d="" fill="#C10C30" transform="translate(0,0)"/>
<path d="" fill="#C10C30" transform="translate(0,0)"/>
<path d="" fill="#C10C30" transform="translate(0,0)"/>
<path d="" fill="#C10C30" transform="translate(0,0)"/>
<path d="" fill="#C10C30" transform="translate(0,0)"/>
<path d="" fill="#C10C30" transform="translate(0,0)"/>
<path d="" fill="#C10C30" transform="translate(0,0)"/>
<path d="" fill="#C10C30" transform="translate(0,0)"/>
<path d="" fill="#C10C30" transform="translate(0,0)"/>
<path d="" fill="#C10C30" transform="translate(0,0)"/>
<path d="" fill="#C10C30" transform="translate(0,0)"/>
<path d="" fill="#C10C30" transform="translate(0,0)"/>
<path d="" fill="#C10C30" transform="translate(0,0)"/>
<path d="" fill="#C10C30" transform="translate(0,0)"/>
<path d="" fill="#C10C30" transform="translate(0,0)"/>
<path d="" fill="#C10C30" transform="translate(0,0)"/>
<path d="" fill="#C10C30" transform="translate(0,0)"/>
<path d="" fill="#C10C30" transform="translate(0,0)"/>
<path d="" fill="#C10C30" transform="translate(0,0)"/>
<path d="" fill="#C10C30" transform="translate(0,0)"/>
<path d="" fill="#C10C30" transform="translate(0,0)"/>
<path d="" fill="#C10C30" transform="translate(0,0)"/>
<path d="" fill="#C10C30" transform="translate(0,0)"/>
<path d="" fill="#C10C30" transform="translate(0,0)"/>
<path d="" fill="#C10C30" transform="translate(0,0)"/>
<path d="" fill="#C10C30" transform="translate(0,0)"/>
<path d="" fill="#C10C30" transform="translate(0,0)"/>
<path d="" fill="#C10C30" transform="translate(0,0)"/>
<path d="" fill="#C10C30" transform="translate(0,0)"/>
<path d="" fill="#C10C30" transform="translate(0,0)"/>
<path d="" fill="#C10C30" transform="translate(0,0)"/>
<path d="" fill="#C10C30" transform="translate(0,0)"/>
<path d="" fill="#C10C30" transform="translate(0,0)"/>
<path d="" fill="#C10C30" transform="translate(0,0)"/>
<path d="" fill="#C10C30" transform="translate(0,0)"/>
<path d="" fill="#C10C30" transform="translate(0,0)"/>
<path d="" fill="#C10C30" transform="translate(0,0)"/>
<path d="" fill="#C10C30" transform="translate(0,0)"/>
<path d="" fill="#C10C30" transform="translate(0,0)"/>
<path d="" fill="#C10C30" transform="translate(0,0)"/>
<path d="" fill="#C10C30" transform="translate(0,0)"/>
<path d="" fill="#C10C30" transform="translate(0,0)"/>
<path d="" fill="#C10C30" transform="translate(0,0)"/>
<path d="" fill="#C10C30" transform="translate(0,0)"/>
<path d="" fill="#C10C30" transform="translate(0,0)"/>
<path d="" fill="#C10C30" transform="translate(0,0)"/>
<path d="" fill="#C10C30" transform="translate(0,0)"/>
<path d="" fill="#C10C30" transform="translate(0,0)"/>
<path d="" fill="#C10C30" transform="translate(0,0)"/>
<path d="" fill="#C10C30" transform="translate(0,0)"/>
<path d="" fill="#C10C30" transform="translate(0,0)"/>
<path d="" fill="#C10C30" transform="translate(0,0)"/>
<path d="" fill="#C10C30" transform="translate(0,0)"/>
<path d="" fill="#C10C30" transform="translate(0,0)"/>
<path d="" fill="#C10C30" transform="translate(0,0)"/>
<path d="" fill="#C10C30" transform="translate(0,0)"/>
<path d="" fill="#C10C30" transform="translate(0,0)"/>
<path d="" fill="#C10C30" transform="translate(0,0)"/>
<path d="" fill="#C10C30" transform="translate(0,0)"/>
<path d="" fill="#C10C30" transform="translate(0,0)"/>
<path d="" fill="#C10C30" transform="translate(0,0)"/>
<path d="" fill="#C10C30" transform="translate(0,0)"/>
<path d="" fill="#C10C30" transform="translate(0,0)"/>
<path d="" fill="#C10C30" transform="translate(0,0)"/>
<path d="" fill="#C10C30" transform="translate(0,0)"/>
<path d="" fill="#C10C30" transform="translate(0,0)"/>
<path d="" fill="#C10C30" transform="translate(0,0)"/>
<path d="" fill="#C10C30" transform="translate(0,0)"/>
<path d="" fill="#C10C30" transform="translate(0,0)"/>
<path d="" fill="#C10C30" transform="translate(0,0)"/>
<path d="" fill="#C10C30" transform="translate(0,0)"/>
<path d="" fill="#C10C30" transform="translate(0,0)"/>
<path d="" fill="#C10C30" transform="translate(0,0)"/>
<path d="" fill="#C10C30" transform="translate(0,0)"/>
<path d="" fill="#C10C30" transform="translate(0,0)"/>
<path d="" fill="#C10C30" transform="translate(0,0)"/>
<path d="" fill="#C10C30" transform="translate(0,0)"/>
<path d="" fill="#C10C30" transform="translate(0,0)"/>
<path d="" fill="#C10C30" transform="translate(0,0)"/>
<path d="" fill="#C10C30" transform="translate(0,0)"/>
<path d="" fill="#C10C30" transform="translate(0,0)"/>
<path d="" fill="#C10C30" transform="translate(0,0)"/>
<path d="" fill="#C10C30" transform="translate(0,0)"/>
<path d="" fill="#C10C30" transform="translate(0,0)"/>
<path d="" fill="#C10C30" transform="translate(0,0)"/>
<path d="" fill="#C10C30" transform="translate(0,0)"/>
<path d="" fill="#C10C30" transform="translate(0,0)"/>
<path d="" fill="#C10C30" transform="translate(0,0)"/>
<path d="" fill="#C10C30" transform="translate(0,0)"/>
<path d="" fill="#C10C30" transform="translate(0,0)"/>
<path d="" fill="#C10C30" transform="translate(0,0)"/>
<path d="" fill="#C10C30" transform="translate(0,0)"/>
<path d="" fill="#C10C30" transform="translate(0,0)"/>
<path d="" fill="#C10C30" transform="translate(0,0)"/>
<path d="" fill="#C10C30" transform="translate(0,0)"/>
<path d="" fill="#C10C30" transform="translate(0,0)"/>
<path d="" fill="#C10C30" transform="translate(0,0)"/>
<path d="" fill="#C10C30" transform="translate(0,0)"/>
<path d="" fill="#C10C30" transform="translate(0,0)"/>
<path d="" fill="#C10C30" transform="translate(0,0)"/>
<path d="" fill="#C10C30" transform="translate(0,0)"/>
<path d="" fill="#C10C30" transform="translate(0,0)"/>
<path d="" fill="#C10C30" transform="translate(0,0)"/>
<path d="" fill="#C10C30" transform="translate(0,0)"/>
<path d="" fill="#C10C30" transform="translate(0,0)"/>
<path d="" fill="#C10C30" transform="translate(0,0)"/>
<path d="" fill="#C10C30" transform="translate(0,0)"/>
<path d="" fill="#C10C30" transform="translate(0,0)"/>
<path d="" fill="#C10C30" transform="translate(0,0)"/>
<path d="" fill="#C10C30" transform="translate(0,0)"/>
<path d="" fill="#C10C30" transform="translate(0,0)"/>
<path d="" fill="#C10C30" transform="translate(0,0)"/>
<path d="" fill="#C10C30" transform="translate(0,0)"/>
<path d="" fill="#C10C30" transform="translate(0,0)"/>
<path d="" fill="#C10C30" transform="translate(0,0)"/>
<path d="" fill="#C10C30" transform="translate(0,0)"/>
<path d="" fill="#C10C30" transform="translate(0,0)"/>
<path d="" fill="#C10C30" transform="translate(0,0)"/>
<path d="" fill="#C10C30" transform="translate(0,0)"/>
<path d="" fill="#C10C30" transform="translate(0,0)"/>
<path d="" fill="#C10C30" transform="translate(0,0)"/>
<path d="" fill="#C10C30" transform="translate(0,0)"/>
<path d="" fill="#C10C30" transform="translate(0,0)"/>
<path d="" fill="#C10C30" transform="translate(0,0)"/>
<path d="" fill="#C10C30" transform="translate(0,0)"/>
<path d="" fill="#C10C30" transform="translate(0,0)"/>
<path d="" fill="#C10C30" transform="translate(0,0)"/>
</svg>
