<?xml version="1.0" encoding="UTF-8"?>
<svg version="1.1" xmlns="http://www.w3.org/2000/svg" width="512" height="512">
<path d="M0 0 C1.33742687 0.45060241 2.67059399 0.91399977 3.99975586 1.38842773 C5.08832382 1.75979103 5.08832382 1.75979103 6.19888306 2.13865662 C7.74361426 2.66684208 9.28653807 3.20033929 10.82772827 3.73876953 C14.86214233 5.14717531 18.91070594 6.51398578 22.95678711 7.88842773 C23.75418808 8.16063141 24.55158905 8.43283508 25.37315369 8.71328735 C38.86288188 13.31199688 52.42329311 17.53030222 66.33251953 20.65942383 C72.67422952 22.09089412 79.09965744 23.60871942 85.15209961 26.00952148 C86.65941888 29.02416002 86.31451822 32.14015608 86.32006836 35.44702148 C86.32425781 36.19493958 86.32844727 36.94285767 86.33276367 37.71343994 C86.3425778 40.14552003 86.3425493 42.5774248 86.33959961 45.00952148 C86.33919174 46.24502747 86.33919174 46.24502747 86.33877563 47.50549316 C86.32100067 59.13231258 86.0653586 70.51793444 84.15209961 82.00952148 C83.86012695 83.96438477 83.86012695 83.96438477 83.56225586 85.95874023 C79.78741683 109.67344053 70.54149303 133.42108196 55.15209961 152.00952148 C54.69609375 152.56043457 54.24008789 153.11134766 53.77026367 153.67895508 C39.91687187 170.0947965 22.19170867 181.79146444 3.02709961 191.19702148 C2.23343994 191.59614746 1.43978027 191.99527344 0.62207031 192.40649414 C-3.93882595 194.5641807 -6.85445835 195.66063284 -11.84790039 194.00952148 C-14.4372618 192.86674626 -16.90906972 191.69210442 -19.41040039 190.38452148 C-20.10858887 190.02551758 -20.80677734 189.66651367 -21.52612305 189.29663086 C-22.95360805 188.55999013 -24.37908366 187.81944208 -25.80249023 187.07495117 C-27.67057464 186.10188835 -29.54782404 185.1503879 -31.42993164 184.20483398 C-37.82589706 180.91201193 -43.36645329 177.30751085 -48.82446289 172.61108398 C-50.85313845 170.81843075 -50.85313845 170.81843075 -53.84790039 170.00952148 C-55.55765441 168.38708604 -57.21916759 166.71327764 -58.84790039 165.00952148 C-59.68450195 164.18452148 -60.52110352 163.35952148 -61.38305664 162.50952148 C-62.21708008 161.68452148 -63.05110352 160.85952148 -63.91040039 160.00952148 C-64.74700195 159.18452148 -65.58360352 158.35952148 -66.44555664 157.50952148 C-68.74838051 155.11308688 -70.79646734 152.6212384 -72.84790039 150.00952148 C-73.50790039 149.34952148 -74.16790039 148.68952148 -74.84790039 148.00952148 C-85.66268851 132.75190149 -98.87204984 109.24890045 -97.84790039 90.00952148 C-98.50790039 90.00952148 -99.16790039 90.00952148 -99.84790039 90.00952148 C-99.84790039 88.02952148 -99.84790039 86.04952148 -99.84790039 84.00952148 C-100.50790039 83.67952148 -101.16790039 83.34952148 -101.84790039 83.00952148 C-101.84790039 80.34285482 -101.84790039 77.67618815 -101.84790039 75.00952148 C-101.91534332 73.04578419 -101.98918824 71.08226408 -102.06665039 69.11889648 C-102.92075616 46.93490242 -102.92075616 46.93490242 -103.03540039 38.07202148 C-103.04958008 36.99049805 -103.06375977 35.90897461 -103.07836914 34.79467773 C-102.81763795 31.64380759 -102.51807042 29.71382419 -100.84790039 27.00952148 C-94.75573891 23.54518555 -87.66506567 22.30531334 -80.91040039 20.63452148 C-70.76250128 18.11649023 -60.79578035 15.21200403 -50.84790039 12.00952148 C-50.08442291 11.76478088 -49.32094543 11.52004028 -48.53433228 11.2678833 C-43.66752308 9.70761391 -38.8040115 8.13738793 -33.94262695 6.56030273 C-31.42724943 5.74471967 -28.91102661 4.93177949 -26.39477539 4.11889648 C-24.7879532 3.59822162 -23.18118039 3.07739431 -21.57446289 2.55639648 C-20.8256485 2.31475769 -20.07683411 2.0731189 -19.30532837 1.82415771 C-12.17542557 -0.49428787 -7.46601188 -1.92180764 0 0 Z M-15.60180664 10.23999023 C-16.2949144 10.47228836 -16.98802216 10.70458649 -17.70213318 10.94392395 C-20.667748 11.93787974 -23.63222832 12.93519765 -26.59667969 13.93261719 C-43.07208484 19.4715216 -59.62464232 24.5835905 -76.34790039 29.32202148 C-77.96123545 29.78081669 -79.57451696 30.23980024 -81.18774414 30.69897461 C-85.07385244 31.80465039 -88.9606644 32.90781722 -92.84790039 34.00952148 C-100.71534949 60.9589853 -88.66979391 103.07737824 -76.12524414 127.34155273 C-72.26583985 134.1900173 -67.96865522 141.02942159 -62.84790039 147.00952148 C-62.18790039 147.00952148 -61.52790039 147.00952148 -60.84790039 147.00952148 C-60.6171582 147.56639648 -60.38641602 148.12327148 -60.14868164 148.69702148 C-58.49933723 151.62918932 -56.43240287 153.65204978 -54.03540039 156.00952148 C-53.18333008 156.85514648 -52.33125977 157.70077148 -51.45336914 158.57202148 C-46.85813298 163.37799894 -46.85813298 163.37799894 -40.84790039 165.00952148 C-40.84790039 165.66952148 -40.84790039 166.32952148 -40.84790039 167.00952148 C-38.54618961 168.65622414 -36.25816664 170.1607493 -33.84790039 171.63452148 C-32.77596436 172.29242676 -32.77596436 172.29242676 -31.68237305 172.96362305 C-26.60502458 176.03468053 -21.47130564 178.99049258 -16.22290039 181.75952148 C-15.24836914 182.29826904 -15.24836914 182.29826904 -14.25415039 182.84790039 C-11.15526705 184.42546989 -9.31752036 185.09926562 -5.86352539 184.43920898 C-4.37079102 183.73151367 -4.37079102 183.73151367 -2.84790039 183.00952148 C-1.97029053 182.61410156 -1.97029053 182.61410156 -1.07495117 182.21069336 C30.36896056 167.82427157 54.82285328 144.38142558 67.19116211 111.81274414 C75.80067674 86.69728506 77.7720992 60.3388374 77.15209961 34.00952148 C74.67709961 34.99952148 74.67709961 34.99952148 72.15209961 36.00952148 C72.15209961 35.34952148 72.15209961 34.68952148 72.15209961 34.00952148 C73.14209961 33.67952148 74.13209961 33.34952148 75.15209961 33.00952148 C72.07300194 32.13955563 68.9883133 31.29136297 65.90209961 30.44702148 C65.0294043 30.20016602 64.15670898 29.95331055 63.25756836 29.69897461 C62.41323242 29.47016602 61.56889648 29.24135742 60.69897461 29.00561523 C59.53640137 28.68355103 59.53640137 28.68355103 58.3503418 28.35498047 C55.96185943 27.97962479 54.43113561 28.2627059 52.15209961 29.00952148 C52.15209961 28.34952148 52.15209961 27.68952148 52.15209961 27.00952148 C51.11617676 26.68266357 50.08025391 26.35580566 49.01293945 26.01904297 C45.06302157 24.77266925 41.11320353 23.52597938 37.16342163 22.2791748 C35.41134598 21.72613327 33.65925056 21.17315436 31.90713501 20.62023926 C20.6430638 17.06544376 9.38063994 13.50601278 -1.86401367 9.89013672 C-7.7880768 7.99407639 -9.84262233 8.29635962 -15.60180664 10.23999023 Z " fill="#C10C30" transform="translate(264.847900390625,159.990478515625)"/>
<path d="M0 0 C1.5159375 0.2165625 1.5159375 0.2165625 3.0625 0.4375 C5.60357478 3.95516683 7.0405497 7.73524374 8.5078125 11.796875 C9.16330078 13.59318359 9.16330078 13.59318359 9.83203125 15.42578125 C10.27933594 16.66714844 10.72664063 17.90851563 11.1875 19.1875 C12.08247876 21.66274473 12.98181295 24.13630502 13.8828125 26.609375 C14.27742676 27.7034668 14.67204102 28.79755859 15.07861328 29.92480469 C15.83042338 32.33896029 15.83042338 32.33896029 17.0625 33.4375 C18.47820123 33.52401611 19.898095 33.54454904 21.31640625 33.53515625 C22.17041016 33.53193359 23.02441406 33.52871094 23.90429688 33.52539062 C25.25104492 33.51282227 25.25104492 33.51282227 26.625 33.5 C27.52669922 33.49548828 28.42839844 33.49097656 29.35742188 33.48632812 C31.59251314 33.47450225 33.82747437 33.4580222 36.0625 33.4375 C36.0625 34.0975 36.0625 34.7575 36.0625 35.4375 C37.61710937 35.38529297 37.61710937 35.38529297 39.203125 35.33203125 C40.57290042 35.30388518 41.94269341 35.27658589 43.3125 35.25 C43.99441406 35.22486328 44.67632812 35.19972656 45.37890625 35.17382812 C48.65449289 35.12612541 50.71598556 35.22664924 53.546875 36.94921875 C54.04703125 37.44035156 54.5471875 37.93148437 55.0625 38.4375 C54.85514478 42.48388904 54.3633748 44.1179663 51.54296875 47.11328125 C50.45738455 48.00705548 49.35889127 48.88531186 48.25 49.75 C47.67556152 50.22727539 47.10112305 50.70455078 46.50927734 51.19628906 C43.61697895 53.56609245 40.71085552 55.70934881 37.49609375 57.62109375 C34.15792742 59.70596977 31.57387907 61.39836736 29.0625 64.4375 C28.24964282 69.7210717 28.64437543 74.24212774 30.0625 79.4375 C30.7225 79.7675 31.3825 80.0975 32.0625 80.4375 C32.71367579 82.80622661 33.23765074 85.09208485 33.6875 87.5 C33.81938721 88.1794165 33.95127441 88.85883301 34.0871582 89.55883789 C34.96133819 94.28686891 35.35557021 98.6506865 35.0625 103.4375 C31.28062119 105.27441257 29.11681692 105.59587626 25.0625 104.4375 C25.0625 103.7775 25.0625 103.1175 25.0625 102.4375 C22.88791722 100.616458 22.88791722 100.616458 20.1875 98.8125 C18.83011719 97.86503906 18.83011719 97.86503906 17.4453125 96.8984375 C15.24416294 95.26326895 15.24416294 95.26326895 13.0625 95.4375 C11.39583333 93.77083333 9.72916667 92.10416667 8.0625 90.4375 C6.06841923 89.09533025 4.06948975 87.7602887 2.0625 86.4375 C1.7325 85.7775 1.4025 85.1175 1.0625 84.4375 C-8.28344155 90.19765173 -17.60226631 96.27880971 -26.125 103.21875 C-28.98733852 105.1434259 -31.58955162 104.68098715 -34.9375 104.4375 C-36.4225 103.9425 -36.4225 103.9425 -37.9375 103.4375 C-37.27580537 100.76989244 -36.59213683 98.10948981 -35.88671875 95.453125 C-33.15427379 85.13430635 -30.49615807 74.8007799 -27.9375 64.4375 C-28.48921875 64.19515625 -29.0409375 63.9528125 -29.609375 63.703125 C-32.44540919 62.16138829 -34.71592001 60.26362719 -37.1875 58.1875 C-41.12310014 54.90958705 -45.09656487 51.77654957 -49.28125 48.82421875 C-52.19509679 46.38455929 -53.73844843 44.0346547 -54.9375 40.4375 C-54.25 38.3125 -54.25 38.3125 -52.9375 36.4375 C-41.6796735 32.66802551 -27.64117823 34.33248195 -15.9375 34.4375 C-15.81890625 33.57253906 -15.7003125 32.70757812 -15.578125 31.81640625 C-14.93746664 28.43732406 -13.96169153 25.56451107 -12.6875 22.375 C-10.40333885 16.61494144 -8.20722906 10.82859425 -6.05078125 5.01953125 C-4.54068642 1.51717096 -3.8269572 0.56997235 0 0 Z M-0.9375 19.4375 C-1.1641333 19.99211914 -1.3907666 20.54673828 -1.62426758 21.11816406 C-2.66022837 23.64376411 -3.70501285 26.16562207 -4.75 28.6875 C-5.10642578 29.56019531 -5.46285156 30.43289062 -5.83007812 31.33203125 C-6.35698242 32.59853516 -6.35698242 32.59853516 -6.89453125 33.890625 C-7.21397705 34.66567383 -7.53342285 35.44072266 -7.86254883 36.23925781 C-9.0123396 38.59054468 -10.1944295 40.4824015 -11.9375 42.4375 C-15.125 43.1875 -15.125 43.1875 -17.9375 43.4375 C-17.9375 44.0975 -17.9375 44.7575 -17.9375 45.4375 C-18.5975 45.4375 -19.2575 45.4375 -19.9375 45.4375 C-20.2675 44.7775 -20.5975 44.1175 -20.9375 43.4375 C-29.3525 43.9325 -29.3525 43.9325 -37.9375 44.4375 C-34.74568086 47.62931914 -32.01846581 50.27826738 -28.5 52.9375 C-24.90061048 55.68820403 -21.39547095 58.51152458 -17.9375 61.4375 C-18.41281175 63.81405875 -18.88863556 66.19049696 -19.3671875 68.56640625 C-19.73665736 70.42640862 -20.09664793 72.28832931 -20.4453125 74.15234375 C-21.26587085 78.48306835 -22.20955088 82.36447708 -23.9375 86.4375 C-23.9375 87.4275 -23.9375 88.4175 -23.9375 89.4375 C-20.52481991 87.88265743 -17.68742318 85.86637117 -14.6875 83.625 C-7.31033509 78.23475151 -7.31033509 78.23475151 -4.5625 76.375 C-3.97726563 75.97152344 -3.39203125 75.56804687 -2.7890625 75.15234375 C-0.12456974 74.12364718 1.36981515 74.55364162 4.0625 75.4375 C6.37890625 77.03125 6.37890625 77.03125 8.625 78.9375 C11.63551376 81.5613646 11.63551376 81.5613646 15.27734375 82.96875 C15.86644531 83.1234375 16.45554687 83.278125 17.0625 83.4375 C17.3925 84.4275 17.7225 85.4175 18.0625 86.4375 C19.0525 87.0975 20.0425 87.7575 21.0625 88.4375 C22.0525 88.1075 23.0425 87.7775 24.0625 87.4375 C23.88074219 86.85484375 23.69898438 86.2721875 23.51171875 85.671875 C22.02582482 80.82557478 20.61824056 75.9605314 19.3125 71.0625 C19.04953125 70.08539063 18.7865625 69.10828125 18.515625 68.1015625 C17.81957181 64.00924979 17.81957181 64.00924979 19.0625 61.4375 C21.06375145 59.49135547 23.02483811 57.74553658 25.1875 56 C26.0695813 55.27031006 26.0695813 55.27031006 26.96948242 54.52587891 C30.88214136 51.31474432 34.91149199 48.3335521 39.0625 45.4375 C39.0625 45.1075 39.0625 44.7775 39.0625 44.4375 C38.4327124 44.41768066 37.8029248 44.39786133 37.15405273 44.37744141 C34.2689864 44.28151103 31.3845777 44.1721103 28.5 44.0625 C27.50935547 44.0315625 26.51871094 44.000625 25.49804688 43.96875 C20.0591938 43.75191865 15.14474082 43.47175704 10.0625 41.4375 C8.2858522 38.6680196 7.20596326 36.47136624 6.0625 33.4375 C5.42828125 31.76300781 5.42828125 31.76300781 4.78125 30.0546875 C3.90707232 27.74218259 3.04936611 25.4233611 2.2109375 23.09765625 C1.34671541 20.31131066 1.34671541 20.31131066 -0.9375 19.4375 Z " fill="#C10C30" transform="translate(256.9375,196.5625)"/>
<path d="M0 0 C1 4 1 4 1 4 Z " fill="#C10C30" transform="translate(337,237)"/>
<path d="M0 0 C0.66 0 1.32 0 2 0 C2 0.66 2 1.32 2 2 C1.34 2 0.68 2 0 2 C0 1.34 0 0.68 0 0 Z " fill="#C10C30" transform="translate(337,206)"/>
<path d="M0 0 C0.66 0 1.32 0 2 0 C1.67 0.66 1.34 1.32 1 2 C0.67 1.34 0.34 0.68 0 0 Z " fill="#C10C30" transform="translate(251,354)"/>
<path d="M0 0 C3 1 3 1 3 1 Z " fill="#C10C30" transform="translate(211,230)"/>
<path d="M0 0 C0.33 0.66 0.66 1.32 1 2 C0.34 1.67 -0.32 1.34 -1 1 C-0.67 0.67 -0.34 0.34 0 0 Z " fill="#C10C30" transform="translate(229,178)"/>
<path d="" fill="#C10C30" transform="translate(0,0)"/>
<path d="M0 0 C2 1 2 1 2 1 Z " fill="#C10C30" transform="translate(272,278)"/>
<path d="" fill="#C10C30" transform="translate(0,0)"/>
<path d="" fill="#C10C30" transform="translate(0,0)"/>
<path d="M0 0 C2 1 2 1 2 1 Z " fill="#C10C30" transform="translate(308,231)"/>
<path d="M0 0 C2 1 2 1 2 1 Z " fill="#C10C30" transform="translate(197,188)"/>
<path d="" fill="#C10C30" transform="translate(0,0)"/>
<path d="M0 0 C2 1 2 1 2 1 Z " fill="#C10C30" transform="translate(259,170)"/>
<path d="M0 0 C2 1 2 1 2 1 Z " fill="#C10C30" transform="translate(249,157)"/>
<path d="" fill="#C10C30" transform="translate(0,0)"/>
<path d="" fill="#C10C30" transform="translate(0,0)"/>
<path d="" fill="#C10C30" transform="translate(0,0)"/>
<path d="" fill="#C10C30" transform="translate(0,0)"/>
<path d="" fill="#C10C30" transform="translate(0,0)"/>
<path d="" fill="#C10C30" transform="translate(0,0)"/>
<path d="" fill="#C10C30" transform="translate(0,0)"/>
<path d="" fill="#C10C30" transform="translate(0,0)"/>
<path d="" fill="#C10C30" transform="translate(0,0)"/>
<path d="" fill="#C10C30" transform="translate(0,0)"/>
<path d="" fill="#C10C30" transform="translate(0,0)"/>
<path d="" fill="#C10C30" transform="translate(0,0)"/>
<path d="" fill="#C10C30" transform="translate(0,0)"/>
<path d="" fill="#C10C30" transform="translate(0,0)"/>
<path d="" fill="#C10C30" transform="translate(0,0)"/>
<path d="" fill="#C10C30" transform="translate(0,0)"/>
<path d="" fill="#C10C30" transform="translate(0,0)"/>
<path d="" fill="#C10C30" transform="translate(0,0)"/>
<path d="" fill="#C10C30" transform="translate(0,0)"/>
<path d="" fill="#C10C30" transform="translate(0,0)"/>
<path d="" fill="#C10C30" transform="translate(0,0)"/>
<path d="" fill="#C10C30" transform="translate(0,0)"/>
<path d="" fill="#C10C30" transform="translate(0,0)"/>
<path d="" fill="#C10C30" transform="translate(0,0)"/>
<path d="" fill="#C10C30" transform="translate(0,0)"/>
<path d="" fill="#C10C30" transform="translate(0,0)"/>
<path d="" fill="#C10C30" transform="translate(0,0)"/>
<path d="" fill="#C10C30" transform="translate(0,0)"/>
<path d="" fill="#C10C30" transform="translate(0,0)"/>
<path d="" fill="#C10C30" transform="translate(0,0)"/>
<path d="" fill="#C10C30" transform="translate(0,0)"/>
<path d="" fill="#C10C30" transform="translate(0,0)"/>
<path d="" fill="#C10C30" transform="translate(0,0)"/>
<path d="" fill="#C10C30" transform="translate(0,0)"/>
<path d="" fill="#C10C30" transform="translate(0,0)"/>
<path d="" fill="#C10C30" transform="translate(0,0)"/>
<path d="" fill="#C10C30" transform="translate(0,0)"/>
<path d="" fill="#C10C30" transform="translate(0,0)"/>
<path d="" fill="#C10C30" transform="translate(0,0)"/>
<path d="" fill="#C10C30" transform="translate(0,0)"/>
<path d="" fill="#C10C30" transform="translate(0,0)"/>
<path d="" fill="#C10C30" transform="translate(0,0)"/>
<path d="" fill="#C10C30" transform="translate(0,0)"/>
<path d="" fill="#C10C30" transform="translate(0,0)"/>
<path d="" fill="#C10C30" transform="translate(0,0)"/>
<path d="" fill="#C10C30" transform="translate(0,0)"/>
<path d="" fill="#C10C30" transform="translate(0,0)"/>
<path d="" fill="#C10C30" transform="translate(0,0)"/>
<path d="" fill="#C10C30" transform="translate(0,0)"/>
<path d="" fill="#C10C30" transform="translate(0,0)"/>
<path d="" fill="#C10C30" transform="translate(0,0)"/>
<path d="" fill="#C10C30" transform="translate(0,0)"/>
<path d="" fill="#C10C30" transform="translate(0,0)"/>
<path d="" fill="#C10C30" transform="translate(0,0)"/>
<path d="" fill="#C10C30" transform="translate(0,0)"/>
<path d="" fill="#C10C30" transform="translate(0,0)"/>
<path d="" fill="#C10C30" transform="translate(0,0)"/>
<path d="" fill="#C10C30" transform="translate(0,0)"/>
<path d="" fill="#C10C30" transform="translate(0,0)"/>
<path d="" fill="#C10C30" transform="translate(0,0)"/>
<path d="" fill="#C10C30" transform="translate(0,0)"/>
<path d="" fill="#C10C30" transform="translate(0,0)"/>
<path d="" fill="#C10C30" transform="translate(0,0)"/>
<path d="" fill="#C10C30" transform="translate(0,0)"/>
<path d="" fill="#C10C30" transform="translate(0,0)"/>
<path d="" fill="#C10C30" transform="translate(0,0)"/>
<path d="" fill="#C10C30" transform="translate(0,0)"/>
<path d="" fill="#C10C30" transform="translate(0,0)"/>
<path d="" fill="#C10C30" transform="translate(0,0)"/>
<path d="" fill="#C10C30" transform="translate(0,0)"/>
<path d="" fill="#C10C30" transform="translate(0,0)"/>
<path d="" fill="#C10C30" transform="translate(0,0)"/>
<path d="" fill="#C10C30" transform="translate(0,0)"/>
<path d="" fill="#C10C30" transform="translate(0,0)"/>
<path d="" fill="#C10C30" transform="translate(0,0)"/>
<path d="" fill="#C10C30" transform="translate(0,0)"/>
<path d="" fill="#C10C30" transform="translate(0,0)"/>
<path d="" fill="#C10C30" transform="translate(0,0)"/>
<path d="" fill="#C10C30" transform="translate(0,0)"/>
<path d="" fill="#C10C30" transform="translate(0,0)"/>
<path d="" fill="#C10C30" transform="translate(0,0)"/>
<path d="" fill="#C10C30" transform="translate(0,0)"/>
<path d="" fill="#C10C30" transform="translate(0,0)"/>
<path d="" fill="#C10C30" transform="translate(0,0)"/>
<path d="" fill="#C10C30" transform="translate(0,0)"/>
<path d="" fill="#C10C30" transform="translate(0,0)"/>
<path d="" fill="#C10C30" transform="translate(0,0)"/>
<path d="" fill="#C10C30" transform="translate(0,0)"/>
<path d="" fill="#C10C30" transform="translate(0,0)"/>
<path d="" fill="#C10C30" transform="translate(0,0)"/>
<path d="" fill="#C10C30" transform="translate(0,0)"/>
<path d="" fill="#C10C30" transform="translate(0,0)"/>
<path d="" fill="#C10C30" transform="translate(0,0)"/>
<path d="" fill="#C10C30" transform="translate(0,0)"/>
</svg>
