<?xml version="1.0" encoding="UTF-8"?>
<svg version="1.1" xmlns="http://www.w3.org/2000/svg" width="512" height="512">
<path d="M0 0 C1.2890625 2.68359375 1.2890625 2.68359375 2 5 C0.68 6.32 -0.64 7.64 -2 9 C-7.66336634 7.1980198 -7.66336634 7.1980198 -10.125 5.75 C-12.05989306 4.72857825 -12.05989306 4.72857825 -14.25 5.875 C-14.8275 6.24625 -15.405 6.6175 -16 7 C-16.0515625 6.38382813 -16.103125 5.76765625 -16.15625 5.1328125 C-16.82236899 2.7536707 -16.82236899 2.7536707 -19.40625 1.8046875 C-22.59838618 0.84543446 -25.78911545 -0.10522823 -29 -1 C-29.72574219 -1.22945312 -30.45148438 -1.45890625 -31.19921875 -1.6953125 C-37.98267006 -3.58774882 -50.60439532 -5.19780234 -57 -2 C-58.134375 -1.938125 -59.26875 -1.87625 -60.4375 -1.8125 C-69.98923929 -0.66837152 -78.10525032 5.72205247 -84 13 C-90.28096933 21.83618185 -93.57864281 30.51144936 -93.4375 41.375 C-93.42505249 42.62108032 -93.42505249 42.62108032 -93.41235352 43.89233398 C-93.10749451 55.0115508 -89.16744214 63.50217417 -82 72 C-80.515 72.99 -80.515 72.99 -79 74 C-79 74.66 -79 75.32 -79 76 C-78.44054687 76.2784375 -77.88109375 76.556875 -77.3046875 76.84375 C-75.74321284 77.6271339 -74.18601132 78.41908328 -72.6328125 79.21875 C-66.02836367 82.63571306 -66.02836367 82.63571306 -59 85 C-58.34 84.67 -57.68 84.34 -57 84 C-57 84.66 -57 85.32 -57 86 C-55.948125 85.89171875 -55.948125 85.89171875 -54.875 85.78125 C-50.5451829 85.35768094 -46.41686329 84.98014937 -42.0625 85.1875 C-32.06264001 85.31095506 -23.58602491 80.13860784 -16.4375 73.6875 C-8.26670584 64.67867567 -3.91096733 56.04412301 -2 44 C-2.99 44.99 -2.99 44.99 -4 46 C-4.639375 46.144375 -5.27875 46.28875 -5.9375 46.4375 C-8.47625765 47.12988845 -9.29463173 48.01565328 -11 50 C-11.96087228 51.96109957 -11.96087228 51.96109957 -12.75 54.125 C-16.79784563 63.55464039 -23.50711599 71.15134338 -32.96484375 75.30078125 C-35.04356727 76.13072896 -37.12554288 76.95258507 -39.2109375 77.765625 C-42.8057135 79.35659029 -45.1974137 81.27526332 -48 84 C-49.485 83.01 -49.485 83.01 -51 82 C-51 80.68 -51 79.36 -51 78 C-51.9075 77.95875 -52.815 77.9175 -53.75 77.875 C-61.66349912 76.74450013 -69.99771779 72.17928979 -75 66 C-75.48855469 65.47277344 -75.97710937 64.94554687 -76.48046875 64.40234375 C-82.29390276 57.64153531 -85.03896919 49.2218714 -84.97265625 40.3359375 C-83.59970423 28.33241413 -78.71080913 18.13917924 -69.16015625 10.53515625 C-64.55923896 7.43965157 -59.70192511 5.70707722 -54.41796875 4.08984375 C-51.6435034 2.83931737 -50.59535286 1.54938446 -49 -1 C-46 1 -46 1 -45 4 C-44.23816406 4.07476562 -43.47632813 4.14953125 -42.69140625 4.2265625 C-31.36478532 5.66890374 -24.9344588 10.10966821 -18 19 C-18.99 20.98 -19.98 22.96 -21 25 C-23.1875 24.875 -23.1875 24.875 -26 24 C-27.25369631 22.52128127 -28.5041137 21.03764808 -29.6796875 19.49609375 C-32.5024663 16.2975012 -36.82763521 14.61812812 -41 14 C-41.495 14.495 -41.495 14.495 -42 15 C-42.99 15 -43.98 15 -45 15 C-45.66 16.65 -46.32 18.3 -47 20 C-47.99 20 -48.98 20 -50 20 C-50.66 19.34 -51.32 18.68 -52 18 C-52 16.68 -52 15.36 -52 14 C-53.2375 14.309375 -54.475 14.61875 -55.75 14.9375 C-57.16666667 15.29166667 -58.58333333 15.64583333 -60 16 C-60.74765625 16.18691406 -61.4953125 16.37382812 -62.265625 16.56640625 C-63.12414062 16.78103516 -63.12414062 16.78103516 -64 17 C-64 17.66 -64 18.32 -64 19 C-65.13695312 19.86625 -65.13695312 19.86625 -66.296875 20.75 C-69.34410779 23.28642498 -70.55871862 25.43940762 -72.25 29 C-73.00023437 30.546875 -73.00023437 30.546875 -73.765625 32.125 C-74.76203295 34.44574764 -75.50242609 36.53582446 -76 39 C-74.35 39.66 -72.7 40.32 -71 41 C-71.309375 41.556875 -71.61875 42.11375 -71.9375 42.6875 C-73.56455979 46.22874777 -74.39215097 48.7712603 -73.1796875 52.5703125 C-69.9230072 59.04497719 -69.9230072 59.04497719 -64 63 C-63.34451172 63.72316406 -63.34451172 63.72316406 -62.67578125 64.4609375 C-60.5266161 66.43476284 -58.61325833 66.92365682 -55.8125 67.6875 C-54.91144531 67.93886719 -54.01039063 68.19023437 -53.08203125 68.44921875 C-52.39496094 68.63097656 -51.70789063 68.81273437 -51 69 C-51.33 68.01 -51.66 67.02 -52 66 C-50.35 65.34 -48.7 64.68 -47 64 C-46.34 65.32 -45.68 66.64 -45 68 C-38.23329264 67.82769958 -33.22144407 66.4456163 -28 62 C-26.15524326 59.3473782 -26.15524326 59.3473782 -25 57 C-24.34 57 -23.68 57 -23 57 C-22.72736328 56.14728516 -22.72736328 56.14728516 -22.44921875 55.27734375 C-17.81358233 41.03761957 -17.81358233 41.03761957 -13 38 C-10.69632574 37.01115869 -8.35861599 36.09950152 -6 35.25 C-4.783125 34.80140625 -3.56625 34.3528125 -2.3125 33.890625 C2.26770929 32.65915363 2.26770929 32.65915363 5 34 C8.37136503 39.05704755 7.51033707 44.82199189 6.5703125 50.67578125 C4.21467188 60.49095049 -0.45111994 70.31406164 -7 78 C10.06947024 72.68949815 34.58184845 57.80668792 44 42 C42.42992101 37.28976302 38.38286945 35.63586633 34.37109375 32.9375 C33.58863281 32.298125 32.80617188 31.65875 32 31 C32 30.01 32 29.02 32 28 C31.34 28 30.68 28 30 28 C30 26 30 26 31.1875 24.375 C33.65190054 22.50545476 34.95017516 22.65322691 38 23 C40.32421875 24.46875 40.32421875 24.46875 42.6875 26.5 C43.54472656 27.221875 44.40195312 27.94375 45.28515625 28.6875 C46.18105469 29.450625 47.07695312 30.21375 48 31 C49.87002534 32.50619728 51.7448075 34.00651376 53.625 35.5 C55.08333333 36.66666667 56.54166667 37.83333333 58 39 C57.51898913 43.62765634 55.7809184 45.78524169 52.625 49.125 C51.83351563 49.97320312 51.04203125 50.82140625 50.2265625 51.6953125 C49.49179687 52.45585937 48.75703125 53.21640625 48 54 C47.17628906 54.89332031 47.17628906 54.89332031 46.3359375 55.8046875 C45 57 45 57 43 57 C43 57.66 43 58.32 43 59 C40.99762441 60.78022754 38.99367937 62.43002931 36.875 64.0625 C36.24263428 64.55274658 35.61026855 65.04299316 34.95874023 65.5480957 C6.14140212 87.58152322 -27.41331209 100.97751221 -64.1875 96.25 C-97.71978585 90.71291354 -127.31031965 73.53805584 -151.4375 50.0625 C-152.1070874 49.4236084 -152.7766748 48.7847168 -153.46655273 48.12646484 C-154.07442627 47.51883301 -154.6822998 46.91120117 -155.30859375 46.28515625 C-155.85314209 45.74769775 -156.39769043 45.21023926 -156.95874023 44.65649414 C-158 43 -158 43 -157.76660156 40.91796875 C-154.16784145 31.91419187 -141.60802974 24.71113248 -134 19 C-133.14680176 18.35562988 -133.14680176 18.35562988 -132.27636719 17.69824219 C-97.02891888 -8.7526159 -39.94731338 -31.14666005 0 0 Z M-97 8 C-96.505 8.99 -96.505 8.99 -96 10 C-96.66 10.33 -97.32 10.66 -98 11 C-98.495 9.515 -98.495 9.515 -99 8 C-111.77879625 15.68858271 -124.07611517 23.41332052 -135.5546875 32.984375 C-138 35 -138 35 -140.3203125 36.640625 C-140.87460938 37.08921875 -141.42890625 37.5378125 -142 38 C-142 38.66 -142 39.32 -142 40 C-143.485 40.495 -143.485 40.495 -145 41 C-142.81112378 45.98158037 -139.15201762 48.62165026 -135 52 C-133.56914062 53.16789062 -133.56914062 53.16789062 -132.109375 54.359375 C-124.18067505 60.70034564 -115.80207817 65.96450566 -107 71 C-106.36360596 71.3714917 -105.72721191 71.7429834 -105.0715332 72.12573242 C-102.03018763 73.89280415 -99.4217165 75.22735434 -96 76 C-94.96875 76.53625 -93.9375 77.0725 -92.875 77.625 C-91.92625 78.07875 -90.9775 78.5325 -90 79 C-89.34 78.67 -88.68 78.34 -88 78 C-88.845625 77.13375 -89.69125 76.2675 -90.5625 75.375 C-101.03122974 63.06616099 -103 49.52183326 -103 34 C-99.97825629 23.53054679 -96.07677502 13.40367033 -89 5 C-92.57575896 5 -94.05295935 6.08840607 -97 8 Z " fill="#FFFFFF" transform="translate(307,217)"/>
<path d="M0 0 C2.60448079 2.26863985 2.97443822 2.66130642 3.25 6.3125 C3.02644991 9.60986376 2.63247469 12.75856722 2 16 C4.31 16.33 6.62 16.66 9 17 C9 17.66 9 18.32 9 19 C9.763125 19.0825 10.52625 19.165 11.3125 19.25 C14 20 14 20 15.875 21.75 C17 24 17 24 16.95703125 26.40234375 C15.55458521 30.208983 13.35633539 30.9442183 9.8125 32.8125 C8.53857722 33.49518898 7.26515425 34.17881128 5.9921875 34.86328125 C5.00557129 35.38462646 5.00557129 35.38462646 3.99902344 35.91650391 C2.01110364 36.99398169 0.07077017 38.12831647 -1.8671875 39.29296875 C-2.48698486 39.66252686 -3.10678223 40.03208496 -3.74536133 40.4128418 C-5.47880499 41.44992693 -7.21015999 42.4905008 -8.94140625 43.53125 C-11.98772288 44.99410447 -13.68335649 45.34586971 -17 45 C-17.495 45.99 -17.495 45.99 -18 47 C-18 46.34 -18 45.68 -18 45 C-18.86625 44.9175 -19.7325 44.835 -20.625 44.75 C-24.48383669 43.89248074 -26.78822004 42.24914563 -30 40 C-33.60585289 41.77874412 -37.20224092 43.57380255 -40.7890625 45.390625 C-44.67451474 47.35409197 -48.59274443 49.23826915 -52.5234375 51.109375 C-54.78693472 52.21777769 -57.04995639 53.32715204 -59.3125 54.4375 C-60.41585693 54.95014404 -61.51921387 55.46278809 -62.65600586 55.9909668 C-68.34861696 58.68263177 -68.34861696 58.68263177 -72.33496094 63.32885742 C-73.06078736 65.54941309 -73.53289376 67.71555412 -74 70 C-76.26851908 73.40277863 -78.54915035 74.35907258 -82.375 75.4375 C-85.49982329 75.98984192 -87.0426201 75.98913605 -90.1875 75.1875 C-94.61415036 71.74454972 -98.23491534 67.43355066 -99.48046875 61.84375 C-99.71633403 56.00327646 -97.73705232 51.94760412 -93.9375 47.6875 C-89.76899264 45.29282556 -85.79754185 44.51539981 -81 45 C-78.3125 47.1875 -78.3125 47.1875 -77 50 C-77.25 52.3125 -77.25 52.3125 -78 54 C-76.00016466 53.20882096 -76.00016466 53.20882096 -74 52 C-73.67 51.01 -73.34 50.02 -73 49 C-72.195625 48.938125 -71.39125 48.87625 -70.5625 48.8125 C-66.47577367 47.88043961 -63.52070989 46.20035815 -59.953125 44.05859375 C-58 43 -58 43 -56 43 C-55.67 42.01 -55.34 41.02 -55 40 C-54.01 40 -53.02 40 -52 40 C-48.68655805 38.65687124 -45.54760268 36.95712124 -42.375 35.3125 C-41.49070312 34.87744141 -40.60640625 34.44238281 -39.6953125 33.99414062 C-38.85484375 33.55908203 -38.014375 33.12402344 -37.1484375 32.67578125 C-36.37677246 32.28302002 -35.60510742 31.89025879 -34.81005859 31.4855957 C-32.40036816 29.50785544 -32.33575749 28.03780585 -32 25 C-29.90018484 14.99750212 -29.90018484 14.99750212 -26.6875 11.4375 C-23.85726407 9.92365287 -21.05264252 8.97129535 -18 8 C-17.67 7.34 -17.34 6.68 -17 6 C-15.32592773 5.22216797 -15.32592773 5.22216797 -13.18359375 4.4921875 C-12.41982422 4.22792969 -11.65605469 3.96367187 -10.86914062 3.69140625 C-10.06669922 3.42199219 -9.26425781 3.15257812 -8.4375 2.875 C-7.22803711 2.45927734 -7.22803711 2.45927734 -5.99414062 2.03515625 C-3.99833499 1.3502052 -1.99944421 0.67425584 0 0 Z M-19 18 C-19 18.99 -19 19.98 -19 21 C-19.99 21.33 -20.98 21.66 -22 22 C-21.67 22.99 -21.34 23.98 -21 25 C-16.27004935 22.79347215 -11.78842906 20.67362818 -8 17 C-7.13034494 14.87053397 -7.13034494 14.87053397 -7 13 C-11.36335966 13 -15.52770173 15.51978695 -19 18 Z M-21 18 C-20 20 -20 20 -20 20 Z M-17 31 C-17.93328125 31.51949219 -18.8665625 32.03898437 -19.828125 32.57421875 C-20.54484375 33.04472656 -21.2615625 33.51523438 -22 34 C-22 34.66 -22 35.32 -22 36 C-15.88995004 38.12463101 -10.14194499 34.0356934 -4.6796875 31.39453125 C-1.77581307 29.94945898 1.11694851 28.48610902 4 27 C3.67 26.34 3.34 25.68 3 25 C-5.27869227 24.1857024 -10.05353256 26.67424528 -17 31 Z M-83 53 C-83.66 54.65 -84.32 56.3 -85 58 C-83.35 57.34 -81.7 56.68 -80 56 C-80.33 55.01 -80.66 54.02 -81 53 C-81.66 53 -82.32 53 -83 53 Z M-88 55 C-88.33 56.65 -88.66 58.3 -89 60 C-87.68 59.34 -86.36 58.68 -85 58 C-85.99 57.01 -86.98 56.02 -88 55 Z " fill="#FFFFFF" transform="translate(344,199)"/>
<path d="M0 0 C0.99 0.33 1.98 0.66 3 1 C2.01 1 1.02 1 0 1 C0 0.67 0 0.34 0 0 Z " fill="#FFFFFF" transform="translate(260,214)"/>
<path d="M0 0 C0.66 0.66 1.32 1.32 2 2 C1.34 2 0.68 2 0 2 C0 1.34 0 0.68 0 0 Z " fill="#FFFFFF" transform="translate(327,218)"/>
<path d="M0 0 C3 1 3 1 3 1 Z " fill="#FFFFFF" transform="translate(253,214)"/>
<path d="M0 0 C3 1 3 1 3 1 Z " fill="#FFFFFF" transform="translate(252,201)"/>
<path d="M0 0 C2 1 2 1 2 1 Z " fill="#FFFFFF" transform="translate(261,279)"/>
<path d="" fill="#FFFFFF" transform="translate(0,0)"/>
<path d="" fill="#FFFFFF" transform="translate(0,0)"/>
<path d="M0 0 C2 1 2 1 2 1 Z " fill="#FFFFFF" transform="translate(146,261)"/>
<path d="" fill="#FFFFFF" transform="translate(0,0)"/>
<path d="M0 0 C2 1 2 1 2 1 Z " fill="#FFFFFF" transform="translate(241,253)"/>
<path d="M0 0 C2 1 2 1 2 1 Z " fill="#FFFFFF" transform="translate(307,248)"/>
<path d="M0 0 C2 1 2 1 2 1 Z " fill="#FFFFFF" transform="translate(323,245)"/>
<path d="" fill="#FFFFFF" transform="translate(0,0)"/>
<path d="M0 0 C2 1 2 1 2 1 Z " fill="#FFFFFF" transform="translate(309,226)"/>
<path d="M0 0 C2 1 2 1 2 1 Z " fill="#FFFFFF" transform="translate(323,221)"/>
<path d="" fill="#FFFFFF" transform="translate(0,0)"/>
<path d="" fill="#FFFFFF" transform="translate(0,0)"/>
<path d="M0 0 C2 1 2 1 2 1 Z " fill="#FFFFFF" transform="translate(270,215)"/>
<path d="" fill="#FFFFFF" transform="translate(0,0)"/>
<path d="" fill="#FFFFFF" transform="translate(0,0)"/>
<path d="" fill="#FFFFFF" transform="translate(0,0)"/>
<path d="" fill="#FFFFFF" transform="translate(0,0)"/>
<path d="" fill="#FFFFFF" transform="translate(0,0)"/>
<path d="" fill="#FFFFFF" transform="translate(0,0)"/>
<path d="" fill="#FFFFFF" transform="translate(0,0)"/>
<path d="" fill="#FFFFFF" transform="translate(0,0)"/>
<path d="" fill="#FFFFFF" transform="translate(0,0)"/>
<path d="" fill="#FFFFFF" transform="translate(0,0)"/>
<path d="" fill="#FFFFFF" transform="translate(0,0)"/>
<path d="" fill="#FFFFFF" transform="translate(0,0)"/>
<path d="" fill="#FFFFFF" transform="translate(0,0)"/>
<path d="" fill="#FFFFFF" transform="translate(0,0)"/>
<path d="" fill="#FFFFFF" transform="translate(0,0)"/>
<path d="" fill="#FFFFFF" transform="translate(0,0)"/>
<path d="" fill="#FFFFFF" transform="translate(0,0)"/>
<path d="" fill="#FFFFFF" transform="translate(0,0)"/>
<path d="" fill="#FFFFFF" transform="translate(0,0)"/>
<path d="" fill="#FFFFFF" transform="translate(0,0)"/>
<path d="" fill="#FFFFFF" transform="translate(0,0)"/>
<path d="" fill="#FFFFFF" transform="translate(0,0)"/>
<path d="" fill="#FFFFFF" transform="translate(0,0)"/>
<path d="" fill="#FFFFFF" transform="translate(0,0)"/>
<path d="" fill="#FFFFFF" transform="translate(0,0)"/>
<path d="" fill="#FFFFFF" transform="translate(0,0)"/>
<path d="" fill="#FFFFFF" transform="translate(0,0)"/>
<path d="" fill="#FFFFFF" transform="translate(0,0)"/>
<path d="" fill="#FFFFFF" transform="translate(0,0)"/>
<path d="" fill="#FFFFFF" transform="translate(0,0)"/>
<path d="" fill="#FFFFFF" transform="translate(0,0)"/>
<path d="" fill="#FFFFFF" transform="translate(0,0)"/>
<path d="" fill="#FFFFFF" transform="translate(0,0)"/>
<path d="" fill="#FFFFFF" transform="translate(0,0)"/>
<path d="" fill="#FFFFFF" transform="translate(0,0)"/>
<path d="" fill="#FFFFFF" transform="translate(0,0)"/>
<path d="" fill="#FFFFFF" transform="translate(0,0)"/>
<path d="" fill="#FFFFFF" transform="translate(0,0)"/>
<path d="" fill="#FFFFFF" transform="translate(0,0)"/>
<path d="" fill="#FFFFFF" transform="translate(0,0)"/>
<path d="" fill="#FFFFFF" transform="translate(0,0)"/>
<path d="" fill="#FFFFFF" transform="translate(0,0)"/>
<path d="" fill="#FFFFFF" transform="translate(0,0)"/>
<path d="" fill="#FFFFFF" transform="translate(0,0)"/>
<path d="" fill="#FFFFFF" transform="translate(0,0)"/>
<path d="" fill="#FFFFFF" transform="translate(0,0)"/>
<path d="" fill="#FFFFFF" transform="translate(0,0)"/>
<path d="" fill="#FFFFFF" transform="translate(0,0)"/>
<path d="" fill="#FFFFFF" transform="translate(0,0)"/>
<path d="" fill="#FFFFFF" transform="translate(0,0)"/>
<path d="" fill="#FFFFFF" transform="translate(0,0)"/>
<path d="" fill="#FFFFFF" transform="translate(0,0)"/>
<path d="" fill="#FFFFFF" transform="translate(0,0)"/>
<path d="" fill="#FFFFFF" transform="translate(0,0)"/>
<path d="" fill="#FFFFFF" transform="translate(0,0)"/>
<path d="" fill="#FFFFFF" transform="translate(0,0)"/>
<path d="" fill="#FFFFFF" transform="translate(0,0)"/>
<path d="" fill="#FFFFFF" transform="translate(0,0)"/>
<path d="" fill="#FFFFFF" transform="translate(0,0)"/>
<path d="" fill="#FFFFFF" transform="translate(0,0)"/>
<path d="" fill="#FFFFFF" transform="translate(0,0)"/>
<path d="" fill="#FFFFFF" transform="translate(0,0)"/>
<path d="" fill="#FFFFFF" transform="translate(0,0)"/>
<path d="" fill="#FFFFFF" transform="translate(0,0)"/>
<path d="" fill="#FFFFFF" transform="translate(0,0)"/>
<path d="" fill="#FFFFFF" transform="translate(0,0)"/>
<path d="" fill="#FFFFFF" transform="translate(0,0)"/>
<path d="" fill="#FFFFFF" transform="translate(0,0)"/>
<path d="" fill="#FFFFFF" transform="translate(0,0)"/>
<path d="" fill="#FFFFFF" transform="translate(0,0)"/>
<path d="" fill="#FFFFFF" transform="translate(0,0)"/>
<path d="" fill="#FFFFFF" transform="translate(0,0)"/>
<path d="" fill="#FFFFFF" transform="translate(0,0)"/>
<path d="" fill="#FFFFFF" transform="translate(0,0)"/>
<path d="" fill="#FFFFFF" transform="translate(0,0)"/>
<path d="" fill="#FFFFFF" transform="translate(0,0)"/>
<path d="" fill="#FFFFFF" transform="translate(0,0)"/>
<path d="" fill="#FFFFFF" transform="translate(0,0)"/>
<path d="" fill="#FFFFFF" transform="translate(0,0)"/>
<path d="" fill="#FFFFFF" transform="translate(0,0)"/>
<path d="" fill="#FFFFFF" transform="translate(0,0)"/>
<path d="" fill="#FFFFFF" transform="translate(0,0)"/>
<path d="" fill="#FFFFFF" transform="translate(0,0)"/>
<path d="" fill="#FFFFFF" transform="translate(0,0)"/>
<path d="" fill="#FFFFFF" transform="translate(0,0)"/>
<path d="" fill="#FFFFFF" transform="translate(0,0)"/>
<path d="" fill="#FFFFFF" transform="translate(0,0)"/>
<path d="" fill="#FFFFFF" transform="translate(0,0)"/>
<path d="" fill="#FFFFFF" transform="translate(0,0)"/>
<path d="" fill="#FFFFFF" transform="translate(0,0)"/>
<path d="" fill="#FFFFFF" transform="translate(0,0)"/>
</svg>
